<?xml version="1.0" encoding="UTF-8" standalone="no"?>
<!-- Created with Inkscape (http://www.inkscape.org/) -->

<svg
   xmlns:dc="http://purl.org/dc/elements/1.1/"
   xmlns:cc="http://creativecommons.org/ns#"
   xmlns:rdf="http://www.w3.org/1999/02/22-rdf-syntax-ns#"
   xmlns:svg="http://www.w3.org/2000/svg"
   xmlns="http://www.w3.org/2000/svg"
   xmlns:sodipodi="http://sodipodi.sourceforge.net/DTD/sodipodi-0.dtd"
   xmlns:inkscape="http://www.inkscape.org/namespaces/inkscape"
   id="svg3354"
   version="1.1"
   inkscape:version="0.91 r13725"
   width="250"
   height="250"
   viewBox="0 0 250 250"
   sodipodi:docname="tulip-darkest.svg"
   inkscape:export-filename="C:\Users\Michael Tyler\Pictures\ViceDistrict\tulipsource.png"
   inkscape:export-xdpi="90"
   inkscape:export-ydpi="90">
  <metadata
     id="metadata3360">
    <rdf:RDF>
      <cc:Work
         rdf:about="">
        <dc:format>image/svg+xml</dc:format>
        <dc:type
           rdf:resource="http://purl.org/dc/dcmitype/StillImage" />
        <dc:title />
      </cc:Work>
    </rdf:RDF>
  </metadata>
  <defs
     id="defs3358" />
  <sodipodi:namedview
     pagecolor="#ffffff"
     bordercolor="#666666"
     borderopacity="1"
     objecttolerance="10"
     gridtolerance="10"
     guidetolerance="10"
     inkscape:pageopacity="0"
     inkscape:pageshadow="2"
     inkscape:window-width="1440"
     inkscape:window-height="852"
     id="namedview3356"
     showgrid="false"
     inkscape:zoom="1.4142136"
     inkscape:cx="-117.86522"
     inkscape:cy="95.137857"
     inkscape:window-x="0"
     inkscape:window-y="0"
     inkscape:window-maximized="1"
     inkscape:current-layer="svg3354" />
  <path
     style="opacity:1;fill:#160300;fill-opacity:1;stroke:#ffffff;stroke-width:2.4;stroke-linejoin:miter;stroke-miterlimit:4;stroke-dasharray:none;stroke-dashoffset:0;stroke-opacity:1"
     d="m 81.224462,247.54536 c -14.049763,-0.44148 -13.100207,-0.36431 -13.100207,-1.06448 0,-0.92714 1.962595,-1.65655 10.45749,-3.88657 13.770529,-3.61498 23.867355,-8.69647 30.541935,-15.37105 6.15112,-6.15112 7.16935,-10.28631 6.848,-27.81092 -0.19534,-10.65269 -0.27624,-11.35636 -1.64091,-14.27119 -2.58396,-5.51911 -6.29165,-8.15032 -18.89119,-13.40634 -3.832507,-1.59876 -8.72418,-3.78648 -10.870384,-4.86158 -12.855422,-6.43971 -21.862498,-15.75416 -25.336494,-26.20114 -2.472387,-7.43497 -2.04147,-30.48276 0.731964,-39.14928 0.73588,-2.2995 3.594743,-10.326864 6.353028,-17.838583 9.792467,-26.668088 10.575566,-29.971271 9.28569,-39.16785 -0.78442,-5.592764 -2.083585,-12.924682 -2.786223,-15.724215 L 72.463034,27.38121 114.472,27.41224 c 43.01804,0.03177 60.46873,0.174428 61.96041,0.137582 0,0 -0.39275,4.497774 -1.28086,10.731102 -2.12682,14.927342 -1.04571,20.081876 11.33024,53.805331 5.78747,15.770415 6.08592,17.495075 5.86022,33.865705 l -0.18388,13.33886 -3.16998,6.36854 c -5.55074,11.15154 -9.4994,14.23603 -33.10826,25.86244 -12.53826,6.17459 -15.47606,7.84713 -17.34522,9.87493 -3.20908,3.48144 -4.48898,7.38511 -5.16962,15.76717 -1.68844,20.79299 3.75752,30.21552 22.84026,39.51784 4.77657,2.32844 11.56471,4.68506 23.34391,8.10424 2.78269,0.80774 3.93166,1.3775 3.54916,1.76 -0.31108,0.31108 -5.29842,0.78587 -11.08296,1.05509 -12.00623,0.55878 -72.414878,0.52171 -90.790958,-0.0557 z M 170.0775,48.887214 c 0.16328,-4.31754 1.14021,-17.104868 2.57393,-18.475457 -2.20592,0.98899 0,0 -46.14026,0.176119 -36.280768,0.138485 -48.284439,-0.06237 -48.284439,0.411818 0,0.870304 3.983653,18.607322 2.365641,20.212743 l 0.118604,1.634954 44.264854,0.176777 44.97195,-0.707107 z"
     id="path4180"
     inkscape:connector-curvature="0"
     sodipodi:nodetypes="csssssssssssscssssscssssssssccscssscccs" />
</svg>
