<?xml version="1.0" encoding="UTF-8" standalone="no"?>
<!-- Created with Inkscape (http://www.inkscape.org/) -->

<svg
   xmlns:dc="http://purl.org/dc/elements/1.1/"
   xmlns:cc="http://creativecommons.org/ns#"
   xmlns:rdf="http://www.w3.org/1999/02/22-rdf-syntax-ns#"
   xmlns:svg="http://www.w3.org/2000/svg"
   xmlns="http://www.w3.org/2000/svg"
   xmlns:sodipodi="http://sodipodi.sourceforge.net/DTD/sodipodi-0.dtd"
   xmlns:inkscape="http://www.inkscape.org/namespaces/inkscape"
   id="svg5911"
   version="1.1"
   inkscape:version="0.91 r13725"
   width="250"
   height="250"
   viewBox="0 0 250 250"
   sodipodi:docname="bears.svg">
  <metadata
     id="metadata5917">
    <rdf:RDF>
      <cc:Work
         rdf:about="">
        <dc:format>image/svg+xml</dc:format>
        <dc:type
           rdf:resource="http://purl.org/dc/dcmitype/StillImage" />
        <dc:title></dc:title>
      </cc:Work>
    </rdf:RDF>
  </metadata>
  <defs
     id="defs5915" />
  <sodipodi:namedview
     pagecolor="#ffffff"
     bordercolor="#666666"
     borderopacity="1"
     objecttolerance="10"
     gridtolerance="10"
     guidetolerance="10"
     inkscape:pageopacity="0"
     inkscape:pageshadow="2"
     inkscape:window-width="1442"
     inkscape:window-height="863"
     id="namedview5913"
     showgrid="false"
     inkscape:zoom="0.4887218"
     inkscape:cx="25.838268"
     inkscape:cy="260.55364"
     inkscape:window-x="0"
     inkscape:window-y="0"
     inkscape:window-maximized="0"
     inkscape:current-layer="svg5911" />
  <path
     style="fill:#dbae51;fill-opacity:1;stroke:none;stroke-width:1;stroke-miterlimit:4;stroke-dasharray:none;stroke-opacity:1"
     d="m 129.25294,208.24074 c -8.33119,-0.36076 -18.35864,-1.64566 -25.95654,-3.32605 -1.90526,-0.42138 -3.747537,-0.82622 -4.093948,-0.89966 -0.641131,-0.13591 -8.288343,-2.31876 -9.606128,-2.74201 -3.116994,-1.00113 -8.988001,-3.2642 -12.439217,-4.79487 C 62.933334,190.16962 50.916217,181.7322 41.217771,171.24449 37.019529,166.7046 33.495103,162.0892 30.263195,156.89898 28.954752,154.79771 27.4989,152.42659 27.027968,151.62985 21.298249,141.93602 14.150756,135.07817 5.0417521,130.5346 c -0.8660265,-0.43197 -2.4815595,-1.19923 -3.5900734,-1.70502 -1.10851389,-0.50578 -2.06328019,-0.9617 -2.12170289,-1.01313 -0.058423,-0.0515 0.1966613,-0.20735 0.5668536,-0.34648 4.43191759,-1.66552 6.50892169,-2.67698 9.23886629,-4.49911 7.6994553,-5.13909 15.1700753,-13.56846 18.1846613,-20.51843 3.685826,-8.497458 3.82512,-8.793768 5.690502,-12.105118 11.739986,-20.84031 33.515757,-36.19721 62.05021,-43.75958 2.951327,-0.78218 9.131011,-2.15653 12.266291,-2.72802 2.11722,-0.38592 8.9085,-1.26684 12.05415,-1.56359 5.94948,-0.56123 9.189,-0.69815 15.91063,-0.67243 9.74788,0.0373 17.51503,0.66285 26.39018,2.12532 3.69633,0.60908 5.31903,0.92927 10.89619,2.14996 2.71213,0.59361 9.49993,2.54781 13.43153,3.86691 10.52635,3.53172 20.27414,8.18575 28.76758,13.73487 3.22736,2.10856 3.64243,2.40518 7.43208,5.31104 5.36856,4.11654 11.3065,10.00643 15.55132,15.42545 2.19424,2.80121 5.19073,7.25482 7.20408,10.70724 l 0.91826,1.57459 -28.02498,0.0317 -28.02499,0.0317 -2.23459,-1.65958 c -9.17536,-6.8143 -20.04928,-11.5321 -32.59447,-14.14155 -6.22008,-1.2938 -13.96729,-2.08158 -20.468,-2.08132 -7.7887,2.4e-4 -16.84969,1.09665 -23.9968,2.90353 -2.63592,0.66639 -3.3492,0.86804 -5.60555,1.58481 -19.636662,6.23781 -33.201031,18.483658 -37.369824,33.737298 -1.11034,4.06275 -1.652648,9.10585 -1.352948,12.58149 0.877921,10.18134 10.408879,21.24865 25.524999,29.6395 14.189153,7.8763 31.438493,12.15407 47.775843,11.8482 18.94727,-0.35475 35.73593,-6.86139 48.71595,-18.8805 4.85688,-4.49732 9.15513,-9.76413 13.06588,-16.01014 l 2.18865,-3.49559 23.59792,0 c 20.14783,0 23.59791,0.0258 23.59791,0.17643 0,0.39923 -0.53965,3.24845 -1.24302,6.56283 -0.65816,3.10139 -0.90021,3.96797 -2.00543,7.18015 -0.99636,2.89569 -1.58159,4.34511 -2.82282,6.99119 -9.18211,19.57448 -28.13064,35.50385 -53.7689,45.20166 -4.13323,1.56342 -10.99401,3.75988 -14.03977,4.49478 -0.96994,0.23405 -2.81222,0.68602 -4.09394,1.00441 -3.7732,0.93725 -11.11432,2.24108 -16.2498,2.88608 -8.84964,1.1115 -18.46798,1.51262 -27.20174,1.13445 z m 18.38401,-4.15371 c 2.45952,-0.17454 6.00235,-0.51255 7.87297,-0.75113 1.87061,-0.23858 3.68455,-0.46838 4.03096,-0.51067 0.34641,-0.0423 2.72719,-0.46509 5.29064,-0.93954 29.81228,-5.51786 54.54636,-19.08692 68.76088,-37.72207 3.15452,-4.13554 5.44775,-7.90405 7.56773,-12.43616 1.30629,-2.79264 1.73652,-3.88057 2.75343,-6.96284 0.83639,-2.53508 1.34276,-4.31957 1.65462,-5.83091 0.24715,-1.19781 0.44938,-2.23232 0.44938,-2.29891 0,-0.077 -7.36176,-0.12105 -20.19612,-0.12105 l -20.19611,0 -1.68424,2.67681 c -4.80881,7.64278 -11.46415,14.9725 -18.3962,20.26026 -2.47325,1.88658 -6.70465,4.68768 -8.68348,5.74828 -4.79763,2.57139 -8.89394,4.33895 -13.41554,5.78881 -14.5736,4.67304 -30.9023,5.16388 -47.44142,1.42607 -5.27453,-1.19204 -11.21419,-3.05982 -15.88485,-4.99511 -1.227626,-0.50867 -2.260934,-0.92486 -2.296241,-0.92486 -0.03531,0 -1.298302,-0.58942 -2.806657,-1.30979 -19.252508,-9.19501 -31.63241,-22.61363 -32.676278,-35.41793 -0.209452,-2.56918 -0.0063,-6.31808 0.511484,-9.43936 2.405364,-14.49953 11.816428,-26.670718 27.03372,-34.962328 2.080338,-1.13353 2.64248,-1.41024 5.411832,-2.66387 9.21102,-4.16968 21.39209,-7.0184 32.75154,-7.65943 2.78118,-0.15694 10.23892,-0.1563 12.97465,9.9e-4 10.34208,0.59514 21.15002,2.91573 30.2322,6.49123 6.60353,2.5997 13.10625,6.1433 18.09936,9.86312 l 1.7194,1.28093 23.94183,-0.0318 23.94182,-0.0318 -1.10975,-1.70056 c -1.66571,-2.55251 -5.16714,-6.90614 -7.87563,-9.79245 -17.45342,-18.59937 -45.4455,-31.17299 -77.17126,-34.66417 -2.45952,-0.27066 -5.03871,-0.52526 -5.73153,-0.56579 -0.69282,-0.0406 -2.73349,-0.16601 -4.53482,-0.27882 -2.60044,-0.16287 -4.45593,-0.18959 -9.00668,-0.12973 -7.50787,0.0988 -9.21756,0.19828 -16.56472,0.96407 -9.09497,0.94798 -19.648772,3.22226 -28.468654,6.13483 -26.723723,8.82496 -46.184607,25.06737 -55.360613,46.20503 -0.781974,1.801328 -1.670551,3.867778 -1.974618,4.592108 -2.971228,7.07784 -9.566041,15.08444 -17.300509,21.00413 -1.370333,1.0488 -3.583614,2.54365 -4.6674262,3.15237 -0.3426233,0.19243 -0.6220658,0.37822 -0.6209832,0.41286 0.00108,0.0346 0.3461631,0.24845 0.7668453,0.47511 1.1490391,0.61912 3.2872181,1.97777 4.7735001,3.03319 6.382899,4.53256 11.864745,10.67768 16.317005,18.29128 0.457051,0.78158 1.85821,3.06951 3.113688,5.0843 14.363712,23.05077 38.852263,39.21804 69.880255,46.13475 7.65863,1.70726 17.18693,2.99844 24.50068,3.32008 1.59349,0.0701 3.29404,0.14812 3.77903,0.17342 2.67646,0.13966 11.68062,-0.0711 15.93488,-0.37306 z M 128.48989,199.1614 C 106.50297,198.36791 86.370054,192.73387 70.040979,182.80494 55.102948,173.72184 43.518194,161.39303 35.375202,145.91269 30.877364,137.362 25.753279,131.71695 19.6385,128.57599 l -1.284749,-0.65992 0.55464,-0.45644 c 3.575392,-2.94231 7.316276,-6.78581 9.852923,-10.12321 2.539708,-3.34144 4.905242,-7.52578 6.320859,-11.18083 0.589653,-1.52246 3.090229,-6.421708 4.532717,-8.880708 5.29838,-9.03215 12.440894,-17.41081 20.389798,-23.91865 11.365071,-9.30469 24.817339,-15.90602 40.457442,-19.85337 17.60567,-4.44343 37.55835,-5.10107 56.9373,-1.87668 26.35915,4.38581 49.55182,15.04061 65.57602,30.12587 1.81302,1.7068 4.85312,4.89578 5.36805,5.63095 l 0.17887,0.25536 -18.0386,0 -18.03861,0 -1.58797,-1.18333 c -11.0763,-8.25389 -25.69709,-13.56977 -42.27548,-15.37068 -7.3537,-0.79884 -15.67082,-0.84517 -23.36697,-0.13019 -10.97536,1.01964 -21.94076,3.72299 -31.42889,7.74834 -2.512478,1.06592 -7.134656,3.37676 -9.321594,4.66029 -9.344891,5.48458 -16.53885,12.30393 -21.254248,20.147478 -4.082684,6.7911 -6.294013,14.15839 -6.633937,22.10173 -0.274707,6.4194 0.746485,11.10816 3.673391,16.86624 5.920427,11.64723 18.941826,22.27744 35.963832,29.35961 7.448626,3.09909 15.283296,5.35469 23.836786,6.86267 9.49577,1.67408 20.68861,1.98037 30.23218,0.82727 23.08455,-2.78913 42.2525,-13.83325 54.97548,-31.67551 1.29757,-1.81967 4.22925,-6.38195 4.22925,-6.58156 0,-0.0529 6.68129,-0.0962 14.8473,-0.0962 l 14.8473,0 -0.17307,0.74913 c -2.99237,12.95269 -12.62751,25.29042 -27.56903,35.30191 -20.82161,13.95139 -50.22735,22.19284 -78.47775,21.99465 -1.93991,-0.0136 -3.95224,-0.0401 -4.47185,-0.0588 z"
     id="path5921"
     inkscape:connector-curvature="0" />
  <path
     style="fill:#000000;fill-opacity:1;stroke:none;stroke-width:1;stroke-linejoin:miter;stroke-miterlimit:4;stroke-dasharray:none;stroke-opacity:1"
     d="M 127.15897,208.02679 C 110.26604,206.83926 95.698716,203.74915 82.544901,198.56301 64.177418,191.32128 49.495256,181.05532 38.12622,167.50489 34.51144,163.19654 32.698512,160.61176 28.340756,153.55323 23.822914,146.2354 20.978401,142.55198 16.893877,138.73047 13.013847,135.10029 9.01692,132.38965 3.7086558,129.78852 l -4.07265205,-1.99566 3.21120005,-1.33103 c 5.0676956,-2.10053 9.4260152,-5.19976 14.6123502,-10.39094 5.656595,-5.66188 7.926559,-9.02021 11.493977,-17.00495 1.490743,-3.33665 3.593574,-7.56493 4.672955,-9.39618 7.373017,-12.50887 17.4229,-22.32465 31.255647,-30.52759 30.185409,-17.90021 75.041247,-22.38335 113.855287,-11.37935 21.57047,6.11536 38.72313,15.6706 51.94229,28.93553 5.08908,5.10671 8.61844,9.55385 12.56989,15.83857 l 2.29183,3.64512 -27.80434,0.0933 -27.80435,0.0933 -4.68638,-3.16435 C 165.70764,80.01133 139.01983,75.45826 113.19198,80.91148 c -22.57549,4.76654 -39.609203,17.591 -45.069351,33.93214 -1.206735,3.61151 -2.199924,9.274 -2.193188,12.50403 0.03463,16.59897 21.639017,34.41235 49.929659,41.16826 8.35588,1.99542 12.03664,2.39176 22.05297,2.3747 6.97317,-0.0118 9.96498,-0.16457 12.74226,-0.65032 22.26787,-3.8947 38.83943,-15.05465 50.89455,-34.27441 l 1.97535,-3.14935 23.41989,-7.5e-4 c 23.24281,-7.6e-4 23.41988,0.005 23.41988,0.73461 0,0.40437 -0.41498,2.65463 -0.92219,5.00058 -4.1504,19.1965 -16.15779,35.6913 -34.98223,48.05586 -18.40876,12.09153 -42.01072,19.52299 -67.61697,21.29031 -4.85181,0.33488 -15.74195,0.40643 -19.68364,0.12933 l 0,1.3e-4 z m 20.23041,-3.78001 c 6.70922,-0.49251 12.80257,-1.28531 18.40688,-2.3949 35.69642,-7.06756 62.63715,-24.52616 74.53865,-48.30383 2.33501,-4.66501 5.01649,-12.17418 5.48358,-15.35601 l 0.25416,-1.73143 -20.26966,0 -20.26966,0 -1.95136,3.00722 c -6.19348,9.54469 -14.57575,17.95824 -23.65656,23.74485 -7.92946,5.05293 -18.85447,9.00725 -29.50269,10.67854 -5.81116,0.91209 -19.92245,0.91121 -25.81533,-0.002 -26.685312,-4.13365 -50.413548,-17.75976 -58.816625,-33.77595 -2.592627,-4.94152 -3.311988,-7.77511 -3.287143,-12.9482 0.07379,-15.36225 7.955324,-28.93637 22.371962,-38.5305 9.210068,-6.1292 20.624686,-10.26888 34.706466,-12.58682 5.5397,-0.91187 23.95379,-0.90412 29.81214,0.0125 14.58053,2.28141 27.09158,6.91445 37.49859,13.88629 l 4.14573,2.77731 24.05075,-0.0937 24.05076,-0.0937 -2.09107,-2.9161 C 226.40597,74.77813 210.80509,63.35792 190.23999,55.35502 160.8326,43.91116 124.68374,42.21723 93.988381,50.84472 75.213632,56.1217 60.183606,64.52056 48.423754,76.30647 c -7.0225,7.03806 -11.567181,13.84482 -16.198842,24.26167 -5.289825,11.8971 -10.655275,18.18041 -22.9855565,26.91768 -0.4009631,0.28412 -0.6470088,0.58381 -0.5467679,0.66598 0.1002408,0.0821 1.9045744,1.27542 4.0096314,2.6517 2.661278,1.73994 5.10945,3.78799 8.035416,6.72216 4.222576,4.2344 6.780799,7.70537 12.150018,16.48505 15.324826,25.05895 41.993734,41.96521 76.045717,48.20776 4.57777,0.83921 12.71109,1.87242 16.94981,2.15319 4.38444,0.29042 16.82988,0.21784 21.5062,-0.12544 z"
     id="path6463"
     inkscape:connector-curvature="0" />
</svg>
