<?xml version="1.0" encoding="UTF-8" standalone="no"?>
<!-- Created with Inkscape (http://www.inkscape.org/) -->

<svg
   xmlns:dc="http://purl.org/dc/elements/1.1/"
   xmlns:cc="http://creativecommons.org/ns#"
   xmlns:rdf="http://www.w3.org/1999/02/22-rdf-syntax-ns#"
   xmlns:svg="http://www.w3.org/2000/svg"
   xmlns="http://www.w3.org/2000/svg"
   xmlns:sodipodi="http://sodipodi.sourceforge.net/DTD/sodipodi-0.dtd"
   xmlns:inkscape="http://www.inkscape.org/namespaces/inkscape"
   id="svg7787"
   version="1.1"
   inkscape:version="0.91 r13725"
   width="250"
   height="250"
   viewBox="0 0 250 250"
   sodipodi:docname="cubs.svg">
  <metadata
     id="metadata7793">
    <rdf:RDF>
      <cc:Work
         rdf:about="">
        <dc:format>image/svg+xml</dc:format>
        <dc:type
           rdf:resource="http://purl.org/dc/dcmitype/StillImage" />
        <dc:title></dc:title>
      </cc:Work>
    </rdf:RDF>
  </metadata>
  <defs
     id="defs7791" />
  <sodipodi:namedview
     pagecolor="#ffffff"
     bordercolor="#666666"
     borderopacity="1"
     objecttolerance="10"
     gridtolerance="10"
     guidetolerance="10"
     inkscape:pageopacity="0"
     inkscape:pageshadow="2"
     inkscape:window-width="1428"
     inkscape:window-height="828"
     id="namedview7789"
     showgrid="false"
     inkscape:zoom="0.93650794"
     inkscape:cx="109.83197"
     inkscape:cy="113.01876"
     inkscape:window-x="2"
     inkscape:window-y="33"
     inkscape:window-maximized="0"
     inkscape:current-layer="svg7787" />
  <path
     style="fill:#000000"
     d="M 119.46597,237.22255 C 106.45509,236.5358 93.86711,233.72496 82.15581,228.89142 53.338529,216.99778 30.585424,193.4528 19.752221,164.31611 c -4.986279,-13.411 -7.247981,-26.71367 -7.011633,-41.24037 0.08785,-5.39856 0.305806,-8.32391 1.001709,-13.44397 C 17.017182,85.536891 28.178188,63.097666 45.522205,45.738175 58.416394,32.832482 73.643751,23.528002 90.942912,17.984441 c 11.976998,-3.838062 25.349718,-5.683235 37.748708,-5.20858 4.16223,0.159331 6.80456,0.366712 10.3953,0.81585 32.73053,4.093995 62.13504,22.588031 80.19603,50.439486 9.98523,15.397981 15.96369,32.798855 17.60212,51.232503 0.54396,6.11994 0.51926,13.64073 -0.0665,20.22654 -2.01557,22.66422 -11.3955,44.87894 -26.31175,62.31472 -3.07036,3.58898 -7.98349,8.59317 -11.2248,11.43283 -14.94966,13.09718 -32.38091,21.81599 -51.59585,25.80732 -4.26733,0.8864 -9.67309,1.63556 -14.47349,2.00578 -2.95473,0.2279 -10.82053,0.32611 -13.74678,0.17166 z m 11.99058,-29.42435 c 11.73866,-0.97814 22.81351,-4.23289 32.76215,-9.62832 23.38699,-12.68345 39.18325,-35.2764 42.93443,-61.4079 0.62742,-4.37076 0.72523,-5.9356 0.7268,-11.62723 0.002,-5.41929 -0.0545,-6.48591 -0.55314,-10.53719 C 204.38742,90.716293 190.80302,68.986384 170.45624,55.618665 154.63053,45.221264 135.8447,40.58345 116.98307,42.417307 101.77966,43.895468 87.397939,49.491155 75.170362,58.685906 70.00576,62.569522 64.908041,67.464758 60.764421,72.51964 c -9.947634,12.135285 -16.27571,26.920227 -18.139248,42.38071 -0.465927,3.86549 -0.551362,5.44514 -0.550211,10.17384 0.0015,6.44714 0.42076,10.81705 1.585893,16.53246 4.174284,20.47656 15.81374,38.47584 32.869128,50.82892 12.223103,8.85311 27.264237,14.31828 42.269837,15.35865 1.03252,0.0716 2.14984,0.15009 2.48291,0.17444 1.15888,0.0847 8.60969,-0.0401 10.17382,-0.17046 z m -9.50769,-10.01657 c -1.64069,-0.0645 -5.3565,-0.40472 -7.14589,-0.65409 C 89.595328,193.61462 67.8858,176.90976 57.916451,153.35502 51.459111,138.09814 50.432241,120.8662 55.027749,104.87915 62.178705,80.002064 82.142134,60.695698 107.2316,54.393503 c 5.91231,-1.485113 11.48999,-2.155192 17.86631,-2.146388 4.0007,0.0059 6.66407,0.189027 10.29494,0.709301 18.34855,2.629235 34.80448,12.128028 46.67329,26.94111 0.77393,0.965913 1.40295,1.783453 1.39783,1.816759 -0.009,0.05556 -13.85267,13.541273 -19.0452,18.552105 l -2.21836,2.14075 -0.97966,-1.47461 c -1.6486,-2.481553 -3.13559,-4.281062 -5.47829,-6.629802 -3.80334,-3.813126 -6.99206,-6.107129 -11.68975,-8.409704 -9.04376,-4.432806 -19.34098,-5.558978 -29.24946,-3.198888 -10.2673,2.445554 -19.499907,8.749299 -25.617,17.490494 -3.667672,5.24104 -6.171864,11.32507 -7.261184,17.64131 -0.496931,2.88142 -0.605026,4.2364 -0.597564,7.49047 0.0092,4.00869 0.370737,6.91004 1.320623,10.59776 4.343617,16.86288 18.413215,29.56005 35.625515,32.15035 16.49654,2.48262 32.75775,-4.56663 42.40047,-18.38058 l 0.78711,-1.12759 0.92456,0.89092 c 0.50851,0.49002 5.35289,5.04676 10.76531,10.12606 5.41242,5.07932 9.83996,9.30077 9.83898,9.38101 -0.002,0.0803 -0.59849,0.87441 -1.3278,1.7648 -14.86843,18.15283 -36.54059,27.97478 -59.71341,27.06249 z m 58.74175,-43.63936 0,-3.02791 -1.15061,0 -1.1506,0 0,-0.6056 0,-0.60558 2.96737,0 2.96737,0 0,0.60087 0,0.60086 -1.05979,0.0351 -1.05977,0.0351 -0.0324,2.99764 -0.0324,2.99765 -0.72459,0 -0.72459,0 0,-3.02793 z m 5.20805,-0.60558 0,-3.63351 1.31015,0 1.31019,0 0.69711,1.96815 c 0.3834,1.08249 0.76836,2.13167 0.85543,2.33149 0.1897,0.4354 0.0847,0.64259 1.10544,-2.18009 l 0.74464,-2.059 1.34873,-0.0343 1.34873,-0.0342 0,3.63747 0,3.6375 -0.72671,0 -0.72669,0 0,-2.87048 c 0,-1.80356 -0.0425,-2.82771 -0.11451,-2.75541 -0.0629,0.0633 -0.54675,1.34138 -1.07505,2.84019 l -0.96053,2.72513 -0.77731,0.0353 -0.77733,0.0353 -1.02418,-2.88148 -1.02414,-2.8815 -0.0325,2.87654 -0.0325,2.87653 -0.72451,0 -0.72451,0 0,-3.63353 z m -14.38767,-9.2606 c -2.8491,-0.64822 -4.3939,-2.74448 -4.86558,-6.60256 -0.14139,-1.15651 -0.16279,-3.44153 -0.0461,-4.9387 l 0.0778,-0.9992 6.37307,0 6.3731,0 0.007,1.13583 c 0.009,1.42414 0.35089,2.24738 1.15018,2.76494 1.40078,0.90706 3.81825,0.68463 4.64175,-0.42709 0.22689,-0.3063 0.25692,-0.53904 0.29139,-2.25798 0.024,-1.19392 -0.0143,-2.11272 -0.1017,-2.4369 -0.17456,-0.64825 -0.76746,-1.25578 -1.39583,-1.43021 -0.31527,-0.0876 -2.37268,-0.13316 -6.02501,-0.13362 -4.54326,0 -5.71501,-0.0349 -6.47974,-0.18961 -2.43803,-0.49349 -3.96299,-1.84708 -4.58075,-4.06602 -0.41374,-1.48605 -0.48032,-9.33463 -0.1018,-11.99484 0.56965,-4.00308 2.616,-6.12709 6.46151,-6.70678 1.44541,-0.21789 15.77803,-0.25661 17.65165,-0.0478 3.91461,0.43651 5.90385,1.80342 6.87647,4.72518 0.35246,1.05883 0.63201,3.13302 0.72106,5.34985 l 0.062,1.54426 -6.87845,0 -6.87847,0 -0.0684,-1.14524 c -0.0447,-0.7487 -0.13867,-1.26433 -0.27152,-1.4892 -0.65637,-1.11117 -2.76865,-1.44271 -4.36513,-0.68515 -0.75416,0.35788 -0.84143,0.61368 -0.84143,2.46643 0,1.50922 0.0243,1.68834 0.30278,2.23969 0.58479,1.15739 0.17204,1.08702 6.82148,1.16333 5.0067,0.0574 5.93845,0.0964 6.56196,0.27434 2.78485,0.79462 4.64621,2.70889 5.20665,5.35467 0.26435,1.2479 0.2626,10.94868 -0.002,12.48599 -0.60135,3.49061 -2.9494,5.36183 -7.33094,5.8422 -0.62899,0.069 -3.95051,0.15605 -7.38115,0.19356 -3.43064,0.0376 -7.35483,0.0942 -8.72042,0.12604 -1.89084,0.0441 -2.6646,0.0166 -3.2449,-0.11549 z m -72.029325,-0.24701 c -1.63563,-0.36539 -2.595765,-0.89179 -3.569224,-1.95691 -1.11032,-1.2149 -1.914981,-3.29452 -2.312357,-5.97633 -0.11391,-0.76872 -0.164563,-4.73399 -0.199941,-15.65438 l -0.04742,-14.6249 6.546584,0 6.546583,0 0,13.36822 c 0,14.62704 -0.0299,14.00077 0.70111,14.7706 1.20784,1.27224 3.45778,1.13629 4.44524,-0.26864 l 0.36446,-0.51852 0.0318,-13.67583 0.0318,-13.67583 6.5436,0 6.54357,0 -0.0457,15.35159 c -0.0395,13.3226 -0.0707,15.48249 -0.23584,16.34194 -0.83883,4.36642 -2.56038,6.06177 -6.68002,6.57834 -1.55552,0.19504 -17.75619,0.14352 -18.664383,-0.0593 z m 30.460925,-19.01546 0,-19.19706 11.18227,0 c 11.51572,0 12.97273,0.0488 14.70779,0.49256 2.56563,0.65616 4.24789,2.21084 5.04151,4.65913 0.76734,2.3673 0.8949,7.55983 0.24736,10.06884 -0.41963,1.62587 -1.54797,3.26725 -2.65638,3.86416 -0.23287,0.12541 -0.42339,0.26385 -0.42339,0.30766 0,0.0438 0.14516,0.17479 0.32261,0.29103 1.74914,1.14608 2.75861,3.03372 3.07422,5.74863 0.16831,1.44764 0.0955,5.35277 -0.1209,6.48234 -0.78126,4.07875 -2.8213,5.84939 -7.31683,6.35068 -0.73798,0.0824 -5.30833,0.12908 -12.60793,0.12908 l -11.45033,0 0,-19.19705 z m 18.04643,10.39702 c 0.86027,-0.39236 0.98733,-0.60857 1.10462,-1.87943 0.11049,-1.19755 0.0297,-1.71311 -0.37064,-2.36432 -0.47537,-0.77325 -0.66604,-0.82412 -3.09004,-0.82412 l -2.18583,0 -0.0326,2.70888 -0.0326,2.7089 2.03107,-0.0507 c 1.72011,-0.0429 2.11449,-0.0886 2.57609,-0.29926 z m -0.55824,-15.48329 c 1.60912,-0.3409 1.83013,-0.66223 1.82953,-2.66016 0,-1.59738 -0.0877,-1.88624 -0.65836,-2.18136 -0.4473,-0.23132 -2.14507,-0.42545 -3.7317,-0.42671 l -1.24144,-0.002 0,2.72512 0,2.72515 1.48368,-0.002 c 0.8302,-0.002 1.85128,-0.08 2.31829,-0.17891 z"
     id="path7797"
     inkscape:connector-curvature="0" />
  <path
     style="fill:#dbae51;fill-opacity:1;stroke:none;stroke-width:1;stroke-linejoin:miter;stroke-miterlimit:4;stroke-dasharray:none;stroke-opacity:1"
     d="m 114.16075,196.74035 c -35.00301,-5.44528 -61.516428,-36.34711 -61.516428,-71.69843 0,-41.118951 34.954249,-74.395715 75.862308,-72.221611 18.86291,1.00249 34.91818,8.342403 48.55645,22.198319 l 6.27386,6.373985 -10.36445,9.953441 -10.36445,9.953446 -6.48005,-6.465599 c -7.31537,-7.29903 -11.70494,-9.93492 -20.13541,-12.09107 -10.80654,-2.763847 -20.57235,-1.68876 -30.89238,3.400848 -9.656122,4.762178 -17.292295,13.215479 -21.239558,23.512351 -2.417456,6.3062 -3.292204,18.32094 -1.826828,25.09168 3.34032,15.43385 17.019792,29.25764 32.582316,32.92605 15.15504,3.57235 30.19189,-0.91608 41.53917,-12.39925 l 5.75232,-5.82122 10.419,9.90226 10.419,9.90225 -5.97819,6.08781 c -9.72822,9.90659 -21.59948,16.79213 -34.37286,19.93685 -7.29664,1.7964 -21.38241,2.52373 -28.23382,1.45789 z"
     id="path7799"
     inkscape:connector-curvature="0" />
  <path
     style="fill:#dbae51;fill-opacity:1;stroke:none;stroke-width:1;stroke-linejoin:miter;stroke-miterlimit:4;stroke-dasharray:none;stroke-opacity:1"
     d="m 98.155554,143.15412 c -3.307582,-1.33201 -3.875712,-4.01498 -4.44768,-21.00401 l -0.538143,-15.98435 6.514857,0 6.514862,0 0.20542,14.15712 0.20542,14.15712 2.64266,0 2.64266,0 0.20542,-14.15712 0.20543,-14.15712 6.35526,0 6.35527,0 -0.41912,16.42226 c -0.44984,17.62622 -0.79347,19.20504 -4.48539,20.60871 -2.36328,0.89852 -19.70353,0.86487 -21.956926,-0.0426 z"
     id="path7801"
     inkscape:connector-curvature="0" />
  <path
     style="fill:#dbae51;fill-opacity:1;stroke:none;stroke-width:1;stroke-linejoin:miter;stroke-miterlimit:4;stroke-dasharray:none;stroke-opacity:1"
     d="m 130.39425,125.09059 0,-18.92483 12.2695,0.0111 c 13.71537,0.0125 15.27924,0.41938 17.40787,4.52965 1.79186,3.45998 1.39447,9.76752 -0.80259,12.73921 l -1.57647,2.13229 1.63698,1.63698 c 1.36441,1.36441 1.63757,2.51096 1.64053,6.88578 0.003,4.72996 -0.20321,5.45594 -2.08805,7.34428 l -2.0916,2.09547 -13.19809,0.23743 -13.19808,0.23743 0,-18.92482 z m 17.21778,10.79054 c 1.41697,-0.37952 1.69685,-0.90238 1.51009,-2.82111 -0.20709,-2.12769 -0.50281,-2.3779 -3.06067,-2.58959 l -2.83142,-0.23434 0,3.06576 c 0,3.25384 0.58277,3.59686 4.382,2.57928 z m 0.46405,-15.82779 c 0.76435,-0.29331 1.19432,-1.38061 1.19432,-3.02019 0,-2.48549 -0.09,-2.56188 -3.02018,-2.56188 -3.02019,0 -3.02019,0 -3.02019,3.02019 0,2.69092 0.19905,3.02018 1.82586,3.02018 1.00423,0 2.36331,-0.20624 3.02019,-0.4583 z"
     id="path7803"
     inkscape:connector-curvature="0" />
  <path
     style="fill:#dbae51;fill-opacity:1;stroke:none;stroke-width:1;stroke-linejoin:miter;stroke-miterlimit:4;stroke-dasharray:none;stroke-opacity:1"
     d="m 169.03566,142.17315 c -1.21152,-1.28959 -1.86629,-3.12547 -2.17235,-6.09091 l -0.43811,-4.2449 6.07214,0 6.07214,0 0.80688,2.31461 c 0.70835,2.03199 1.10922,2.28553 3.28281,2.07638 2.39577,-0.23053 2.47593,-0.34824 2.47593,-3.63595 l 0,-3.39771 -7.34293,-0.37972 c -10.0331,-0.51883 -10.79111,-1.25857 -10.74446,-10.48557 0.0376,-7.43526 1.14682,-10.13423 4.7248,-11.49637 1.15334,-0.43907 6.37006,-0.6701 12.02625,-0.53258 9.50374,0.23105 10.07917,0.33462 11.83683,2.13047 1.17229,1.19776 2.03693,3.19834 2.36587,5.47409 l 0.51841,3.58647 -6.52231,0 c -6.30542,0 -6.54679,-0.0644 -7.25819,-1.93549 -0.61342,-1.61342 -1.1443,-1.89612 -3.19026,-1.69886 -2.73921,0.2641 -3.58589,2.32479 -2.0977,5.10549 0.7301,1.36421 1.55106,1.54904 6.88032,1.54904 7.01295,0 10.19357,1.25226 11.06193,4.35525 0.31747,1.13445 0.56502,4.87023 0.55011,8.30173 -0.0251,5.77253 -0.18149,6.39361 -2.09145,8.30551 -2.04394,2.046 -2.17806,2.06879 -13.57338,2.30572 -11.37373,0.23649 -11.52944,0.2176 -13.24328,-1.6067 z"
     id="path7805"
     inkscape:connector-curvature="0" />
</svg>
