<?xml version="1.0" encoding="UTF-8" standalone="no"?>
<!-- Created with Inkscape (http://www.inkscape.org/) -->

<svg
   xmlns:dc="http://purl.org/dc/elements/1.1/"
   xmlns:cc="http://creativecommons.org/ns#"
   xmlns:rdf="http://www.w3.org/1999/02/22-rdf-syntax-ns#"
   xmlns:svg="http://www.w3.org/2000/svg"
   xmlns="http://www.w3.org/2000/svg"
   xmlns:sodipodi="http://sodipodi.sourceforge.net/DTD/sodipodi-0.dtd"
   xmlns:inkscape="http://www.inkscape.org/namespaces/inkscape"
   id="svg6377"
   version="1.1"
   inkscape:version="0.91 r13725"
   width="250"
   height="250"
   viewBox="0 0 250 250"
   sodipodi:docname="dinner.svg">
  <metadata
     id="metadata6383">
    <rdf:RDF>
      <cc:Work
         rdf:about="">
        <dc:format>image/svg+xml</dc:format>
        <dc:type
           rdf:resource="http://purl.org/dc/dcmitype/StillImage" />
        <dc:title></dc:title>
      </cc:Work>
    </rdf:RDF>
  </metadata>
  <defs
     id="defs6381" />
  <sodipodi:namedview
     pagecolor="#ffffff"
     bordercolor="#666666"
     borderopacity="1"
     objecttolerance="10"
     gridtolerance="10"
     guidetolerance="10"
     inkscape:pageopacity="0"
     inkscape:pageshadow="2"
     inkscape:window-width="1444"
     inkscape:window-height="851"
     id="namedview6379"
     showgrid="false"
     inkscape:zoom="2.6074563"
     inkscape:cx="136.91509"
     inkscape:cy="154.19638"
     inkscape:window-x="0"
     inkscape:window-y="0"
     inkscape:window-maximized="0"
     inkscape:current-layer="svg6377" />
  <path
     style="fill:#000000;stroke:#ffcc4d;stroke-width:1.88765776;stroke-miterlimit:4;stroke-dasharray:none;stroke-opacity:1"
     d="M 16.711462,215.37867 C 10.247208,213.25016 6.4541685,208.44004 6.1447093,201.9785 6.0563224,200.13291 7.237775,178.74689 8.7701615,154.45402 10.302553,130.16116 11.56065,109.56616 11.56594,108.68736 c 0.0096,-1.57546 -0.03225,-1.60164 -2.9807182,-1.86899 -3.3165246,-0.30074 -6.9623379,-1.91065 -7.77791043,-3.43456 -0.34541478,-0.64542 -0.530765,-10.150516 -0.530765,-27.218667 l 0,-26.226906 2.82475103,0 2.82475,0 0,17.205301 0,17.205303 2.8247527,0 2.8247499,0 0,-17.205303 0,-17.205301 2.824751,0 2.824751,0 0,17.205301 0,17.205303 3.081547,0 3.081546,0 0,-17.232143 0,-17.232141 2.696352,0.15524 2.696354,0.155236 0.135321,17.0769 0.135322,17.076908 2.817827,0 2.817827,0 0,-17.205303 0,-17.205301 2.824751,0 2.824751,0 0,26.226906 c 0,17.068151 -0.185349,26.573247 -0.53076,27.218667 -0.815577,1.52391 -4.461385,3.13383 -7.777917,3.43456 l -2.990327,0.27114 0,1.82026 c 0,1.00113 1.169345,20.32499 2.59854,42.94193 1.429196,22.61691 2.642555,43.77947 2.696353,47.02794 0.09162,5.53202 0.0067,6.09196 -1.3408,8.83589 -2.351432,4.78841 -6.596807,7.61068 -11.89965,7.91072 -1.703155,0.0964 -3.67444,-0.0149 -4.380627,-0.24758 z m 213.739658,-0.28133 c -2.83287,-1.01106 -4.34616,-2.14241 -5.7959,-4.33312 -1.97699,-2.98742 -2.15762,-5.46796 -1.17694,-16.16185 2.03578,-22.19959 4.54195,-52.77235 4.65939,-56.84005 0.11351,-3.93089 -0.0243,-4.67179 -1.38418,-7.44143 -0.83062,-1.69176 -2.59037,-4.11848 -3.91052,-5.39271 -3.00873,-2.90408 -3.96395,-4.76455 -4.83352,-9.41415 -3.91786,-20.948916 2.11208,-50.069561 14.16351,-68.400541 3.15583,-4.80023 8.44205,-10.230219 10.44996,-10.734172 3.04406,-0.764009 2.84633,-6.685107 2.84321,85.139363 -0.002,59.4356 -0.1686,84.90028 -0.56488,86.34881 -0.72745,2.65912 -4.61072,6.47589 -7.45606,7.32838 -2.66246,0.79768 -4.55781,0.77099 -6.99407,-0.0985 z M 120.04803,209.64752 C 109.20804,208.41278 99.699105,205.62349 90.259731,200.90967 55.055526,183.32936 36.295937,143.72223 45.025262,105.40608 54.834723,62.348825 95.851842,33.690152 139.48148,39.409498 c 27.47295,3.601388 50.72599,19.460376 64.16977,43.764933 9.75332,17.632699 12.89031,38.497399 8.80919,58.591549 -6.01451,29.61363 -28.3808,54.52403 -57.52839,64.07207 -10.23709,3.35342 -24.8644,4.95077 -34.88402,3.80947 z m 20.54974,-12.07734 c 17.81471,-2.72245 35.06281,-12.87028 46.22257,-27.19483 7.76609,-9.96848 12.45992,-20.29013 14.95622,-32.88846 1.37643,-6.94655 1.24348,-20.31566 -0.27305,-27.45849 C 198.2304,94.612095 191.9524,82.996212 180.94371,71.987514 169.93382,60.977624 158.31015,54.695916 142.90283,51.429327 135.90385,49.945431 123.01982,49.801008 115.79078,51.125415 74.341484,58.719211 47.427695,98.427806 55.851446,139.55988 c 4.623453,22.5757 20.161224,42.1442 41.341857,52.06655 13.623447,6.38209 27.817347,8.32577 43.404467,5.94375 z m -23.8384,-5.68143 C 96.002224,188.41025 76.785138,174.03356 67.174189,154.79306 64.459634,149.3587 61.910053,141.34767 60.934211,135.18644 59.194062,124.1996 60.57955,110.0254 64.347164,100.27016 72.591126,78.924657 90.939642,62.767176 112.74384,57.65266 c 19.60146,-4.597845 40.708,-0.284067 56.63346,11.574816 4.27577,3.183946 10.67928,9.569278 13.93823,13.898656 20.2616,26.916738 17.93065,64.526888 -5.50023,88.747128 -10.26393,10.60972 -23.82794,17.75033 -38.12113,20.06847 -5.86362,0.95099 -17.09878,0.92503 -22.9348,-0.053 z"
     id="path6387"
     inkscape:connector-curvature="0"
     sodipodi:nodetypes="csscssscccccccccccccccccccccccccccscscsssssccsssssssssssccsssssssssssssssssscsssssssscc" />
  <path
     style="fill:#ffcc4d;fill-opacity:1;stroke:#ffcc4d;stroke-width:3.38551259;stroke-miterlimit:4;stroke-dasharray:none;stroke-opacity:1"
     d="M 117.1046,209.10634 C 88.104858,204.55254 64.544132,187.46495 51.956367,161.85712 35.825747,129.04192 42.290799,89.949631 68.121254,64.112759 84.408092,47.821876 105.60685,38.999216 128.46313,38.999216 c 42.77601,0 78.38419,30.893202 84.67073,73.459244 1.36361,9.23304 0.74948,22.45295 -1.48376,31.93879 -4.37178,18.56958 -16.22211,36.40821 -32.036,48.2247 -11.50962,8.60024 -22.88981,13.46823 -37.17137,15.90044 -6.89553,1.17435 -19.69927,1.46942 -25.33813,0.58395 z m 24.07327,-11.42824 c 15.33768,-2.63871 29.27252,-9.97617 40.44312,-21.29551 5.90406,-5.9827 9.63487,-11.20833 13.41067,-18.78397 4.96271,-9.95702 7.15535,-17.92923 7.60646,-27.65646 0.6485,-13.98297 -0.94599,-23.88715 -5.62783,-34.957398 -7.87854,-18.628888 -25.73147,-35.050364 -44.81155,-41.218543 -9.24966,-2.990216 -12.37896,-3.441252 -23.80909,-3.431695 -8.92508,0.0074 -10.75445,0.126641 -14.43402,0.940325 -19.968421,4.415734 -36.929469,15.967149 -47.630011,32.438685 -15.32621,23.591906 -16.214515,53.990566 -2.270078,77.684176 12.21794,20.76006 32.518077,34.07486 56.455869,37.02927 3.14538,0.38819 16.96869,-0.11271 20.66646,-0.74888 z"
     id="path6389"
     inkscape:connector-curvature="0" />
</svg>
