<?xml version="1.0" encoding="UTF-8" standalone="no"?>
<!-- Created with Inkscape (http://www.inkscape.org/) -->

<svg
   xmlns:dc="http://purl.org/dc/elements/1.1/"
   xmlns:cc="http://creativecommons.org/ns#"
   xmlns:rdf="http://www.w3.org/1999/02/22-rdf-syntax-ns#"
   xmlns:svg="http://www.w3.org/2000/svg"
   xmlns="http://www.w3.org/2000/svg"
   xmlns:sodipodi="http://sodipodi.sourceforge.net/DTD/sodipodi-0.dtd"
   xmlns:inkscape="http://www.inkscape.org/namespaces/inkscape"
   id="svg6377"
   version="1.1"
   inkscape:version="0.91 r13725"
   width="250"
   height="250"
   viewBox="0 0 250 250"
   sodipodi:docname="dinner.svg">
  <metadata
     id="metadata6383">
    <rdf:RDF>
      <cc:Work
         rdf:about="">
        <dc:format>image/svg+xml</dc:format>
        <dc:type
           rdf:resource="http://purl.org/dc/dcmitype/StillImage" />
        <dc:title />
      </cc:Work>
    </rdf:RDF>
  </metadata>
  <defs
     id="defs6381" />
  <sodipodi:namedview
     pagecolor="#ffffff"
     bordercolor="#666666"
     borderopacity="1"
     objecttolerance="10"
     gridtolerance="10"
     guidetolerance="10"
     inkscape:pageopacity="0"
     inkscape:pageshadow="2"
     inkscape:window-width="1440"
     inkscape:window-height="851"
     id="namedview6379"
     showgrid="false"
     inkscape:zoom="1.3037282"
     inkscape:cx="92.846813"
     inkscape:cy="145.36153"
     inkscape:window-x="0"
     inkscape:window-y="0"
     inkscape:window-maximized="0"
     inkscape:current-layer="svg6377" />
  <path
     style="fill:#dbae51;fill-opacity:1;stroke:#dbae51;stroke-width:1.94365668;stroke-linejoin:miter;stroke-miterlimit:4;stroke-dasharray:none;stroke-opacity:1"
     d=""
     id="path8169"
     inkscape:connector-curvature="0" />
  <g
     id="g8175"
     transform="translate(7.1791107,-4.531109)">
    <path
       sodipodi:nodetypes="csscssscccccccccccccccccccccccccccscscsssssccsssssssssssccsssssssssssssssssscsssssssscc"
       inkscape:connector-curvature="0"
       id="path6387"
       d="M 15.985013,215.46248 C 9.78027,213.41942 6.1395043,208.8024 5.8424686,202.60027 5.75763,200.82877 6.8916525,180.3013 8.3625204,156.98368 c 1.4708727,-23.3176 2.6784626,-43.08581 2.6835406,-43.92933 0.0092,-1.51221 -0.03096,-1.53734 -2.8610558,-1.79395 C 5.0016245,110.97173 1.5021746,109.42645 0.71934368,107.96372 0.38779579,107.34421 0.20988656,98.220701 0.20988656,81.837762 l 0,-25.174012 2.71134974,0 2.7113487,0 0,16.514584 0,16.514586 2.7113513,0 2.7113487,0 0,-16.514586 0,-16.514584 2.71135,0 2.711349,0 0,16.514584 0,16.514586 2.957837,0 2.957835,0 0,-16.540348 0,-16.540347 2.588106,0.149008 2.588107,0.149004 0.129888,16.391338 0.12989,16.391345 2.704703,0 2.704704,0 0,-16.514586 0,-16.514584 2.71135,0 2.711349,0 0,25.174012 c 0,16.382939 -0.177908,25.506448 -0.509452,26.125958 -0.782835,1.46273 -4.28228,3.00802 -7.465668,3.29668 l -2.870278,0.26025 0,1.74719 c 0,0.96093 1.122401,19.50903 2.49422,41.218 1.37182,21.70894 2.536468,42.02191 2.588106,45.13997 0.08794,5.30994 0.0064,5.8474 -1.286973,8.48117 -2.257032,4.59618 -6.331974,7.30514 -11.421931,7.59314 -1.634781,0.0925 -3.526928,-0.0143 -4.204764,-0.23764 z m 205.158947,-0.27004 c -2.71914,-0.97047 -4.17168,-2.0564 -5.56322,-4.15916 -1.89762,-2.86749 -2.071,-5.24845 -1.12969,-15.51302 1.95406,-21.30838 4.35961,-50.65378 4.47234,-54.55818 0.10895,-3.77308 -0.0233,-4.48424 -1.32861,-7.14269 -0.79728,-1.62384 -2.48638,-3.95314 -3.75353,-5.17621 -2.88795,-2.7875 -3.80482,-4.57328 -4.63948,-9.03622 -3.76057,-20.107905 2.02729,-48.059485 13.59491,-65.654556 3.02914,-4.607522 8.10314,-9.819521 10.03044,-10.303243 2.92185,-0.733337 2.73206,-6.416729 2.72907,81.721389 -0.002,57.04953 -0.16183,81.49191 -0.54221,82.88229 -0.69824,2.55237 -4.42562,6.21591 -7.15673,7.03418 -2.55557,0.76565 -4.37483,0.74003 -6.71329,-0.0946 z M 115.17307,209.96141 C 104.76826,208.77624 95.641067,206.09893 86.580642,201.57434 52.789731,184.69981 34.783257,146.68273 43.162138,109.9048 52.577792,68.576108 91.948255,41.067955 133.82635,46.557694 c 26.37004,3.456808 48.68957,18.679128 61.59364,42.007964 9.36177,16.924822 12.37282,36.951902 8.45554,56.239352 -5.77305,28.42478 -27.24144,52.33513 -55.21888,61.49986 -9.82611,3.2188 -23.8662,4.75202 -33.48358,3.65654 z m 19.72476,-11.59249 c 17.09953,-2.61316 33.65519,-12.35359 44.36694,-26.10308 7.45431,-9.56829 11.95971,-19.47557 14.35579,-31.56813 1.32117,-6.66768 1.19356,-19.50008 -0.26209,-26.35615 C 190.21676,99.54415 184.1908,88.394593 173.62406,77.827846 163.05617,67.259955 151.89914,61.23043 137.11035,58.09498 c -6.718,-1.424324 -19.08479,-1.562949 -26.02362,-0.291712 -39.785287,7.288939 -65.618606,45.403412 -57.533031,84.884212 4.437841,21.66938 19.351839,40.45229 39.682163,49.97631 13.076528,6.12587 26.700598,7.99152 41.661968,5.70513 z m -22.88139,-5.45335 c -19.923841,-3.33885 -38.369445,-17.13838 -47.594557,-35.60646 -2.605577,-5.21619 -5.052804,-12.90561 -5.98947,-18.8195 -1.67029,-10.54576 -0.340423,-24.15093 3.275938,-33.51454 7.913003,-20.488577 25.524907,-35.997406 46.453759,-40.906597 18.81455,-4.413261 39.07376,-0.272663 54.35988,11.110138 4.10412,3.056125 10.25055,9.185114 13.37867,13.340687 19.44819,25.836152 17.21081,61.936412 -5.27942,85.184322 -9.85188,10.18379 -22.87135,17.03773 -36.59073,19.26281 -5.62823,0.91281 -16.41234,0.88789 -22.01407,-0.0509 z"
       style="fill:#000000;stroke:#ffcc4d;stroke-width:1.81187665;stroke-miterlimit:4;stroke-dasharray:none;stroke-opacity:1" />
    <path
       inkscape:connector-curvature="0"
       id="path6389"
       d="M 112.34781,209.44195 C 84.512278,205.07097 61.897411,188.66937 49.81499,164.08958 34.331943,132.59177 40.537452,95.068863 65.330928,70.269228 80.963921,54.632352 101.31164,46.163883 123.25034,46.163883 c 41.05874,0 75.23741,29.652976 81.27158,70.510177 1.30886,8.86238 0.71939,21.55156 -1.4242,30.65659 -4.19627,17.82409 -15.57086,34.94658 -30.74989,46.28869 -11.04756,8.25498 -21.97089,12.92754 -35.67911,15.26211 -6.6187,1.1272 -18.90843,1.41043 -24.32091,0.5605 z m 23.10683,-10.96944 c 14.72194,-2.53278 28.09736,-9.57567 38.81951,-20.44059 5.66704,-5.74252 9.24807,-10.75837 12.87229,-18.02988 4.76348,-9.55729 6.86809,-17.20945 7.30109,-26.54617 0.62247,-13.42162 -0.90801,-22.92819 -5.40189,-33.554014 -7.56226,-17.88102 -24.69847,-33.643246 -43.01257,-39.5638 -8.87832,-2.870172 -11.882,-3.303101 -22.85326,-3.293928 -8.56677,0.0071 -10.3227,0.121557 -13.85455,0.902575 C 90.158478,62.185165 73.878342,73.272842 63.60738,89.083118 48.896449,111.72791 48.043806,140.9062 61.428435,163.64862 c 11.727444,19.92663 31.21262,32.7069 54.189415,35.5427 3.01911,0.37261 16.28747,-0.10818 19.83679,-0.71881 z"
       style="fill:#ffcc4d;fill-opacity:1;stroke:#ffcc4d;stroke-width:3.24959922;stroke-miterlimit:4;stroke-dasharray:none;stroke-opacity:1" />
    <path
       inkscape:connector-curvature="0"
       id="path8165"
       d="M 15.589545,216.05556 C 9.4880722,214.12086 5.6120047,209.25971 5.213962,203.04307 5.020695,200.02462 5.5676776,189.78332 8.2270037,146.6291 9.1315635,131.95036 9.9157813,118.20417 9.9697088,116.08201 l 0.09805,-3.85845 -2.3927747,-0.29083 c -2.7585198,-0.33529 -6.76232037,-2.12651 -7.4535877,-3.33459 -0.35438473,-0.61932 -0.48499213,-6.78513 -0.56485305,-26.665967 l -0.1038806,-25.860365 3.50898205,0 3.5089821,0 0,16.381299 0,16.381299 1.8405953,0 1.8405966,0 0,-16.381299 0,-16.381299 3.49713,0 3.497132,0 0,16.381299 0,16.381299 2.208714,0 2.208714,0 0,-16.611373 0,-16.611373 1.150372,0.230074 c 0.632706,0.126541 2.123588,0.230074 3.313072,0.230074 l 2.1627,0 6.62e-4,5.061638 c 3.56e-4,2.7839 0.109915,10.155485 0.243464,16.381298 l 0.242801,11.319662 1.781191,0 1.781192,0 0,-16.381299 0,-16.381299 3.513372,0 3.513376,0 -0.108274,25.922977 -0.108272,25.922975 -0.920297,0.9847 c -1.628606,1.74255 -5.243464,3.10994 -8.245702,3.11908 l -1.435498,0.005 0.251092,4.87758 c 0.138101,2.68267 0.82105,14.07135 1.517663,25.30818 2.61114,42.11941 3.179204,52.23935 3.2442,57.7947 l 0.06676,5.70584 -1.173537,2.39277 c -1.286563,2.62323 -3.535123,5.11875 -5.820725,6.46001 -3.087245,1.81169 -7.957712,2.46907 -11.043572,1.49057 z m 8.839876,-2.09416 c 2.558779,-0.95737 5.120985,-3.44856 6.611752,-6.4285 1.077149,-2.15315 1.093817,-2.27575 1.023359,-7.52654 -0.06914,-5.15208 -0.838187,-18.68209 -3.584806,-63.06777 -0.711936,-11.50497 -1.294431,-22.05788 -1.294431,-23.45091 l 0,-2.53277 1.380448,-0.20175 c 3.747956,-0.54778 5.572501,-1.00688 7.086292,-1.78308 1.623467,-0.83245 1.661251,-0.8931 1.892672,-3.03813 0.129873,-1.20379 0.254113,-12.583484 0.27609,-25.288194 l 0.03995,-23.099472 -2.024655,0 -2.024655,0 0,16.3813 0,16.381298 -3.254278,0 -3.254277,0 -0.242007,-8.558768 C 26.927773,77.040791 26.818489,69.669206 26.818023,65.366815 l -8.46e-4,-7.822531 -1.840596,0 -1.840595,0 0,16.3813 0,16.381298 -3.681191,0 -3.68119,0 0,-16.381298 0,-16.3813 -2.024656,0 -2.024654,0 0,16.3813 0,16.381298 -3.4971315,0 -3.4971312,0 0,-16.381298 0,-16.3813 -1.8405954,0 -1.8405954,0 0.021215,23.835711 c 0.011668,13.10964 0.1359082,24.498325 0.2760893,25.308185 0.2304565,1.3314 0.4488466,1.56931 2.2795295,2.48317 1.2064911,0.60226 2.9655128,1.10808 4.3529333,1.2517 1.3224145,0.13689 2.6627884,0.51189 3.1025704,0.868 l 0.774292,0.62699 -0.805616,13.39824 c -0.443089,7.36905 -1.3775971,22.67486 -2.0766858,34.01292 -2.7384584,44.41328 -2.7467823,44.76085 -1.1552858,48.23713 2.9005476,6.33563 9.7365416,8.96734 16.6115376,6.39507 z"
       style="fill:#dbae51;fill-opacity:1;stroke:#dbae51;stroke-width:1.86562741;stroke-linejoin:miter;stroke-miterlimit:4;stroke-dasharray:none;stroke-opacity:1" />
    <path
       inkscape:connector-curvature="0"
       id="path8167"
       d="m 113.04267,211.03805 c -7.01876,-0.88599 -16.74954,-3.71854 -23.940449,-6.96888 -21.546032,-9.73894 -37.717246,-27.83762 -45.13767,-50.51766 -4.652192,-14.21912 -5.219683,-31.2849 -1.524842,-45.85555 6.965816,-27.46981 27.750736,-49.82726 54.617618,-58.749839 38.087763,-12.649074 79.973953,3.702445 99.243833,38.74278 6.93711,12.614469 10.26006,25.447479 10.25753,39.613949 -0.002,10.99114 -1.05615,18.14148 -3.97395,26.95487 -6.87039,20.75236 -22.80512,38.93138 -42.69252,48.70547 -7.83511,3.85072 -15.31918,6.18813 -24.11179,7.53052 -4.57253,0.6981 -18.81801,1.03913 -22.73776,0.54434 z m 17.23474,-13.60009 c 15.68413,-1.14813 31.07089,-8.52594 43.01038,-20.6231 5.80808,-5.88477 9.22106,-10.80903 13.13982,-18.95813 4.29864,-8.93906 6.09094,-16.0108 6.57755,-25.95239 0.72722,-14.85773 -2.67659,-28.54884 -9.99096,-40.186425 -8.85293,-14.085529 -22.71394,-25.075004 -37.95407,-30.09127 -8.09271,-2.663703 -9.13358,-2.794646 -22.16388,-2.78827 l -11.59575,0.0057 -4.41742,1.206593 C 85.852477,65.795051 69.827623,78.770689 60.65156,97.485231 50.112037,118.98055 51.257777,144.3878 63.669029,164.39887 c 6.902185,11.12862 16.827113,20.28586 28.158491,25.98044 7.309006,3.67316 13.79243,5.72926 22.602,7.16782 1.78038,0.29074 11.27896,0.22532 15.84789,-0.10914 z"
       style="fill:#dbae51;fill-opacity:1;stroke:#dbae51;stroke-width:1.86562741;stroke-linejoin:miter;stroke-miterlimit:4;stroke-dasharray:none;stroke-opacity:1" />
    <path
       inkscape:connector-curvature="0"
       id="path8171"
       d="M 115.45278,194.08587 C 94.830989,192.38175 73.48343,177.28589 63.767285,157.53663 59.686283,149.24148 57.459989,140.46687 57.119312,131.33465 56.54898,116.04625 59.947991,103.44138 67.83229,91.606696 83.320575,68.358091 109.87852,57.485075 137.40357,63.123699 c 7.73918,1.585404 16.17886,5.151349 23.2249,9.813001 5.42261,3.587601 14.19405,12.436218 17.95982,18.117818 10.74035,16.204532 13.95202,35.756782 8.92979,54.363442 -5.0196,18.59691 -18.04362,34.20248 -35.54042,42.58507 -11.38658,5.45523 -22.24216,7.26311 -36.52488,6.08284 z m 13.93617,-1.43803 c 18.72778,-1.45676 36.65588,-11.97393 47.52788,-27.8813 13.21608,-19.33713 15.07327,-43.93343 4.91344,-65.072621 C 175.68467,86.907005 164.28388,75.54912 151.58251,69.559988 124.25059,56.672051 92.574042,63.585035 73.388837,86.624714 c -4.953025,5.948131 -9.515874,14.037646 -11.731975,20.799706 -3.1949,9.74871 -4.058326,23.62013 -2.06222,33.13071 1.891414,9.01178 5.705528,17.9762 10.572159,24.84804 3.196758,4.51394 11.079309,12.39969 15.444266,15.45055 13.731933,9.59784 26.789293,13.1156 43.777883,11.79412 z"
       style="fill:#dbae51;fill-opacity:1;stroke:#dbae51;stroke-width:1.86562741;stroke-linejoin:miter;stroke-miterlimit:4;stroke-dasharray:none;stroke-opacity:1" />
    <path
       inkscape:connector-curvature="0"
       id="path8173"
       d="m 220.93425,215.91145 c -3.50329,-1.25197 -5.79207,-3.40066 -7.13908,-6.70211 -0.85309,-2.09089 -0.58584,-9.002 1.06764,-27.60893 2.33662,-26.29437 3.07415,-35.86164 3.13573,-40.67715 0.0539,-4.21597 0.007,-4.51521 -1.02886,-6.56127 -0.59694,-1.17911 -2.2142,-3.41543 -3.5939,-4.96961 -4.14,-4.66352 -5.07168,-7.45526 -5.84698,-17.52023 -1.45233,-18.854428 4.69141,-43.308826 14.65825,-58.345327 2.73763,-4.130138 8.605,-10.076703 10.56695,-10.709574 1.33723,-0.431356 1.49545,-0.406427 2.09139,0.329528 0.35459,0.437902 0.78033,1.744401 0.9461,2.903329 0.16575,1.158928 0.30138,38.05397 0.30138,81.988974 l 0,79.88185 -0.84371,1.71264 c -0.99705,2.02387 -3.73992,4.69759 -6.00623,5.8548 -2.23146,1.1394 -5.7963,1.32093 -8.30868,0.42308 z m 8.12189,-2.05627 c 2.23731,-1.31115 4.92358,-4.39281 5.27652,-6.05315 0.38547,-1.81335 0.37103,-158.693927 -0.0149,-161.393348 -0.38273,-2.677432 -0.89889,-2.730052 -3.61095,-0.368118 -5.79519,5.047031 -10.80922,12.96701 -14.88544,23.512494 -6.27312,16.229023 -8.62474,36.413042 -5.84061,50.130002 0.78061,3.84593 1.603,5.41958 4.5667,8.73852 1.3901,1.55671 3.07927,3.92968 3.75372,5.27325 1.21285,2.41612 1.22574,2.49529 1.17614,7.22843 -0.0539,5.14624 -0.77081,14.56407 -3.13837,41.22933 -0.82692,9.31341 -1.52455,18.92133 -1.55027,21.35091 -0.045,4.25307 -0.006,4.49098 1.04816,6.39432 0.6022,1.08729 1.6512,2.40118 2.33109,2.91976 3.17308,2.42022 7.77979,2.85923 10.88816,1.0376 z"
       style="fill:#dbae51;fill-opacity:1;stroke:#dbae51;stroke-width:1.86562741;stroke-linejoin:miter;stroke-miterlimit:4;stroke-dasharray:none;stroke-opacity:1" />
  </g>
</svg>
