<?xml version="1.0" encoding="UTF-8" standalone="no"?>
<!-- Created with Inkscape (http://www.inkscape.org/) -->

<svg
   xmlns:dc="http://purl.org/dc/elements/1.1/"
   xmlns:cc="http://creativecommons.org/ns#"
   xmlns:rdf="http://www.w3.org/1999/02/22-rdf-syntax-ns#"
   xmlns:svg="http://www.w3.org/2000/svg"
   xmlns="http://www.w3.org/2000/svg"
   xmlns:sodipodi="http://sodipodi.sourceforge.net/DTD/sodipodi-0.dtd"
   xmlns:inkscape="http://www.inkscape.org/namespaces/inkscape"
   id="svg5689"
   version="1.1"
   inkscape:version="0.91 r13725"
   width="250"
   height="250"
   viewBox="0 0 250 250"
   sodipodi:docname="food_truck.svg">
  <metadata
     id="metadata5695">
    <rdf:RDF>
      <cc:Work
         rdf:about="">
        <dc:format>image/svg+xml</dc:format>
        <dc:type
           rdf:resource="http://purl.org/dc/dcmitype/StillImage" />
        <dc:title />
      </cc:Work>
    </rdf:RDF>
  </metadata>
  <defs
     id="defs5693" />
  <sodipodi:namedview
     pagecolor="#ffffff"
     bordercolor="#666666"
     borderopacity="1"
     objecttolerance="10"
     gridtolerance="10"
     guidetolerance="10"
     inkscape:pageopacity="0"
     inkscape:pageshadow="2"
     inkscape:window-width="1440"
     inkscape:window-height="856"
     id="namedview5691"
     showgrid="false"
     inkscape:zoom="0.6675088"
     inkscape:cx="147.40251"
     inkscape:cy="7.8390801"
     inkscape:window-x="0"
     inkscape:window-y="0"
     inkscape:window-maximized="0"
     inkscape:current-layer="svg5689" />
  <path
     style="fill:#000000;stroke:#dbae51;stroke-opacity:1;stroke-width:4;stroke-miterlimit:4;stroke-dasharray:none"
     d="m 52.266588,212.80611 c -9.195145,-2.21109 -15.240004,-9.06832 -16.126454,-18.29369 -0.762521,-7.93575 0.216638,-11.25731 4.886328,-16.5758 13.422401,-15.28727 37.362502,-6.2267 37.362502,14.14052 0,13.24855 -13.309397,23.81001 -26.122376,20.72897 z m 138.051042,-0.086 c -8.99746,-2.1243 -14.89037,-9.17699 -15.68618,-18.77337 -0.68912,-8.30984 1.02931,-12.71379 7.10149,-18.19965 10.37807,-9.37596 26.51164,-6.11036 33.03724,6.68708 4.31361,8.45948 1.41999,21.09692 -6.04558,26.40329 -2.90372,2.06389 -11.88012,5.32056 -13.69619,4.96903 -0.33413,-0.0647 -2.45398,-0.55354 -4.71078,-1.08638 z M 3.0593205,115.56872 l 0,-76.590231 95.3282735,0 95.328286,0 1.32001,4.556228 c 0.72602,2.505921 4.71189,17.402751 8.8575,33.104054 l 7.53744,28.547839 17.00992,7.58208 17.00992,7.58209 0.32183,35.85849 0.32182,35.85849 -9.5815,0 -9.58151,0 -0.7818,-5.8935 c -2.02628,-15.27489 -17.31557,-26.84501 -33.53121,-25.37462 -14.57263,1.3214 -25.32386,11.23418 -27.77704,25.61081 l -0.86168,5.04981 -37.93534,0.32107 -37.935322,0.32104 0,-4.03122 c 0,-5.78379 -5.495556,-15.9952 -10.920689,-20.29199 -19.010918,-15.05693 -46.834247,-4.98618 -50.813101,18.39195 l -0.900184,5.28915 -11.207817,0.34935 -11.2078065,0.34933 0,-76.59022 z M 55.304073,101.55069 c 0,-5.873893 -1.27306,-6.724739 -5.395944,-3.606344 -3.651651,2.761964 -7.533247,2.166994 -10.160424,-1.557379 -7.748708,-10.984861 -11.196842,-23.38864 -6.501832,-23.38864 3.01196,0 5.456004,2.983423 8.709155,10.6312 1.492334,3.50829 2.972169,6.378719 3.288523,6.378719 0.316356,0 2.981898,-2.118473 5.923437,-4.707723 8.485278,-7.469036 17.300974,-8.180245 31.403189,-2.533438 8.450528,3.383749 9.986203,3.624785 18.296273,2.871751 9.34689,-0.846997 12.75734,0.2065 12.75734,3.940751 0,2.939159 -6.24917,4.455773 -18.832404,4.570429 -6.682468,0.06095 -12.833372,0.553036 -13.668685,1.09366 -0.839444,0.543297 -1.518743,3.396337 -1.518743,6.378714 l 0,5.39577 24.323582,0 24.32357,0 -0.32744,-26.426119 -0.32744,-26.426125 -51.941003,-0.316792 -51.941004,-0.316793 0,26.742918 0,26.742911 15.794926,0 15.794924,0 0,-5.46747 z M 96.170239,80.200103 c -1.76074,-1.384995 -3.201345,-3.571986 -3.201345,-4.859977 0,-2.156284 0.96251,-2.341799 12.149946,-2.341799 13.48684,0 14.88086,1.024513 9.16768,6.737697 -3.964,3.963992 -13.36084,4.204716 -18.116281,0.464079 z M 60.935407,72.910138 c -4.011347,-3.15532 -4.389192,-9.658912 -0.771357,-13.276747 5.772875,-5.772875 16.845079,-0.2263 15.319532,7.674253 -1.460831,7.565399 -8.571531,10.303734 -14.548175,5.602494 z m 37.66661,-3.288785 c -0.447032,-0.723301 -0.255635,-1.659429 0.425315,-2.080284 0.83854,-0.518249 0.831143,-1.525595 -0.02294,-3.121437 -1.448137,-2.705861 0.564865,-7.785839 2.589418,-6.534598 0.78922,0.487766 0.73846,1.321505 -0.14528,2.386355 -0.95185,1.146915 -0.9836,2.336813 -0.10608,3.976472 1.41462,2.643253 -1.22683,7.82261 -2.740454,5.373492 z m 10.833433,-0.164238 c -0.3912,-0.632974 -0.17623,-1.481536 0.47772,-1.8857 0.76238,-0.471176 0.70539,-1.796248 -0.1588,-3.692951 -1.02119,-2.241276 -0.97673,-3.40525 0.18348,-4.803213 0.84221,-1.014802 2.06373,-1.51603 2.71449,-1.113848 0.76163,0.470727 0.74809,1.166356 -0.038,1.952466 -0.67167,0.671669 -0.93243,3.000813 -0.57945,5.175876 0.61745,3.804905 -1.13125,6.742936 -2.59942,4.36737 z m -4.92411,-6.983447 c 0,-3.11474 0.56196,-5.85321 1.24881,-6.085489 0.7402,-0.250317 1.23504,1.891514 1.21499,5.258982 -0.0186,3.124712 -0.58056,5.863183 -1.24881,6.085488 -0.69403,0.230887 -1.21499,-2.024064 -1.21499,-5.258981 z m 90.51707,43.283142 c 0,-0.69373 -2.45615,-11.491991 -5.45814,-23.996129 -3.00196,-12.504137 -5.74611,-23.964974 -6.09811,-25.468524 -0.62464,-2.668148 -1.03298,-2.733737 -17.01926,-2.733737 l -16.37928,0 0,26.729873 0,26.729867 22.47739,0 c 14.72559,0 22.4774,-0.435 22.4774,-1.26135 z"
     id="path6239"
     inkscape:connector-curvature="0" />
  <path
     style="fill:#ffcc4d;fill-opacity:1;stroke:#ffcc4d;stroke-width:0.04652326;stroke-miterlimit:4;stroke-dasharray:none;stroke-opacity:1"
     d="m 80.450014,68.663398 0,-2.75921 5.152671,0 5.15267,0 0,2.75921 0,2.75921 -5.15267,0 -5.152671,0 0,-2.75921 z"
     id="path6257"
     inkscape:connector-curvature="0" />
  <path
     style="fill:#ffcc4d;fill-opacity:1;stroke:#ffcc4d;stroke-width:0.74437219;stroke-miterlimit:4;stroke-dasharray:none;stroke-opacity:1"
     d="m 23.773526,80.282563 0,-26.729214 4.845441,0.04926 c 2.664993,0.02709 25.995351,0.175387 51.845238,0.329541 25.849885,0.154153 47.020445,0.300928 47.045685,0.326166 0.0461,0.04607 0.64771,46.227314 0.65769,50.482894 l 0.005,2.27057 -24.25062,0 -24.250615,0 0.0018,-3.44097 c 0.0019,-3.629729 0.08104,-4.694069 0.458916,-6.174063 0.365397,-1.431116 0.756411,-2.069014 1.382937,-2.256117 1.594458,-0.476158 6.206085,-0.80503 13.374555,-0.953789 2.422075,-0.05026 5.118667,-0.136283 5.992427,-0.191156 6.6293,-0.416333 10.55069,-1.344553 12.06108,-2.854936 0.577,-0.577002 0.75736,-1.084165 0.6914,-1.944145 -0.13929,-1.816041 -1.16719,-2.911682 -3.22043,-3.432655 -2.16364,-0.548988 -4.761,-0.573816 -10.33102,-0.09876 -7.456527,0.635956 -9.066485,0.367508 -17.415478,-2.903897 -4.993479,-1.956606 -8.668623,-3.001057 -12.406203,-3.525757 -1.703838,-0.239195 -5.459679,-0.241164 -6.943975,-0.0036 -3.131337,0.501088 -5.978136,1.604944 -8.656407,3.356552 -1.479242,0.967435 -1.878924,1.278131 -4.249544,3.303408 -2.233254,1.907924 -4.109258,3.423184 -4.728402,3.819161 l -0.421343,0.269472 -0.262863,-0.309147 C 44.643333,89.252884 43.009618,85.957064 41.99153,83.603846 38.660402,75.904258 36.32331,73.027559 33.370777,72.992671 c -0.854754,-0.0101 -1.160988,0.109783 -1.622161,0.63503 -0.481363,0.548242 -0.626549,1.201499 -0.614855,2.766502 0.01096,1.466704 0.164879,2.414647 0.706946,4.353875 1.062495,3.801045 3.443492,8.846219 6.252621,13.248889 2.279018,3.57184 3.416026,4.709957 5.390574,5.395835 0.656186,0.227932 0.886276,0.25993 1.871736,0.260296 1.025519,3.75e-4 1.201042,-0.02626 2.011128,-0.305203 1.057197,-0.364037 1.490902,-0.603818 2.905563,-1.606385 1.447299,-1.025698 2.285354,-1.432263 3.053096,-1.481149 0.589792,-0.03756 0.602569,-0.03321 0.963468,0.327689 0.272645,0.272645 0.415101,0.531646 0.559625,1.017455 0.319696,1.074653 0.385267,2.065606 0.385267,5.822405 l 0,3.58387 -15.73013,0 -15.730129,0 0,-26.729217 z m 82.411964,2.57191 c 2.23713,-0.16132 3.89363,-0.565503 5.58795,-1.363447 1.19199,-0.561369 1.9364,-1.114618 3.07045,-2.281986 1.91074,-1.966868 2.60417,-3.019131 2.60672,-3.955677 0.001,-0.463427 -0.0344,-0.569695 -0.27616,-0.821998 -0.83793,-0.874614 -2.79132,-1.236471 -7.59627,-1.407179 -4.97876,-0.176883 -12.392059,-0.0567 -14.316833,0.232111 -1.146641,0.172049 -1.861914,0.503195 -2.126255,0.984377 -0.149122,0.27145 -0.173239,0.464344 -0.140477,1.12358 0.04662,0.93812 0.215403,1.372402 0.979935,2.521423 1.926079,2.894717 5.431879,4.671062 9.79953,4.965299 0.57074,0.03845 1.05877,0.07573 1.08452,0.08286 0.0258,0.0071 0.62285,-0.02859 1.32689,-0.07936 z M 68.485719,75.127026 c 1.604237,-0.279755 2.94495,-0.98668 4.167078,-2.197196 1.168697,-1.157594 1.875233,-2.314441 2.43083,-3.980123 0.617323,-1.850736 0.723947,-3.409283 0.337467,-4.932831 -1.28368,-5.060419 -7.621991,-8.179164 -12.586388,-6.193093 -3.166546,1.266818 -5.168224,4.370396 -5.165789,8.009496 8.42e-4,1.327553 0.112979,2.033343 0.5064,3.188595 0.78519,2.305654 2.491985,4.129557 4.972125,5.313279 1.745915,0.833291 3.558725,1.102201 5.338277,0.791873 z m 22.306086,-6.480848 0.02478,-2.83236 -5.197934,0 -5.197933,0 0,2.856561 0,2.85656 5.173153,-0.0242 5.173152,-0.0242 0.02478,-2.83236 z m 9.188695,1.526298 c 0.93988,-0.486033 1.79116,-2.448121 1.78583,-4.116148 -0.003,-0.78881 -0.13547,-1.273353 -0.70884,-2.583303 -0.21467,-0.490456 -0.2665,-0.744933 -0.26696,-1.310844 -6.5e-4,-0.783468 0.14401,-1.145322 0.81093,-2.028648 0.77874,-1.031437 0.75432,-1.929309 -0.063,-2.31716 -0.17214,-0.08168 -0.44563,-0.148515 -0.60778,-0.148515 -1.318953,0 -2.540461,2.457821 -2.416126,4.861544 0.04713,0.911074 0.08623,1.047388 0.721456,2.514731 0.536631,1.239602 0.469177,1.968024 -0.226056,2.441145 -0.364904,0.248324 -0.706594,0.872 -0.70351,1.284093 0.0049,0.654211 0.683318,1.53877 1.180175,1.53877 0.127349,0 0.3496,-0.06105 0.493891,-0.135665 z m 11.27987,-0.186284 c 0.84767,-0.847673 1.0639,-2.606213 0.72601,-5.90456 -0.10234,-0.998947 0.0144,-2.649533 0.23331,-3.297742 0.0831,-0.24614 0.3324,-0.689406 0.55399,-0.985035 0.48668,-0.649312 0.57775,-0.982762 0.37532,-1.374227 -0.50207,-0.970898 -1.79026,-0.815001 -2.96023,0.358248 -0.37065,0.371689 -0.72445,0.840623 -0.8895,1.17896 -0.23999,0.491953 -0.27327,0.660725 -0.26769,1.35766 0.007,0.844499 0.0474,0.989131 0.88149,3.136662 0.40285,1.037218 0.55994,1.922086 0.43184,2.432464 -0.0343,0.136526 -0.26737,0.446929 -0.51801,0.689783 -0.82112,0.795607 -0.82115,1.654283 -8e-5,2.396072 0.51245,0.46297 0.97849,0.466778 1.43355,0.01172 z m -5.27956,-2.413468 c 0.26834,-0.288035 0.61629,-1.446309 0.81364,-2.70855 0.20455,-1.308259 0.2352,-5.332534 0.0491,-6.447262 -0.23975,-1.436163 -0.57748,-2.095351 -1.04556,-2.040748 -0.18276,0.02132 -0.29614,0.145799 -0.49427,0.542641 -0.57109,1.14385 -0.87772,3.603742 -0.7927,6.359435 0.10551,3.419977 0.69093,5.130481 1.46978,4.294484 z"
     id="path6265"
     inkscape:connector-curvature="0" />
  <path
     style="fill:#ffcc4d;fill-opacity:1;stroke:#ffcc4d;stroke-width:1.48874438;stroke-miterlimit:4;stroke-dasharray:none;stroke-opacity:1"
     d="m 150.1,80.314802 0,-26.601492 15.21516,0.05914 c 14.63992,0.0569 15.25351,0.07321 16.22979,0.431425 0.56786,0.208358 1.15958,0.578433 1.34381,0.840447 0.52916,0.752593 11.9672,48.968288 11.9672,50.446338 0,0.52104 -0.14416,0.57153 -2.43442,0.85258 -3.2149,0.39451 -11.3261,0.56827 -26.63823,0.57063 l -15.68331,0.002 0,-26.601485 z"
     id="path6267"
     inkscape:connector-curvature="0" />
  <path
     style="fill:#dbae51;fill-opacity:1;stroke:#000000;stroke-width:0.529661;stroke-linejoin:miter;stroke-miterlimit:4;stroke-dasharray:none;stroke-opacity:1"
     d="m 23.406438,80.219251 0,-26.831848 52.026001,0.379741 c 28.614301,0.208858 52.062541,0.425403 52.107201,0.481212 0.0446,0.05581 0.25363,11.959257 0.46438,26.452106 l 0.3832,26.350638 -24.41836,0 -24.418354,0 0,-4.2543 c 0,-2.46902 0.314386,-5.006733 0.749174,-6.047329 0.888294,-2.125985 0.857081,-2.120498 16.46885,-2.89506 13.561,-0.672815 17.38368,-1.937122 16.50018,-5.457251 -0.59518,-2.371395 -2.75741,-2.81625 -12.79659,-2.632757 -9.825322,0.179583 -8.77646,0.371553 -20.661482,-3.781601 -9.479937,-3.312712 -16.044019,-3.528827 -22.146132,-0.729135 -1.508781,0.692239 -4.855459,2.963866 -7.437064,5.048061 -2.581605,2.084195 -4.912868,3.654071 -5.180586,3.488612 -0.267718,-0.165459 -1.873026,-3.201966 -3.567353,-6.747793 -3.26943,-6.842149 -4.949024,-9.103525 -7.176749,-9.662648 -5.402823,-1.356023 -2.925183,10.094189 4.621372,21.3573 3.565303,5.321161 6.578155,6.049911 11.495024,2.780443 1.310911,-0.87169 2.673023,-1.585911 3.026915,-1.587158 1.201168,-0.0042 1.740034,2.034648 1.740034,6.583676 l 0,4.53694 -15.88983,0 -15.889831,0 0,-26.831849 z m 86.190882,1.852066 c 1.69149,-0.42592 3.23128,-1.374333 5.0015,-3.080594 2.6633,-2.567084 3.23779,-4.358093 1.63071,-5.083884 -1.49835,-0.676688 -19.797499,-0.916075 -21.45127,-0.280623 -3.656552,1.405014 0.07914,6.778158 5.95526,8.565591 2.03457,0.61889 6.14961,0.562952 8.8638,-0.12049 z M 71.435595,73.618009 c 2.412168,-1.482445 4.069545,-5.167071 3.762336,-8.364288 -0.31507,-3.278994 -1.616889,-5.014231 -5.045754,-6.725645 -2.300666,-1.148309 -3.191181,-1.324314 -5.186544,-1.025091 -6.811428,1.021437 -9.494165,9.579245 -4.552176,14.521233 3.30016,3.300161 7.303648,3.879061 11.022138,1.593791 z m 29.608565,-5.516724 c 0.63965,-1.530901 0.66772,-2.257684 0.15349,-3.974019 -0.47906,-1.598967 -0.48273,-2.422212 -0.0154,-3.447991 0.83879,-1.84092 0.77029,-2.886652 -0.18908,-2.886652 -0.44169,0 -1.20147,0.835464 -1.688409,1.856586 -0.775625,1.626501 -0.799872,2.190066 -0.195688,4.547478 0.506954,1.97803 0.533294,2.847256 0.09942,3.281126 -0.868809,0.868809 -0.717998,2.497014 0.231287,2.497014 0.451832,0 1.17378,-0.843094 1.60434,-1.873542 z m 10.49417,1.035731 c 0.17683,-0.460797 0.3215,-2.489984 0.3215,-4.509306 0,-2.019322 0.29196,-4.139006 0.64881,-4.710409 0.51288,-0.821245 0.51136,-1.176367 -0.007,-1.694952 -0.52161,-0.521607 -0.94928,-0.362797 -2.08709,0.775018 l -1.43105,1.431054 0.84819,3.165626 c 0.69382,2.589522 0.72531,3.333657 0.17304,4.088938 -0.76902,1.051676 -0.4816,2.291842 0.53115,2.291842 0.37463,0 0.82583,-0.377015 1.00265,-0.837811 z m -5.29661,-2.648305 c 0.17683,-0.460797 0.3215,-2.711031 0.3215,-5.000521 0,-4.187575 -0.75977,-6.069249 -1.34053,-3.319983 -0.17174,0.813026 -0.41127,1.954925 -0.5323,2.537552 -0.30498,1.468332 0.34075,6.620763 0.82976,6.620763 0.22004,0 0.54475,-0.377015 0.72157,-0.837811 z"
     id="path5632"
     inkscape:connector-curvature="0" />
  <path
     style="fill:#dbae51;fill-opacity:1;stroke:#000000;stroke-width:0.529661;stroke-linejoin:miter;stroke-miterlimit:4;stroke-dasharray:none;stroke-opacity:1"
     d="m 149.46576,80.226136 0,-27.354622 16.00865,0.386864 c 8.80476,0.212776 16.42145,0.607788 16.92598,0.877805 1.09521,0.586139 1.02533,0.343214 5.77514,20.075932 5.88748,24.459014 7.37832,31.454285 6.82212,32.010485 -0.70344,0.70343 -14.13542,1.27317 -31.09863,1.31909 l -14.43326,0.0391 0,-27.354624 z"
     id="path5634"
     inkscape:connector-curvature="0" />
</svg>
