<?xml version="1.0" encoding="UTF-8" standalone="no"?>
<!-- Created with Inkscape (http://www.inkscape.org/) -->

<svg
   xmlns:dc="http://purl.org/dc/elements/1.1/"
   xmlns:cc="http://creativecommons.org/ns#"
   xmlns:rdf="http://www.w3.org/1999/02/22-rdf-syntax-ns#"
   xmlns:svg="http://www.w3.org/2000/svg"
   xmlns="http://www.w3.org/2000/svg"
   xmlns:sodipodi="http://sodipodi.sourceforge.net/DTD/sodipodi-0.dtd"
   xmlns:inkscape="http://www.inkscape.org/namespaces/inkscape"
   id="svg7063"
   version="1.1"
   inkscape:version="0.91 r13725"
   width="250"
   height="250"
   viewBox="0 0 250 250"
   sodipodi:docname="general_event.svg">
  <metadata
     id="metadata7069">
    <rdf:RDF>
      <cc:Work
         rdf:about="">
        <dc:format>image/svg+xml</dc:format>
        <dc:type
           rdf:resource="http://purl.org/dc/dcmitype/StillImage" />
        <dc:title />
      </cc:Work>
    </rdf:RDF>
  </metadata>
  <defs
     id="defs7067" />
  <sodipodi:namedview
     pagecolor="#ffffff"
     bordercolor="#666666"
     borderopacity="1"
     objecttolerance="10"
     gridtolerance="10"
     guidetolerance="10"
     inkscape:pageopacity="0"
     inkscape:pageshadow="2"
     inkscape:window-width="1401"
     inkscape:window-height="843"
     id="namedview7065"
     showgrid="false"
     inkscape:zoom="1.1410407"
     inkscape:cx="-49.216588"
     inkscape:cy="146.52597"
     inkscape:window-x="0"
     inkscape:window-y="0"
     inkscape:window-maximized="0"
     inkscape:current-layer="svg7063" />
  <path
     style="fill:#000000"
     d="m 52.702795,217.78963 c -3.108921,-1.11341 -9.013852,-3.15607 -13.122066,-4.53925 -4.108217,-1.38317 -10.649058,-3.60281 -14.535208,-4.93252 -3.886149,-1.32972 -9.881936,-3.37375 -13.323947,-4.54233 -3.4420213,-1.16854 -6.8577764,-2.38421 -7.5905659,-2.70147 -1.5258353,-0.66061 -2.9070862,-2.85746 -2.9070862,-4.62367 0,-1.90819 0.9995206,-3.17661 5.1459523,-6.53035 6.7543888,-5.4631 10.3493518,-9.61869 13.4260148,-15.51982 4.383085,-8.40686 3.907806,-11.20603 7.07854,-25.85182 2.085001,-9.63075 3.192454,-19.50106 4.081797,-36.37947 1.096817,-20.816126 2.316931,-26.979385 8.40686,-42.467826 6.056477,-15.403252 15.960871,-35.053867 19.561341,-38.810137 2.220521,-2.316618 5.347295,-3.760651 8.684524,-4.010774 2.25945,-0.16934 3.10111,-0.0093 7.370692,1.400683 8.477302,2.799693 9.85635,3.265815 21.777776,7.360755 6.439911,2.212077 21.349421,7.626753 23.459041,8.312145 5.19348,1.687303 5.24883,1.711723 5.24883,2.315237 0,0.623819 -4.0244,2.394689 -6.05634,2.664987 -1.07574,0.143096 -11.06287,-3.453529 -16.59519,-5.358371 C 94.549105,40.73001 84.044369,37.131375 75.76212,34.308493 65.690482,30.87573 64.366065,31.483796 58.644131,42.167829 52.293364,54.026008 47.565257,64.371631 43.192403,75.97797 c -3.68773,9.78798 -5.232138,17.495495 -5.96769,29.78215 -0.22346,3.73219 -0.599805,10.09389 -0.836404,14.13709 -1.291255,22.06923 -2.065296,31.53818 -10.464848,54.93842 -1.228046,3.42117 -0.02855,0.52865 -0.880342,2.23613 -2.185662,4.38145 -5.690284,7.96516 -10.388446,12.59653 -4.610196,4.54466 -5.1011332,5.2392 -4.590248,6.49388 0.539206,1.32419 1.045838,1.60006 6.102814,3.32299 4.204718,1.43261 7.498644,2.55202 22.202221,7.54529 13.20582,4.48466 16.844373,5.63419 17.833672,5.63419 0.701816,0 1.392191,-0.36555 1.957316,-1.03638 0.766601,-0.90993 0.840081,-1.32406 0.602588,-3.39497 -0.510309,-4.44926 -0.286849,-13.69798 0.425774,-17.62252 1.430642,-7.87862 0.829613,-6.22069 8.911012,-21.13947 6.795528,-12.54498 13.061547,-21.74235 23.274899,-34.1634 7.129353,-8.67037 9.859059,-12.15857 13.239659,-16.91864 1.84068,-2.5918 3.33263,-4.79719 3.31542,-4.90086 -0.0171,-0.10359 0.66445,-1.376 1.5148,-2.82741 0.85037,-1.45143 5.05926,-10.65256 5.55825,-11.74112 0.49901,-1.088571 1.11957,-1.979193 1.37905,-1.979193 0.73317,0 2.65883,4.004633 2.65883,5.529303 0,2.36104 -8.49828,18.21252 -14.82962,26.09798 -1.24859,1.55509 -2.61885,3.27015 -3.04503,3.81126 -0.42618,0.54112 -2.498677,3.08579 -4.605513,5.65483 -14.856234,18.11546 -17.065804,16.31452 -25.903294,36.93165 -6.866811,16.01977 -8.064309,22.70489 -6.043687,33.74054 1.198215,6.54409 1.127827,7.43684 -0.732998,9.29949 -2.376008,2.37835 -4.022349,2.3465 -11.177793,-0.2161 z m 138.216625,7.46551 c -1.74463,-0.81374 -3.28223,-3.42613 -3.02606,-5.14129 0.51618,-3.45659 0.65829,-12.07464 0.24988,-15.15398 -0.92015,-6.93751 -4.50492,-15.1383 -13.0043,-29.74947 -10.10959,-17.37928 -12.89063,-19.01514 -27.95514,-34.21241 -1.75284,-1.76826 -4.45878,-4.55676 -6.01323,-6.19667 -1.55445,-1.63991 -3.56813,-3.75572 -4.47479,-4.70177 -2.30149,-2.40146 -6.90363,-8.27843 -9.46536,-12.08727 -6.81653,-10.13508 -17.65883,-34.382703 -22.67266,-50.705062 -1.96423,-6.394413 0.43661,-12.691137 5.77438,-15.144528 0.97239,-0.446947 4.94758,-2.200283 8.83374,-3.896301 3.88614,-1.696017 9.51854,-4.157035 12.51642,-5.468937 34.03469,-14.893842 33.43041,-14.677576 37.97517,-13.590448 2.77303,0.663322 4.74395,1.659495 6.30033,3.184395 2.0364,1.995238 8.552,11.665327 13.7905,20.467125 3.34332,5.617535 11.55904,21.505475 13.55705,26.217298 3.66574,8.644729 5.3246,15.350196 7.4873,30.265678 2.57044,17.72768 3.01596,20.09655 5.74265,30.53614 1.73421,6.63986 3.15034,16.89869 5.63997,22.77623 2.55759,6.03811 0.89186,2.26551 2.05921,4.63978 0.61174,1.24406 1.78743,3.63021 2.6127,5.30255 3.58279,7.26007 9.74192,13.94264 17.66086,19.1618 4.75361,3.13299 5.76483,4.3078 5.76196,6.69422 0,1.47392 -1.16323,3.42006 -2.54597,4.26599 -0.87892,0.53771 -4.51467,2.14544 -20.06284,8.87166 -2.7758,1.20085 -8.22651,3.57034 -12.11268,5.26555 -17.5372,7.65006 -20.96994,9.06002 -22.05652,9.05946 -0.63769,-3.2e-4 -1.79532,-0.29721 -2.57257,-0.65974 z m 9.01681,-7.68372 c 1.59168,-0.64966 4.62004,-1.94269 6.72966,-2.87337 2.10964,-0.93067 4.92583,-2.158 6.25821,-2.72737 1.33239,-0.5694 3.96692,-1.71826 5.85449,-2.55307 1.88754,-0.83478 6.61148,-2.89425 10.49763,-4.57661 10.86292,-4.70271 11.4592,-5.00976 11.86544,-6.11006 0.5723,-1.55007 -0.007,-2.66935 -2.21675,-4.28938 -3.03585,-2.22477 -8.61946,-7.48385 -11.3419,-10.68264 -3.57257,-4.19769 -4.90134,-6.30563 -7.95067,-12.61318 -8.15296,-16.86439 -7.48042,-22.88304 -10.79432,-38.05392 -1.38044,-6.31958 -1.56276,-7.39487 -3.48383,-20.5459 -3.28621,-22.496228 -4.84184,-27.372681 -14.55171,-45.615699 -6.29009,-11.817775 -10.13782,-18.265779 -15.31851,-25.670438 -3.22973,-4.616177 -3.95323,-5.419662 -5.51606,-6.126073 -3.58898,-1.622214 -0.58087,-2.713209 -40.17755,14.571688 -6.70324,2.926123 -13.33871,5.807529 -14.74554,6.403111 -4.2973,1.819326 -6.19581,4.836959 -5.22787,8.309697 3.99437,14.330958 15.74814,40.843854 22.50603,50.766644 4.56962,6.70965 8.26332,10.93662 20.9578,23.98338 9.14086,9.39449 13.94129,14.92871 19.90867,22.95178 9.35926,12.58346 14.57988,22.30866 17.53646,30.81249 2.22059,6.38683 3.3987,13.80651 3.41716,21.52061 0.008,2.92749 0.5595,3.78069 2.76499,4.2698 0.0738,0.0164 1.43652,-0.5018 3.02817,-1.15149 z m 0.89146,-7.96073 c -0.92953,-0.75948 -1.10267,-1.34065 -1.65442,-5.55448 -0.64237,-4.90564 -2.01941,-10.56087 -3.46939,-14.24808 -0.8987,-2.28546 -6.76541,-13.57456 -9.82475,-18.90553 -3.73372,-6.50599 -0.43768,-1.11779 -5.55781,-8.33706 -7.22417,-10.186 -12.72902,-16.67038 -23.58117,-27.77726 -18.88536,-19.32858 -21.68065,-23.38332 -30.51999,-44.270997 -2.94023,-6.947859 -3.07638,-7.400419 -2.63805,-8.766521 0.77711,-2.421801 1.06802,-2.528594 13.75279,-5.049122 4.7744,-0.948704 14.0406,-2.793338 20.59153,-4.099196 26.29383,-5.241387 24.40341,-4.939289 26.19317,-4.185711 1.47138,0.61951 1.7847,1.059812 4.43291,6.229515 6.82329,13.320023 7.87962,17.086106 11.52876,41.104092 2.38928,15.72587 3.24,19.85817 6.29945,30.60045 4.43377,15.5677 8.15713,29.21338 13.60139,36.77844 2.44136,3.39228 6.6429,8.0548 8.913,9.89081 1.91773,1.55101 2.48424,2.9617 1.79974,4.48174 -0.43046,0.95583 -1.38936,1.50567 -6.31287,3.61978 -3.19291,1.37102 -9.33002,4.03281 -13.63806,5.91505 -4.30803,1.88225 -8.06792,3.42231 -8.35541,3.42231 -0.28748,0 -0.98983,-0.38171 -1.56082,-0.84823 z M 43.820163,203.24957 c -2.886855,-1.02454 -9.06431,-3.14537 -13.727693,-4.71292 -5.34241,-1.79581 -8.740235,-3.14198 -9.185448,-3.63907 -1.275194,-1.42383 -0.89351,-2.66662 1.710447,-5.56952 4.921153,-5.48609 7.470909,-11.15098 9.970971,-17.6587 2.04834,-5.33181 0.05476,0.28682 1.131305,-3.52665 0.557506,-1.97479 1.383581,-4.85876 1.835793,-6.40883 2.367135,-8.1141 4.861489,-21.92431 5.854096,-32.41193 0.543463,-5.74172 0.699713,-8.13178 1.257303,-19.22646 0.842855,-16.77184 2.647918,-25.279769 8.004542,-37.7285 0.586977,-1.364005 1.067171,-2.661182 1.067171,-2.882616 0,-0.862034 2.844416,-2.742642 4.148234,-2.742642 1.145548,0 9.707009,1.16468 35.942296,4.889515 4.439338,0.630289 10.30656,1.325065 10.87742,1.674303 0.58192,0.356019 1.15991,1.244057 1.43204,2.200176 1.29305,1.762561 6.05153,13.470653 6.67951,16.954162 0.53409,1.185978 0.97104,2.73818 0.97104,3.449322 0,3.04453 -7.91408,14.09408 -13.039014,21.16059 -2.577346,3.55378 -4.604691,6.09785 -14.001211,17.57003 -12.958719,15.82121 -14.156917,18.21233 -24.453944,38.57265 -5.943093,11.75128 -7.069996,14.94159 -7.636818,25.06212 -0.420626,7.51036 -0.913071,7.78756 -8.83804,4.97497 z"
     id="path7075"
     inkscape:connector-curvature="0"
     sodipodi:nodetypes="sssssssssssssssssssssssssssssssccsssscscsssssssssscssssssssssssssssscsscssssscscssscsssssssscsssssccccscsssscsssssscscssscssssssssscssscccssssss" />
  <path
     style="fill:#ffcc4d;fill-opacity:1;stroke:#ffcc4d;stroke-width:1.26631105;stroke-miterlimit:4;stroke-dasharray:none;stroke-opacity:1"
     d="m 38.078313,201.05465 c -15.434522,-5.34168 -16.794524,-5.88037 -17.318717,-6.85984 -0.625073,-1.16796 -0.131197,-2.11028 3.262094,-6.22412 4.792384,-5.81004 8.330258,-13.68082 11.611335,-25.83196 3.533909,-13.08751 5.606996,-26.0578 6.583575,-41.19021 0.276597,-4.28598 0.735941,-11.18981 1.020763,-15.34185 0.854013,-12.449529 2.388956,-19.664167 6.372644,-29.953125 2.717005,-7.017408 3.899338,-8.514446 6.732408,-8.524396 2.502782,-0.0088 44.367535,5.824952 45.693335,6.367245 0.77094,0.315336 1.80215,1.888927 3.25192,4.96228 2.46726,5.230342 6.09057,15.503638 6.09057,17.268788 0,3.508468 -9.0194,16.832808 -23.265596,34.370208 -15.646165,19.26079 -17.581371,22.21555 -27.182398,41.50329 -6.756181,13.57266 -7.664783,16.33944 -8.454218,25.74395 -0.26663,3.17636 -0.738036,6.08035 -1.047568,6.45332 -0.991827,1.19507 -3.399073,0.70036 -13.350147,-2.74358 z"
     id="path7077"
     inkscape:connector-curvature="0" />
  <path
     style="fill:#ffcc4d;fill-opacity:1;stroke:#ffcc4d;stroke-width:1.26631105;stroke-miterlimit:4;stroke-dasharray:none;stroke-opacity:1"
     d="m 201.08594,209.32779 c -0.58626,-0.54618 -1.06593,-1.16536 -1.06593,-1.37594 0,-1.33274 -2.164,-12.093 -3.00077,-14.92102 -2.01216,-6.80044 -11.15308,-23.46334 -17.77673,-32.40504 -7.09335,-9.57576 -10.9024,-13.99565 -23.27786,-27.01076 -15.763,-16.57773 -19.34176,-21.20739 -24.11903,-31.20153 -2.92628,-6.121811 -7.61781,-17.079168 -8.04953,-18.800148 -0.43654,-1.740188 0.46931,-3.27272 2.41495,-4.085659 1.25511,-0.524417 35.78623,-7.578441 53.7521,-10.980489 2.8118,-0.532447 3.19044,-0.501088 4.38339,0.363033 1.55105,1.123528 7.1513,11.71038 9.3639,17.701768 2.10663,5.704483 3.45197,12.033265 6.03637,28.396495 2.87556,18.20669 3.47885,20.99302 7.87701,36.38019 7.09552,24.82402 9.93754,30.7334 19.25647,40.0398 4.97488,4.96822 5.01621,5.76891 0.41412,8.02415 -2.74883,1.34706 -24.66164,10.86821 -25.01305,10.86821 -0.0712,0 -0.60916,-0.44688 -1.19541,-0.99306 z"
     id="path7079"
     inkscape:connector-curvature="0" />
  <path
     style="fill:#dbae51;fill-opacity:1;stroke:#dbae51;stroke-width:4.44155931;stroke-linejoin:miter;stroke-miterlimit:4;stroke-dasharray:none;stroke-opacity:1"
     d="m 35.968804,200.58964 c -18.37162,-6.43701 -17.60607,-5.7233 -12.896438,-12.02329 4.511947,-6.03555 5.69136,-8.1368 8.408993,-14.98152 5.560374,-14.00455 8.861801,-32.3246 11.057129,-61.35746 1.677068,-22.178946 5.121065,-36.689997 10.257713,-43.220188 1.763168,-2.241504 2.127468,-2.332009 7.194488,-1.787358 13.82208,1.485725 42.149841,5.908156 43.147351,6.736012 1.63935,1.360543 8.20056,18.620414 8.20056,21.572349 0,4.330339 -6.39808,13.875685 -25.416096,37.918485 -12.691287,16.04447 -15.426043,20.28905 -23.716084,36.8094 -7.065074,14.07924 -7.853851,16.50572 -10.042076,30.89195 -0.435865,2.86554 -0.803493,3.28605 -2.87026,3.28322 -1.303703,-0.002 -7.300079,-1.7305 -13.32528,-3.8416 z"
     id="path7581"
     inkscape:connector-curvature="0" />
  <path
     style="fill:#dbae51;fill-opacity:1;stroke:#dbae51;stroke-width:4.44155931;stroke-linejoin:miter;stroke-miterlimit:4;stroke-dasharray:none;stroke-opacity:1"
     d="m 200.88653,209.44245 c -0.51434,-0.61974 -1.74521,-4.85929 -2.73526,-9.42122 -2.12087,-9.77243 -7.34564,-21.13524 -15.2722,-33.21396 -6.63585,-10.11189 -11.62306,-16.19819 -25.54087,-31.16962 -20.05528,-21.57351 -22.38149,-24.84414 -29.69588,-41.751988 -4.22539,-9.767344 -4.7509,-12.218762 -2.93873,-13.708562 1.12394,-0.924001 14.21619,-3.819983 42.68813,-9.442534 l 16.17725,-3.194633 1.66941,2.060517 c 2.9352,3.622865 8.38609,15.323931 10.22135,21.941492 0.97786,3.525947 2.98615,13.706788 4.46287,22.624078 3.13917,18.95617 4.80849,26.41727 9.11775,40.75227 6.13957,20.42362 9.05591,26.40156 17.26741,35.39492 6.41588,7.02679 6.24635,7.27389 -9.80201,14.28589 -7.47125,3.26441 -13.83159,5.94314 -14.13408,5.95271 -0.30249,0.01 -0.9708,-0.48963 -1.48514,-1.10936 z"
     id="path7583"
     inkscape:connector-curvature="0" />
</svg>
