<?xml version="1.0" encoding="UTF-8" standalone="no"?>
<!-- Generator: Adobe Illustrator 16.0.0, SVG Export Plug-In . SVG Version: 6.00 Build 0)  -->

<svg
   xmlns:dc="http://purl.org/dc/elements/1.1/"
   xmlns:cc="http://creativecommons.org/ns#"
   xmlns:rdf="http://www.w3.org/1999/02/22-rdf-syntax-ns#"
   xmlns:svg="http://www.w3.org/2000/svg"
   xmlns="http://www.w3.org/2000/svg"
   xmlns:sodipodi="http://sodipodi.sourceforge.net/DTD/sodipodi-0.dtd"
   xmlns:inkscape="http://www.inkscape.org/namespaces/inkscape"
   version="1.1"
   id="Layer_1"
   x="0px"
   y="0px"
   width="250"
   height="250"
   viewBox="0 0 250 250"
   enable-background="new 0 0 24 24"
   xml:space="preserve"
   inkscape:version="0.91 r13725"
   sodipodi:docname="music.svg"><metadata
     id="metadata5549"><rdf:RDF><cc:Work
         rdf:about=""><dc:format>image/svg+xml</dc:format><dc:type
           rdf:resource="http://purl.org/dc/dcmitype/StillImage" /><dc:title /></cc:Work></rdf:RDF></metadata><defs
     id="defs5547" /><sodipodi:namedview
     pagecolor="#ffffff"
     bordercolor="#666666"
     borderopacity="1"
     objecttolerance="10"
     gridtolerance="10"
     guidetolerance="10"
     inkscape:pageopacity="0"
     inkscape:pageshadow="2"
     inkscape:window-width="1440"
     inkscape:window-height="856"
     id="namedview5545"
     showgrid="false"
     inkscape:zoom="1.7383041"
     inkscape:cx="60.111973"
     inkscape:cy="107.26579"
     inkscape:window-x="0"
     inkscape:window-y="0"
     inkscape:window-maximized="0"
     inkscape:current-layer="Layer_1" /><g
     id="g5539"
     transform="matrix(9.4682056,0,0,9.4682056,0,11.780005)"
     style="stroke:#dbae51;stroke-opacity:1;stroke-width:0.5352651;stroke-miterlimit:4;stroke-dasharray:none"><path
       d="M 23.411,0 2.651,0 C 1.193,0 0,1.193 0,2.651 L 0,23.41 C 0,23.735 0.265,24 0.589,24 L 23.41,24 C 23.734,24 24,23.735 24,23.411 L 24,0.589 C 24,0.266 23.734,0 23.411,0 Z M 2.007,23.127 c -0.593,0 -1.077,-0.484 -1.077,-1.077 0,-0.593 0.483,-1.077 1.077,-1.077 0.594,0 1.077,0.484 1.077,1.077 0,0.593 -0.483,1.077 -1.077,1.077 z m 2.812,0 c -0.593,0 -1.076,-0.484 -1.076,-1.077 0,-0.593 0.483,-1.077 1.076,-1.077 0.593,0 1.077,0.484 1.077,1.077 0,0.593 -0.483,1.077 -1.077,1.077 z M 1.873,9.752 c 0,-4.189 3.396,-7.585 7.585,-7.585 4.189,0 7.585,3.396 7.585,7.585 0,4.189 -3.396,7.585 -7.585,7.585 -4.189,0 -7.585,-3.395 -7.585,-7.585 z M 21.399,6.348 c 0,0.273 -0.223,0.496 -0.497,0.496 l -0.066,0 0,4.34 -2.003,3.306 c -0.014,-0.017 -0.026,-0.035 -0.041,-0.05 0.21,0.211 0.21,0.552 0,0.762 l -2.668,2.668 c -0.21,0.21 -0.552,0.21 -0.763,0 L 14.79,17.299 c -0.211,-0.21 -0.211,-0.552 0,-0.762 l 2.668,-2.668 c 0.154,-0.154 0.378,-0.193 0.57,-0.121 -0.002,-10e-4 -0.004,-0.002 -0.006,-0.003 l 1.736,-2.897 0,-4.004 -0.066,0 c -0.273,0 -0.497,-0.223 -0.497,-0.496 l 0,-4.679 c 0,-0.273 0.223,-0.496 0.497,-0.496 l 1.209,0 c 0.273,0 0.497,0.223 0.497,0.496 l 0,4.679 z m 1.968,11.905 c 0,0.273 -0.223,0.496 -0.497,0.496 l -0.366,0 c -0.273,0 -0.497,-0.224 -0.497,-0.496 l 0,-12.506 c 0,-0.272 0.224,-0.497 0.497,-0.497 l 0.366,0 c 0.273,0 0.497,0.224 0.497,0.497 l 0,12.506 z"
       id="path5541"
       inkscape:connector-curvature="0"
       style="clip-rule:evenodd;fill-rule:evenodd;stroke:#dbae51;stroke-opacity:1;stroke-width:0.5352651;stroke-miterlimit:4;stroke-dasharray:none" /><circle
       cx="9.4580002"
       cy="9.7530003"
       r="0.94800001"
       id="circle5543"
       style="clip-rule:evenodd;fill-rule:evenodd;stroke:#dbae51;stroke-opacity:1;stroke-width:0.5352651;stroke-miterlimit:4;stroke-dasharray:none" /></g><path
     style="fill:#ffcc4d;fill-opacity:1;stroke:#ffcc4d;stroke-width:3.82740188;stroke-miterlimit:4;stroke-dasharray:none;stroke-opacity:1"
     d="M 84.087731,175.4264 C 51.890187,173.137 25.219998,148.97359 19.009903,116.46531 17.873291,110.51538 17.889862,97.914089 19.042453,91.673689 24.523408,61.999718 47.444035,39.088848 77.138935,33.601836 c 6.337763,-1.171089 18.815248,-1.158549 25.002525,0.02668 14.63429,2.799829 27.66207,9.665965 38.01576,20.035598 8.01595,8.028364 13.68963,17.266445 17.29587,28.162022 2.53173,7.649083 3.4908,13.707153 3.49417,22.071504 0.005,10.68138 -1.84247,19.71977 -5.94416,29.09137 -10.10487,23.08784 -33.58897,40.20026 -57.916692,42.2028 -6.61223,0.54431 -8.24567,0.57364 -12.998732,0.23549 z m 9.167168,-62.99541 c 8.417061,-3.82338 6.505348,-16.399301 -2.626305,-17.276711 -5.738781,-0.55097 -10.151623,3.30138 -10.151623,8.863281 0,6.80497 6.662007,11.19152 12.777928,8.41343 z"
     id="path5553"
     inkscape:connector-curvature="0" /><path
     style="fill:#dbae51;fill-opacity:1;stroke:#dbae51;stroke-width:1.62711871;stroke-linejoin:miter;stroke-miterlimit:4;stroke-dasharray:none;stroke-opacity:1"
     d="M 81.148562,176.92133 C 72.84734,175.86969 65.628986,173.75665 58.230669,170.21256 43.355434,163.08673 31.548103,151.48413 24.171924,136.7444 c -2.731619,-5.45857 -4.198468,-9.35436 -5.857963,-15.55814 l -1.46897,-5.49153 -0.0194,-10.98305 c -0.02122,-12.015429 0.206381,-13.879408 2.680391,-21.951173 8.764641,-28.595725 34.571355,-49.374144 64.0081,-51.536476 22.957148,-1.68636 43.503048,6.211757 59.249648,22.776344 5.15743,5.425339 8.74245,10.562225 12.11227,17.355376 4.97876,10.036581 7.21971,18.6482 7.62651,29.307489 0.52974,13.88082 -1.64591,24.24181 -7.59808,36.18404 -4.72691,9.48391 -11.13238,17.41538 -19.50111,24.14694 -10.30721,8.29081 -21.13863,13.219 -33.78357,15.37119 -4.159056,0.70787 -16.604,1.04583 -20.471189,0.55592 z M 93.62785,110.18699 c 4.168259,-2.85614 4.157622,-9.65452 -0.01916,-12.235903 -2.107611,-1.302573 -5.242402,-1.42276 -7.443295,-0.285376 -5.293993,2.735849 -5.243036,10.386379 0.08729,13.105079 1.922607,0.98061 5.506006,0.69696 7.375155,-0.5838 l 1.2e-5,0 z"
     id="path6221"
     inkscape:connector-curvature="0" /></svg>