<?xml version="1.0" encoding="UTF-8" standalone="no"?>
<!-- Created with Inkscape (http://www.inkscape.org/) -->

<svg
   xmlns:dc="http://purl.org/dc/elements/1.1/"
   xmlns:cc="http://creativecommons.org/ns#"
   xmlns:rdf="http://www.w3.org/1999/02/22-rdf-syntax-ns#"
   xmlns:svg="http://www.w3.org/2000/svg"
   xmlns="http://www.w3.org/2000/svg"
   xmlns:sodipodi="http://sodipodi.sourceforge.net/DTD/sodipodi-0.dtd"
   xmlns:inkscape="http://www.inkscape.org/namespaces/inkscape"
   id="svg4190"
   version="1.1"
   inkscape:version="0.91 r13725"
   width="250"
   height="250"
   viewBox="0 0 250 250"
   sodipodi:docname="tailgate.svg">
  <metadata
     id="metadata4196">
    <rdf:RDF>
      <cc:Work
         rdf:about="">
        <dc:format>image/svg+xml</dc:format>
        <dc:type
           rdf:resource="http://purl.org/dc/dcmitype/StillImage" />
        <dc:title></dc:title>
      </cc:Work>
    </rdf:RDF>
  </metadata>
  <defs
     id="defs4194" />
  <sodipodi:namedview
     pagecolor="#ffffff"
     bordercolor="#666666"
     borderopacity="1"
     objecttolerance="10"
     gridtolerance="10"
     guidetolerance="10"
     inkscape:pageopacity="0"
     inkscape:pageshadow="2"
     inkscape:window-width="1415"
     inkscape:window-height="858"
     id="namedview4192"
     showgrid="false"
     inkscape:zoom="1.3238289"
     inkscape:cx="256"
     inkscape:cy="185.06923"
     inkscape:window-x="0"
     inkscape:window-y="0"
     inkscape:window-maximized="0"
     inkscape:current-layer="svg4190" />
  <path
     style="fill:#000000;fill-opacity:1;stroke:#dbae51;stroke-opacity:1;stroke-width:4.8;stroke-miterlimit:4;stroke-dasharray:none"
     d="m 17.968959,235.54668 c -2.621714,-0.84129 -6.364148,-4.14739 -7.573034,-6.6901 -1.9160072,-4.03004 -1.9695381,-3.6126 5.10773,-39.82928 l 6.606655,-33.80836 0,-30.08525 c 0,-32.780617 0.02374,-33.123247 2.599516,-37.525467 6.160199,-10.528269 18.882118,-13.884469 29.345038,-7.741569 1.246064,0.731577 8.052257,6.022029 15.124867,11.756559 l 12.859296,10.426427 13.874443,0.14271 c 12.19816,0.12547 14.09342,0.24138 15.6869,0.95938 8.22883,3.70782 8.58901,15.09348 0.60337,19.07289 l -2.3672,1.17963 -16.789541,-0.01 c -19.463187,-0.0115 -17.960488,0.2927 -24.492479,-4.9585 l -4.078028,-3.27842 -0.118821,17.13374 -0.118825,17.13373 7.513577,36.719 c 5.570487,27.22309 7.442669,37.1756 7.239393,38.48459 -1.097973,7.07044 -7.350251,12.16359 -14.079301,11.46908 -4.563691,-0.471 -8.877369,-3.62529 -10.631832,-7.77428 -0.426888,-1.00952 -2.890973,-12.28542 -5.475745,-25.05759 -2.584772,-12.77215 -4.80731,-23.2221 -4.938973,-23.2221 -0.131662,0 -2.256963,10.348 -4.722889,22.99555 -2.465925,12.64755 -4.769384,23.83835 -5.118799,24.86846 -2.047705,6.03678 -9.700921,9.67819 -16.055318,7.63914 z m 87.902261,-0.004 c -0.6589,-0.35795 -1.42088,-1.29017 -1.69328,-2.07159 -0.60704,-1.74133 -1.32896,0.1112 11.90343,-30.5452 8.25838,-19.13279 10.0518,-23.64712 9.54053,-24.01505 -0.34631,-0.24922 -2.31747,-1.37068 -4.38034,-2.49213 -2.8716,-1.56111 -4.86583,-3.15416 -8.5084,-6.79673 -7.0525,-7.0525 -10.50029,-13.50258 -12.42415,-23.24297 -0.840941,-4.25759 -1.110591,-4.96383 -2.079731,-5.447 -1.61623,-0.80578 -2.152846,-2.66115 -1.193235,-4.12568 l 0.765234,-1.16791 41.442642,0 41.44265,0 0.12014,-42.402777 c 0.11724,-41.378525 0.14139,-42.418319 0.9997,-43.045854 1.83278,-1.340009 4.12314,-0.533252 4.92783,1.735781 0.1822,0.513754 0.75442,0.792949 1.62515,0.792949 3.82908,0 11.18117,2.257085 16.23949,4.985517 8.92665,4.814969 17.05794,13.884594 20.13149,22.454627 l 1.01773,2.83777 2.51066,0.30085 c 7.44611,0.89228 12.44005,6.16697 12.447,13.14676 0.007,7.352557 -5.74209,13.366867 -12.77817,13.366867 -1.65018,0 -2.04423,0.16639 -2.24907,0.94972 -0.43814,1.67546 -3.70113,8.1197 -5.43078,10.72554 -3.86954,5.82971 -10.38542,11.49742 -16.90435,14.70394 -3.24278,1.59504 -10.55429,3.97945 -12.20254,3.97945 -0.43226,0 -1.40284,0.30775 -2.15684,0.68389 -1.22564,0.61144 -1.40298,0.96741 -1.67362,3.35953 -1.56839,13.86269 -11.01242,27.11044 -23.98073,33.6393 -2.80073,1.41001 -3.48902,1.94814 -3.25887,2.54789 0.16047,0.41819 2.64459,6.0668 5.52027,12.55246 l 5.22852,11.79212 3.47659,0.029 c 2.73628,0.0228 4.0223,0.27887 6.03923,1.20226 3.40899,1.56068 6.40883,4.40519 7.94528,7.53387 1.10423,2.24855 1.25535,3.07441 1.25535,6.86084 0,3.78643 -0.15112,4.61229 -1.25535,6.86083 -2.16152,4.40151 -6.23785,7.47625 -11.29524,8.51989 -7.77701,1.60488 -16.35127,-3.95395 -17.94725,-11.63549 l -0.3545,-1.70621 -21.01771,0 -21.01771,0 -2.7505,6.27689 c -2.01318,4.59422 -3.05419,6.44232 -3.8833,6.89395 -1.44883,0.78918 -2.64078,0.77826 -4.14325,-0.0379 z m 71.0662,-11.07425 c 3.02047,-1.8417 2.99156,-6.37166 -0.0525,-8.22793 -2.20228,-1.34295 -4.16866,-1.11698 -5.9719,0.68626 -1.26297,1.26296 -1.54059,1.88353 -1.54059,3.44367 0,1.56013 0.27762,2.1807 1.54059,3.44366 1.81586,1.81587 3.77113,2.02824 6.02439,0.65434 z m -16.57765,-11.46084 c 0.29405,-0.56073 1.12997,-1.7791 1.85762,-2.7075 l 1.32299,-1.688 -5.90223,-13.26477 c -5.41315,-12.16559 -5.98817,-13.25341 -6.93921,-13.12766 -1.15164,0.15228 -12.29297,0.12674 -14.99312,-0.0344 l -1.72207,-0.10273 -6.77382,15.7574 c -3.72561,8.66656 -6.77383,15.85409 -6.77383,15.97228 0,0.11818 8.86253,0.21488 19.69453,0.21488 l 19.69452,0 0.53462,-1.0195 z m 70.98018,-109.99104 c 1.69679,-1.03454 3.15668,-3.21047 3.54996,-5.291117 0.72032,-3.81086 -1.92353,-7.43697 -6.1595,-8.44792 l -1.1328,-0.27035 0,7.45658 0,7.456587 1.1328,-0.002 c 0.62303,-8.7e-4 1.79732,-0.40687 2.60954,-0.90209 z m -95.04485,14.40498 c 0,-0.13762 0.32971,-1.03932 0.73269,-2.00378 1.20026,-2.87265 0.64651,-6.39163 -2.06018,-13.09194 -5.09245,-12.606177 -5.45343,-20.667835 -1.13709,-25.394981 0.96729,-1.059354 1.49483,-1.41537 1.29954,-0.877016 -1.68298,4.639414 -1.38471,7.20748 1.76508,15.19702 2.98738,7.577607 3.65106,10.393927 3.67969,15.614737 0.021,3.82118 -0.13552,4.85659 -0.99866,6.60822 -0.88167,1.78921 -3.28107,4.67613 -3.28107,3.94774 z m 14.04653,-0.45897 c 0,-0.14084 0.40334,-1.14491 0.89629,-2.23129 1.0972,-2.41801 1.20649,-7.06933 0.25246,-10.74553 -0.36504,-1.40664 -1.70653,-5.20825 -2.98111,-8.448017 -3.28575,-8.35189 -4.52435,-13.181557 -4.82725,-18.82283 -0.3022,-5.628295 0.37387,-8.619896 2.71613,-12.018729 1.95419,-2.835733 2.98174,-3.202633 1.6406,-0.585794 -0.66733,1.302069 -1.07547,3.055567 -1.19797,5.146729 -0.2214,3.779508 0.45373,6.448541 4.18347,16.538674 3.34643,9.05323 4.44082,14.246147 4.20162,19.937017 -0.14684,3.49357 -0.40905,4.77916 -1.39176,6.82346 -1.01915,2.1201 -3.49248,5.24059 -3.49248,4.40631 z M 37.516195,65.143307 C 30.424421,63.277128 23.987027,57.995244 20.818267,51.442655 15.79841,41.062224 17.801383,29.225498 25.931272,21.226989 c 3.309388,-3.255911 7.116359,-5.369349 11.854983,-6.581285 10.610582,-2.713728 21.661104,1.533447 27.77555,10.675299 10.069874,15.055723 2.33555,35.2731 -15.235889,39.826319 -3.378529,0.875466 -9.47482,0.873554 -12.809721,-0.0041 z"
     id="path4200"
     inkscape:connector-curvature="0" />
</svg>
