<?xml version="1.0" encoding="UTF-8" standalone="no"?>
<!-- Created with Inkscape (http://www.inkscape.org/) -->

<svg
   xmlns:dc="http://purl.org/dc/elements/1.1/"
   xmlns:cc="http://creativecommons.org/ns#"
   xmlns:rdf="http://www.w3.org/1999/02/22-rdf-syntax-ns#"
   xmlns:svg="http://www.w3.org/2000/svg"
   xmlns="http://www.w3.org/2000/svg"
   xmlns:sodipodi="http://sodipodi.sourceforge.net/DTD/sodipodi-0.dtd"
   xmlns:inkscape="http://www.inkscape.org/namespaces/inkscape"
   width="250"
   height="250"
   id="svg2"
   version="1.1"
   inkscape:version="0.91 r13725"
   sodipodi:docname="yoga.svg">
  <title
     id="title2866">Yoga</title>
  <defs
     id="defs4">
    <inkscape:perspective
       sodipodi:type="inkscape:persp3d"
       inkscape:vp_x="0 : 526.18109 : 1"
       inkscape:vp_y="0 : 1000 : 0"
       inkscape:vp_z="744.09448 : 526.18109 : 1"
       inkscape:persp3d-origin="372.04724 : 350.78739 : 1"
       id="perspective10" />
    <inkscape:perspective
       id="perspective2840"
       inkscape:persp3d-origin="0.5 : 0.33333333 : 1"
       inkscape:vp_z="1 : 0.5 : 1"
       inkscape:vp_y="0 : 1000 : 0"
       inkscape:vp_x="0 : 0.5 : 1"
       sodipodi:type="inkscape:persp3d" />
    <inkscape:perspective
       id="perspective2875"
       inkscape:persp3d-origin="0.5 : 0.33333333 : 1"
       inkscape:vp_z="1 : 0.5 : 1"
       inkscape:vp_y="0 : 1000 : 0"
       inkscape:vp_x="0 : 0.5 : 1"
       sodipodi:type="inkscape:persp3d" />
    <inkscape:perspective
       id="perspective2897"
       inkscape:persp3d-origin="0.5 : 0.33333333 : 1"
       inkscape:vp_z="1 : 0.5 : 1"
       inkscape:vp_y="0 : 1000 : 0"
       inkscape:vp_x="0 : 0.5 : 1"
       sodipodi:type="inkscape:persp3d" />
    <inkscape:perspective
       id="perspective2919"
       inkscape:persp3d-origin="0.5 : 0.33333333 : 1"
       inkscape:vp_z="1 : 0.5 : 1"
       inkscape:vp_y="0 : 1000 : 0"
       inkscape:vp_x="0 : 0.5 : 1"
       sodipodi:type="inkscape:persp3d" />
    <inkscape:perspective
       id="perspective2941"
       inkscape:persp3d-origin="0.5 : 0.33333333 : 1"
       inkscape:vp_z="1 : 0.5 : 1"
       inkscape:vp_y="0 : 1000 : 0"
       inkscape:vp_x="0 : 0.5 : 1"
       sodipodi:type="inkscape:persp3d" />
    <inkscape:perspective
       id="perspective2963"
       inkscape:persp3d-origin="0.5 : 0.33333333 : 1"
       inkscape:vp_z="1 : 0.5 : 1"
       inkscape:vp_y="0 : 1000 : 0"
       inkscape:vp_x="0 : 0.5 : 1"
       sodipodi:type="inkscape:persp3d" />
    <inkscape:perspective
       id="perspective2985"
       inkscape:persp3d-origin="0.5 : 0.33333333 : 1"
       inkscape:vp_z="1 : 0.5 : 1"
       inkscape:vp_y="0 : 1000 : 0"
       inkscape:vp_x="0 : 0.5 : 1"
       sodipodi:type="inkscape:persp3d" />
    <inkscape:perspective
       id="perspective3013"
       inkscape:persp3d-origin="0.5 : 0.33333333 : 1"
       inkscape:vp_z="1 : 0.5 : 1"
       inkscape:vp_y="0 : 1000 : 0"
       inkscape:vp_x="0 : 0.5 : 1"
       sodipodi:type="inkscape:persp3d" />
    <inkscape:perspective
       id="perspective3035"
       inkscape:persp3d-origin="0.5 : 0.33333333 : 1"
       inkscape:vp_z="1 : 0.5 : 1"
       inkscape:vp_y="0 : 1000 : 0"
       inkscape:vp_x="0 : 0.5 : 1"
       sodipodi:type="inkscape:persp3d" />
    <inkscape:perspective
       id="perspective3057"
       inkscape:persp3d-origin="0.5 : 0.33333333 : 1"
       inkscape:vp_z="1 : 0.5 : 1"
       inkscape:vp_y="0 : 1000 : 0"
       inkscape:vp_x="0 : 0.5 : 1"
       sodipodi:type="inkscape:persp3d" />
    <inkscape:perspective
       id="perspective3079"
       inkscape:persp3d-origin="0.5 : 0.33333333 : 1"
       inkscape:vp_z="1 : 0.5 : 1"
       inkscape:vp_y="0 : 1000 : 0"
       inkscape:vp_x="0 : 0.5 : 1"
       sodipodi:type="inkscape:persp3d" />
    <inkscape:perspective
       id="perspective3885"
       inkscape:persp3d-origin="0.5 : 0.33333333 : 1"
       inkscape:vp_z="1 : 0.5 : 1"
       inkscape:vp_y="0 : 1000 : 0"
       inkscape:vp_x="0 : 0.5 : 1"
       sodipodi:type="inkscape:persp3d" />
    <inkscape:perspective
       id="perspective3910"
       inkscape:persp3d-origin="0.5 : 0.33333333 : 1"
       inkscape:vp_z="1 : 0.5 : 1"
       inkscape:vp_y="0 : 1000 : 0"
       inkscape:vp_x="0 : 0.5 : 1"
       sodipodi:type="inkscape:persp3d" />
    <inkscape:perspective
       id="perspective3932"
       inkscape:persp3d-origin="0.5 : 0.33333333 : 1"
       inkscape:vp_z="1 : 0.5 : 1"
       inkscape:vp_y="0 : 1000 : 0"
       inkscape:vp_x="0 : 0.5 : 1"
       sodipodi:type="inkscape:persp3d" />
    <inkscape:perspective
       id="perspective3954"
       inkscape:persp3d-origin="0.5 : 0.33333333 : 1"
       inkscape:vp_z="1 : 0.5 : 1"
       inkscape:vp_y="0 : 1000 : 0"
       inkscape:vp_x="0 : 0.5 : 1"
       sodipodi:type="inkscape:persp3d" />
    <inkscape:perspective
       id="perspective3980"
       inkscape:persp3d-origin="0.5 : 0.33333333 : 1"
       inkscape:vp_z="1 : 0.5 : 1"
       inkscape:vp_y="0 : 1000 : 0"
       inkscape:vp_x="0 : 0.5 : 1"
       sodipodi:type="inkscape:persp3d" />
  </defs>
  <sodipodi:namedview
     id="base"
     pagecolor="#ffffff"
     bordercolor="#666666"
     borderopacity="1.0"
     inkscape:pageopacity="0.0"
     inkscape:pageshadow="2"
     inkscape:zoom="1.4460529"
     inkscape:cx="135.22619"
     inkscape:cy="84.16463"
     inkscape:document-units="px"
     inkscape:current-layer="layer1"
     showgrid="false"
     inkscape:window-width="1440"
     inkscape:window-height="852"
     inkscape:window-x="-7"
     inkscape:window-y="0"
     inkscape:window-maximized="0" />
  <metadata
     id="metadata7">
    <rdf:RDF>
      <cc:Work
         rdf:about="">
        <dc:format>image/svg+xml</dc:format>
        <dc:type
           rdf:resource="http://purl.org/dc/dcmitype/StillImage" />
        <dc:title>Yoga</dc:title>
        <dc:date>2012-09-19</dc:date>
        <dc:creator>
          <cc:Agent>
            <dc:title>Onsemeliot</dc:title>
          </cc:Agent>
        </dc:creator>
        <dc:rights>
          <cc:Agent>
            <dc:title>CC-SA</dc:title>
          </cc:Agent>
        </dc:rights>
        <dc:publisher>
          <cc:Agent>
            <dc:title>Onsemeliot</dc:title>
          </cc:Agent>
        </dc:publisher>
        <dc:subject>
          <rdf:Bag>
            <rdf:li>Yoga shape</rdf:li>
          </rdf:Bag>
        </dc:subject>
        <dc:description>A simple icon with a figure in a typical yoga position</dc:description>
        <cc:license
           rdf:resource="http://creativecommons.org/licenses/by-sa/3.0/" />
      </cc:Work>
      <cc:License
         rdf:about="http://creativecommons.org/licenses/by-sa/3.0/">
        <cc:permits
           rdf:resource="http://creativecommons.org/ns#Reproduction" />
        <cc:permits
           rdf:resource="http://creativecommons.org/ns#Distribution" />
        <cc:requires
           rdf:resource="http://creativecommons.org/ns#Notice" />
        <cc:requires
           rdf:resource="http://creativecommons.org/ns#Attribution" />
        <cc:permits
           rdf:resource="http://creativecommons.org/ns#DerivativeWorks" />
        <cc:requires
           rdf:resource="http://creativecommons.org/ns#ShareAlike" />
      </cc:License>
    </rdf:RDF>
  </metadata>
  <g
     inkscape:label="Layer 1"
     inkscape:groupmode="layer"
     id="layer1"
     transform="translate(-189.89345,-736.74575)">
    <path
       style="color:#000000;display:inline;overflow:visible;visibility:visible;fill:#000000;fill-opacity:1;fill-rule:nonzero;stroke:#ffcc4d;stroke-width:7.95;marker:none;enable-background:accumulate;stroke-opacity:1;stroke-miterlimit:4;stroke-dasharray:none"
       d="m 315.2909,751.97118 c -15.51726,0 -28.10756,12.59031 -28.10756,28.10757 0,15.51728 12.5903,28.08569 28.10756,28.08569 15.51729,0 28.08571,-12.56841 28.08571,-28.08569 0,-15.51726 -12.56842,-28.10757 -28.08571,-28.10757 z m -53.7415,71.23213 -34.12751,59.12663 -20.79611,0.17512 c -6.8751,0.0625 -12.36496,5.66825 -12.30254,12.54334 0.0625,6.87512 5.64634,12.34306 12.52144,12.28064 l 24.82399,-0.2189 c 5.68755,-0.28031 10.75222,-2.28602 14.14135,-7.00499 l 28.3046,-49.01315 4.203,66.45997 -61.18434,-8.80003 c -7.78963,-1.20205 -15.04079,4.09699 -16.24285,11.88662 l -0.87564,5.6259 c -1.20203,7.78963 4.11888,15.04077 11.90853,16.24284 l 90.9775,14.05382 2.23284,7.15824 c 2.46474,7.48656 10.46378,11.52742 17.95032,9.06269 l 94.61134,-31.12852 c 7.48655,-2.46473 11.52748,-10.48564 9.06273,-17.97217 l -1.79503,-5.40698 c -2.46475,-7.48655 -10.46378,-11.52749 -17.95033,-9.06274 l -55.16441,16.79011 4.61892,-76.92369 29.4648,51.02709 c 2.99906,4.86086 8.69279,6.75433 14.16326,7.00499 l 24.80208,0.2189 c 6.8751,0.0625 12.48094,-5.40552 12.54334,-12.28064 0.0625,-6.87509 -5.42743,-12.48092 -12.30253,-12.54334 l -20.818,-0.17512 -34.12751,-59.12663 c -6.04227,-10.46837 -101.4958,-12.38309 -108.64324,0 z"
       id="path2828"
       sodipodi:nodetypes="csssccccscccccccccccccccccccccscczz"
       inkscape:connector-curvature="0" />
    <path
       style="fill:#dbae51;fill-opacity:1;stroke:#dbae51;stroke-width:3.50471258;stroke-linejoin:miter;stroke-miterlimit:4;stroke-dasharray:none;stroke-opacity:1"
       d="m 123.27475,239.56497 c -6.17562,-2.29153 -9.84044,-6.19324 -11.93723,-12.70882 -0.84552,-2.6274 -1.58017,-3.72781 -2.64467,-3.96136 -0.81066,-0.17786 -20.923435,-3.29341 -44.695041,-6.92345 C 40.226203,212.34131 19.406344,208.86747 17.731456,208.2517 11.95927,206.12955 7.7227913,200.93619 6.5415606,194.53437 5.8047527,190.54115 7.5218471,180.97166 9.662376,177.14183 c 0.978215,-1.75021 1.778573,-3.26904 1.778573,-3.37517 0,-0.10613 -1.402163,-1.01468 -3.1159176,-2.019 -4.5432629,-2.66253 -7.242098,-7.63855 -7.2506572,-13.36853 -0.014925,-9.99132 6.1777587,-16.05179 16.4099928,-16.05961 2.571479,-0.002 7.706207,-0.20428 11.410509,-0.44959 l 6.735093,-0.446 16.36126,-28.42212 C 60.989923,97.369652 68.850848,84.001476 69.459954,83.294759 73.400812,78.722373 86.724246,75.662176 107.06386,74.657696 l 9.14504,-0.451631 -4.6172,-2.317197 C 95.892922,64.010251 89.341115,45.517608 96.733527,29.951286 105.99168,10.456245 131.77414,5.4003 146.92753,20.108232 c 16.39729,15.915256 12.30619,42.234897 -8.06487,51.884478 l -4.67378,2.213924 8.64422,0.511757 c 19.53417,1.156469 35.45409,4.515763 39.14548,8.260162 0.86815,0.880632 8.93699,14.360014 17.93075,29.954187 8.99376,15.59417 16.40732,28.41039 16.47458,28.48047 0.0673,0.0701 5.25149,0.34317 11.52049,0.60683 12.02507,0.50577 14.15553,0.99444 17.82525,4.0887 8.6253,7.27274 6.70922,21.57344 -3.52923,26.34039 -1.97415,0.91915 -4.32533,1.67422 -5.22485,1.67794 -1.60474,0.007 -1.61321,0.0408 -0.4502,1.81574 0.65191,0.99495 1.93247,4.00578 2.84568,6.69074 3.68134,10.82355 1.0321,19.77039 -7.15372,24.1591 -5.03865,2.70142 -98.79482,33.24801 -102.86921,33.51571 -1.90173,0.12494 -4.63474,-0.20958 -6.07337,-0.74339 z m 55.26558,-22.29327 c 26.19268,-8.60355 48.46981,-16.07548 49.50473,-16.60428 2.80165,-1.43156 4.6246,-3.67564 5.43714,-6.6932 0.59834,-2.22206 0.46289,-3.55836 -0.77317,-7.62782 -0.82422,-2.7136 -2.08346,-5.75519 -2.79831,-6.75909 -1.57599,-2.21328 -5.28203,-4.07041 -8.1228,-4.07041 -1.1505,0 -15.87121,4.18903 -32.71268,9.30896 -16.84147,5.11994 -30.72709,9.20276 -30.85691,9.07293 -0.2406,-0.24061 5.29073,-93.24548 5.55936,-93.47607 0.081,-0.0695 7.92711,13.42206 17.43575,29.98135 9.50864,16.55929 17.98746,30.96014 18.84183,32.00189 2.87647,3.50739 5.40644,3.98704 22.35062,4.23738 14.31498,0.21149 15.6633,0.12777 17.45071,-1.08361 3.96081,-2.68437 5.06205,-7.90441 2.54019,-12.04077 -2.27289,-3.72798 -4.61301,-4.28049 -18.12979,-4.28049 l -11.96809,0 -17.57395,-30.47686 c -13.0009,-22.546252 -18.05447,-30.725344 -19.42061,-31.431798 -2.65921,-1.375137 -14.14801,-3.564233 -24.1728,-4.605931 -12.7156,-1.321307 -46.51102,-1.120789 -57.051854,0.338507 -9.312951,1.289303 -15.918076,2.8539 -17.979978,4.259029 -0.760691,0.51839 -9.270421,14.661793 -18.91051,31.429783 l -17.527434,30.48727 -12.219473,0 c -10.513774,0 -12.548366,0.17639 -14.575634,1.26362 -2.55438,1.36993 -4.883406,4.99985 -4.883406,7.61107 0,2.6508 1.9330974,5.95502 4.333284,7.40683 2.073872,1.25443 3.341492,1.33603 17.450151,1.12348 17.450817,-0.26291 19.58318,-0.77454 22.945793,-5.50555 1.072259,-1.50861 9.106977,-15.21838 17.854928,-30.46614 8.747951,-15.24777 16.06816,-27.73291 16.267136,-27.74477 0.3559,-0.0212 5.682683,81.66884 5.344155,81.95638 -0.09549,0.0811 -15.255694,-2.01522 -33.689327,-4.65851 -21.270234,-3.05006 -34.390776,-4.64183 -35.910767,-4.35668 -5.242614,0.98352 -8.479677,6.72648 -8.638487,15.32577 -0.08856,4.79519 1.188499,7.21851 4.971665,9.4341 1.53881,0.9012 15.21049,3.27801 48.681117,8.46316 25.59776,3.96551 46.911541,7.2137 47.363951,7.21821 0.45242,0.005 1.60715,2.58041 2.56608,5.72424 1.7021,5.58029 4.33068,9.30812 7.33018,10.39557 3.20824,1.16315 8.84769,-0.42904 53.68721,-15.15755 z m 5.61949,-38.66011 c 9.40951,-2.86207 17.4194,-5.30248 17.79975,-5.42313 0.38034,-0.12066 -0.5827,-0.87256 -2.14009,-1.67088 -1.55739,-0.79833 -3.75015,-2.49765 -4.8728,-3.77628 -1.12265,-1.27862 -7.16143,-11.2294 -13.41951,-22.11283 -6.25809,-10.88344 -11.56304,-19.58038 -11.78879,-19.32652 -0.3671,0.4128 -3.46957,50.93317 -3.41513,55.61167 0.0122,1.04595 0.18103,1.90173 0.37524,1.90173 0.19422,0 8.05182,-2.34169 17.46133,-5.20376 z M 84.049904,172.92363 c -0.0035,-4.69165 -2.665089,-44.56324 -2.996847,-44.895 -0.152159,-0.15215 -5.154189,8.21432 -11.115631,18.59217 -8.186295,14.25091 -11.659613,19.64491 -14.192078,22.04002 l -3.353089,3.17122 13.928342,2.10382 c 19.139985,2.89103 17.732332,2.97139 17.729303,-1.01223 z M 136.0312,65.037062 c 5.32855,-2.623505 8.98602,-6.372858 11.54919,-11.839334 1.55648,-3.319498 1.81817,-4.794377 1.79387,-10.110288 -0.036,-7.882391 -2.00447,-12.419568 -7.61142,-17.544002 -5.35177,-4.891219 -10.01534,-6.526535 -17.60126,-6.172007 -5.05563,0.236275 -6.49015,0.601604 -10.25274,2.611084 -18.588421,9.92747 -16.387976,37.320704 3.56727,44.408829 5.6471,2.005854 12.78915,1.484577 18.55509,-1.354282 z"
       id="path6852"
       inkscape:connector-curvature="0"
       transform="translate(189.89345,736.74575)" />
  </g>
</svg>
