<?xml version="1.0" encoding="UTF-8" standalone="no"?>
<!-- Created with Inkscape (http://www.inkscape.org/) -->

<svg
   xmlns:dc="http://purl.org/dc/elements/1.1/"
   xmlns:cc="http://creativecommons.org/ns#"
   xmlns:rdf="http://www.w3.org/1999/02/22-rdf-syntax-ns#"
   xmlns:svg="http://www.w3.org/2000/svg"
   xmlns="http://www.w3.org/2000/svg"
   xmlns:sodipodi="http://sodipodi.sourceforge.net/DTD/sodipodi-0.dtd"
   xmlns:inkscape="http://www.inkscape.org/namespaces/inkscape"
   id="svg4136"
   version="1.1"
   inkscape:version="0.91 r13725"
   width="100"
   height="95"
   viewBox="0 0 100 95"
   sodipodi:docname="facebookicon.svg">
  <metadata
     id="metadata4142">
    <rdf:RDF>
      <cc:Work
         rdf:about="">
        <dc:format>image/svg+xml</dc:format>
        <dc:type
           rdf:resource="http://purl.org/dc/dcmitype/StillImage" />
        <dc:title />
      </cc:Work>
    </rdf:RDF>
  </metadata>
  <defs
     id="defs4140" />
  <sodipodi:namedview
     pagecolor="#ffffff"
     bordercolor="#666666"
     borderopacity="1"
     objecttolerance="10"
     gridtolerance="10"
     guidetolerance="10"
     inkscape:pageopacity="0"
     inkscape:pageshadow="2"
     inkscape:window-width="1366"
     inkscape:window-height="706"
     id="namedview4138"
     showgrid="false"
     inkscape:zoom="5.6736842"
     inkscape:cx="-1.9944341"
     inkscape:cy="47.5"
     inkscape:window-x="-8"
     inkscape:window-y="-8"
     inkscape:window-maximized="1"
     inkscape:current-layer="svg4136" />
  <path
     style="fill:#dbae51;fill-opacity:1"
     d="m 38,71.5 0,-23.5 -4.5,0 -4.5,0 0,-7.5 0,-7.5 4.383693,0 4.383692,0 0.392402,-9.76968 C 38.831238,6.5131399 42.944539,2.7614907 61.25,2.1702551 L 72,1.8230481 72,9.9115241 72,18 66.5,18 c -7.565738,0 -9.713883,2.148145 -9.300508,9.300508 L 57.5,32.5 l 7.324741,0.295318 7.324741,0.295318 -0.686684,6.704682 c -0.377676,3.687575 -0.97381,7.017474 -1.324741,7.399775 -0.350931,0.382301 -3.338057,0.832301 -6.638057,1 L 57.5,48.5 57.23157,71.75 56.963139,95 47.48157,95 38,95 38,71.5 Z"
     id="path4146"
     inkscape:connector-curvature="0" />
</svg>
