<?xml version="1.0" encoding="UTF-8" standalone="no"?>
<!-- Created with Inkscape (http://www.inkscape.org/) -->

<svg
   xmlns:dc="http://purl.org/dc/elements/1.1/"
   xmlns:cc="http://creativecommons.org/ns#"
   xmlns:rdf="http://www.w3.org/1999/02/22-rdf-syntax-ns#"
   xmlns:svg="http://www.w3.org/2000/svg"
   xmlns="http://www.w3.org/2000/svg"
   xmlns:sodipodi="http://sodipodi.sourceforge.net/DTD/sodipodi-0.dtd"
   xmlns:inkscape="http://www.inkscape.org/namespaces/inkscape"
   id="svg4148"
   version="1.1"
   inkscape:version="0.91 r13725"
   width="100"
   height="95"
   viewBox="0 0 100 95"
   sodipodi:docname="instagramicon.svg">
  <metadata
     id="metadata4154">
    <rdf:RDF>
      <cc:Work
         rdf:about="">
        <dc:format>image/svg+xml</dc:format>
        <dc:type
           rdf:resource="http://purl.org/dc/dcmitype/StillImage" />
        <dc:title />
      </cc:Work>
    </rdf:RDF>
  </metadata>
  <defs
     id="defs4152" />
  <sodipodi:namedview
     pagecolor="#ffffff"
     bordercolor="#666666"
     borderopacity="1"
     objecttolerance="10"
     gridtolerance="10"
     guidetolerance="10"
     inkscape:pageopacity="0"
     inkscape:pageshadow="2"
     inkscape:window-width="1366"
     inkscape:window-height="706"
     id="namedview4150"
     showgrid="false"
     inkscape:zoom="2.4842105"
     inkscape:cx="-9.3750005"
     inkscape:cy="47.499999"
     inkscape:window-x="-8"
     inkscape:window-y="-8"
     inkscape:window-maximized="1"
     inkscape:current-layer="svg4148" />
  <path
     style="fill:#dbae51;fill-opacity:1"
     d="M 22.081368,93.449943 C 14.956875,91.483948 10.841108,88.843754 7.7464846,84.254362 2.899402,77.066035 2.5,74.268015 2.5,47.5 2.5,19.346422 3.2535975,15.134682 9.4287402,8.7763406 16.817371,1.1685099 24.889977,-0.36551057 54.374393,0.23541129 77.05114,0.69758604 80.945949,1.4331842 87.603716,6.5113107 89.386298,7.870952 92.1172,11.574624 93.672387,14.741693 L 96.5,20.5 96.813582,45.275375 c 0.25355,20.032456 0.01927,25.787775 -1.223806,30.063801 -2.274092,7.822602 -6.450832,12.95473 -13.266965,16.301652 L 76.5,94.5 52,94.722604 C 32.796736,94.897082 26.328528,94.621942 22.081368,93.449943 Z m 55.227385,-8.805588 c 4.408339,-1.841922 9.426162,-7.816311 10.391923,-12.372974 1.042875,-4.920506 1.03712,-44.648112 -0.0072,-49.581046 C 86.637953,17.704314 80.822192,11.322701 76.151543,10.025395 74.143194,9.4675626 61.925,9.0185271 49,9.0275389 28.336569,9.0419462 25.01718,9.2656359 21.5,10.880731 11.940522,15.270461 11,18.534333 11,47.318658 c 0,14.794218 0.417283,24.631451 1.136065,26.782119 1.214035,3.632517 5.090903,8.357274 8.363935,10.193165 5.008072,2.809099 50.256298,3.088203 56.808753,0.350413 z M 43.358195,71.103429 C 27.275376,66.974596 20.133868,46.778496 29.960101,33.213776 40.171576,19.117245 62.356844,20.648674 70.999593,36.046696 73.01614,39.639398 73.493526,41.852751 73.469894,47.5 c -0.04324,10.332021 -4.349372,17.283595 -13.702292,22.120178 -3.567006,1.84457 -12.02425,2.609023 -16.409407,1.483251 z M 57.75914,61.005402 C 70.803418,53.052209 65.195831,32 50.033095,32 41.240834,32 35.04431,37.483462 34.227226,45.987017 c -0.92197,9.595124 5.733819,17.016338 15.254909,17.009245 3.24147,-0.0024 6.171647,-0.707207 8.277005,-1.99086 z M 72.185376,27.316178 c -0.723043,-0.28926 -1.747499,-1.664474 -2.276568,-3.056032 -2.192929,-5.767839 5.928671,-10.185664 9.459049,-5.145344 3.124497,4.460845 -1.975602,10.284435 -7.182481,8.201376 z"
     id="path4698"
     inkscape:connector-curvature="0" />
</svg>
