<?xml version="1.0" encoding="UTF-8" standalone="no"?>
<!-- Created with Inkscape (http://www.inkscape.org/) -->

<svg
   xmlns:dc="http://purl.org/dc/elements/1.1/"
   xmlns:cc="http://creativecommons.org/ns#"
   xmlns:rdf="http://www.w3.org/1999/02/22-rdf-syntax-ns#"
   xmlns:svg="http://www.w3.org/2000/svg"
   xmlns="http://www.w3.org/2000/svg"
   xmlns:sodipodi="http://sodipodi.sourceforge.net/DTD/sodipodi-0.dtd"
   xmlns:inkscape="http://www.inkscape.org/namespaces/inkscape"
   id="svg7144"
   version="1.1"
   inkscape:version="0.91 r13725"
   width="250"
   height="250"
   viewBox="0 0 250 250"
   sodipodi:docname="bulls.svg">
  <metadata
     id="metadata7150">
    <rdf:RDF>
      <cc:Work
         rdf:about="">
        <dc:format>image/svg+xml</dc:format>
        <dc:type
           rdf:resource="http://purl.org/dc/dcmitype/StillImage" />
        <dc:title></dc:title>
      </cc:Work>
    </rdf:RDF>
  </metadata>
  <defs
     id="defs7148" />
  <sodipodi:namedview
     pagecolor="#ffffff"
     bordercolor="#666666"
     borderopacity="1"
     objecttolerance="10"
     gridtolerance="10"
     guidetolerance="10"
     inkscape:pageopacity="0"
     inkscape:pageshadow="2"
     inkscape:window-width="1448"
     inkscape:window-height="864"
     id="namedview7146"
     showgrid="false"
     fit-margin-top="-0.1"
     inkscape:zoom="2.6074563"
     inkscape:cx="104.05911"
     inkscape:cy="141.92879"
     inkscape:window-x="0"
     inkscape:window-y="0"
     inkscape:window-maximized="0"
     inkscape:current-layer="svg7144" />
  <path
     style="fill:#000000"
     d="m 115.6818,233.90225 c -5.05688,-0.55598 -9.40784,-1.47534 -14.44201,-3.05158 -2.473778,-0.77459 -2.884539,-1.00107 -4.077887,-2.2485 -1.832278,-1.91529 -4.617422,-6.17726 -6.063878,-9.27917 -2.57308,-5.51797 -4.210462,-12.30365 -4.486515,-18.59313 l -0.171017,-3.89645 1.673128,-1.54903 c 0.920231,-0.85196 1.941425,-2.10323 2.269339,-2.78061 0.583578,-1.20551 0.585471,-1.24748 0.08941,-1.98185 -1.622141,-2.40139 -8.315166,-14.64488 -11.101815,-20.30842 -8.714849,-17.71195 -14.420003,-30.71052 -17.193127,-39.17271 -0.570189,-1.73992 -1.08299,-3.24621 -1.139561,-3.34731 -0.05661,-0.1011 -1.160975,0.24285 -2.454243,0.76434 -2.743678,1.10633 -7.473678,2.30535 -12.427853,3.15035 -8.135048,1.38753 -16.198128,-0.40321 -23.447686,-5.20755 -2.972039,-1.96959 -7.821971,-7.18438 -7.23118,-7.77517 0.550731,-0.55073 9.878537,-4.21495 12.865069,-5.05374 7.950429,-2.23297 15.803739,-4.0049 22.557061,-5.08951 2.118163,-0.34019 4.007399,-0.70138 4.1983,-0.80265 0.19091,-0.10126 -1.418346,-0.33973 -3.576116,-0.52992 -13.091033,-1.15386 -19.49004,-2.69018 -27.549794,-6.61437 C 11.690011,94.5556 5.2626274,85.568717 3.7120169,72.208185 3.1964429,67.765836 3.497865,60.285127 4.4006812,55.117031 6.3896365,43.731434 9.6235953,34.069564 14.897244,23.757225 c 3.394105,-6.637 3.114697,-7.066853 3.129123,4.814 0.02509,20.65859 1.388653,27.835685 6.603246,34.755971 4.078666,5.412801 10.078411,8.724119 18.291923,10.095499 5.844245,0.975793 12.989327,0.748809 39.337302,-1.249684 25.074042,-1.901869 36.991312,-2.331554 53.435232,-1.926664 18.86084,0.464396 37.53455,1.193911 56.10231,2.191715 20.59707,1.106859 32.59718,-4.880184 37.22542,-18.572338 2.86844,-8.485966 3.57581,-19.449204 2.3243,-36.022856 l -0.14541,-1.925596 2.9005,5.712379 c 7.7283,15.220456 11.392,26.902829 12.29587,39.207606 1.18126,16.080961 -4.99928,28.177653 -18.49983,36.208363 -6.99565,4.16133 -15.68347,6.96443 -28.6704,9.25046 -1.02805,0.18096 -1.81454,0.38368 -1.74774,0.45048 0.23531,0.2353 3.12872,0.92713 8.98112,2.14743 6.78047,1.4138 8.24647,1.80584 16.91779,4.52411 6.77149,2.12272 9.97858,3.27035 10.21696,3.65605 0.14846,0.2402 -1.09517,1.70337 -3.99392,4.69903 -4.38931,4.53604 -12.12583,8.22428 -18.93622,9.02747 -5.27295,0.62188 -14.5686,-1.02873 -21.02501,-3.73336 -0.56656,-0.23734 -1.42405,1.51694 -4.22807,8.64997 -3.88409,9.88057 -12.93319,29.77636 -21.58251,47.45235 -4.32173,8.83199 -4.24673,8.54187 -2.91273,11.26848 0.37976,0.77621 1.3765,2.11393 2.21498,2.97274 1.71835,1.76 1.67236,1.40072 0.78291,6.11515 -1.67567,8.88171 -6.50051,19.75611 -11.06097,24.92962 -1.31805,1.49523 -3.02897,2.21717 -8.32038,3.51087 -6.37864,1.55952 -10.30378,1.99776 -18.81059,2.10014 -4.23633,0.051 -8.75462,-0.0231 -10.04065,-0.16436 z m 15.83845,-1.6465 c 3.81251,-0.37024 10.2137,-1.64243 13.59576,-2.70206 5.15616,-1.61547 4.92835,-1.48227 6.77249,-3.95986 4.92503,-6.61679 7.96842,-13.77305 9.59918,-22.57163 0.24765,-1.33617 0.38652,-2.59551 0.30861,-2.79854 -0.2741,-0.7143 -6.13814,-4.32955 -10.49084,-6.46771 -6.50711,-3.19647 -11.66025,-4.77719 -18.98094,-5.8224 -3.60007,-0.514 -12.98564,-0.43207 -17.05533,0.14889 -9.0402,1.29049 -17.957076,4.44643 -24.596374,8.70536 l -2.250953,1.44392 0.177048,1.95942 c 0.889195,9.84097 3.164431,16.98779 7.490518,23.52874 2.691018,4.06878 3.196539,4.45808 7.626141,5.8731 3.8424,1.22742 8.33539,2.19884 12.24133,2.64668 3.00758,0.34482 12.08174,0.3542 15.56336,0.016 z m -32.309762,-7.03351 c -0.18124,-0.3978 -0.293955,-0.75841 -0.250463,-0.80136 0.276803,-0.27337 4.707835,-1.86447 7.113155,-2.55419 7.15648,-2.05213 11.42199,-2.63092 19.51173,-2.64753 6.58298,-0.0135 9.03018,0.20801 13.81892,1.25093 4.77755,1.04047 11.48899,3.51251 11.48899,4.23172 0,0.18323 -0.25395,0.56299 -0.56434,0.84387 -0.5526,0.50011 -0.62555,0.48889 -3.50734,-0.53875 -8.21935,-2.93102 -12.14367,-3.71888 -19.58572,-3.93219 -8.26093,-0.23678 -15.06083,0.79392 -23.17193,3.51228 -2.2294,0.74716 -4.159202,1.35847 -4.288452,1.35847 -0.12925,0 -0.3833,-0.32548 -0.56455,-0.72325 z m 15.741602,-11.25326 c -0.0893,-0.23258 0.0384,-1.13818 0.28371,-2.01242 0.7331,-2.61273 0.62638,-2.76024 -0.93821,-1.29675 -1.98415,1.85595 -4.00846,2.7089 -6.77536,2.85484 -2.70328,0.14258 -4.57069,-0.36232 -6.48677,-1.75384 -4.723826,-3.43063 -4.649676,-9.78115 0.14697,-12.58675 2.77553,-1.62342 6.4087,-1.9944 9.72516,-0.99303 4.51921,1.36453 7.21318,4.53562 7.46197,8.78353 0.13217,2.25655 -0.48432,4.65535 -1.66487,6.47822 -0.64126,0.99017 -1.47815,1.24143 -1.7526,0.5262 z m 17.14557,-1.73795 c -2.43459,-4.47314 -1.83093,-9.14739 1.60044,-12.39264 1.70036,-1.60814 3.1133,-2.3663 5.42613,-2.91158 3.40134,-0.80192 6.7529,-0.2418 9.46338,1.58155 2.01253,1.35383 2.94364,2.86509 3.07947,4.99817 0.16188,2.54219 -0.50085,4.32271 -2.26048,6.07315 -4.04914,4.02801 -10.49509,4.14529 -14.37877,0.26162 -0.79201,-0.79201 -1.48764,-1.29907 -1.54585,-1.12681 -0.0582,0.17226 0.0584,0.93215 0.25912,1.68864 0.20071,0.75649 0.36641,1.77774 0.36821,2.26946 0.003,0.75499 -0.0969,0.89403 -0.64073,0.89403 -0.48703,0 -0.82118,-0.32554 -1.37092,-1.33559 z m 23.33629,-23.03188 c -1.64898,-6.5806 -2.10398,-10.17608 -2.26279,-17.88111 -0.11348,-5.5061 -0.0481,-7.64563 0.32358,-10.59082 0.54911,-4.35099 1.76206,-10.32733 2.8521,-14.05259 l 0.77817,-2.65939 -1.39681,0.55954 c -4.82179,1.93155 -8.83868,2.92167 -12.8112,3.15783 -4.68686,0.27863 -9.44691,-1.03083 -13.02266,-3.58244 -1.69173,-1.20719 -4.58452,-4.14449 -4.58452,-4.65505 0,-0.13123 -1.09456,0.85284 -2.43237,2.18683 -1.33779,1.33399 -3.13134,2.84202 -3.98565,3.35118 -1.98186,1.18114 -5.518,2.3989 -8.16155,2.81063 -4.1012,0.63876 -11.642882,-0.19041 -15.47681,-1.7016 -0.728094,-0.28699 -1.428263,-0.5218 -1.55594,-0.5218 -0.127668,0 0.119224,1.02126 0.548665,2.26946 2.4531,7.13022 3.567739,13.47997 3.757698,21.40645 0.189824,7.92076 -0.506493,13.53773 -2.504524,20.20314 -0.362356,1.20883 -0.63432,2.22674 -0.604369,2.26202 0.02994,0.0353 1.284101,-0.47681 2.787001,-1.13798 5.079819,-2.23479 11.564569,-3.99179 17.999829,-4.87693 3.38058,-0.46498 13.63753,-0.47801 17.21351,-0.0219 7.29883,0.93103 13.89997,2.82393 19.79206,5.67541 1.9633,0.95015 3.60032,1.70513 3.63783,1.67774 0.0375,-0.0274 -0.36355,-1.7728 -0.89125,-3.87866 z m -34.39566,-11.40524 c -10.08237,-1.31849 -16.75451,-7.39495 -20.48675,-18.65778 -0.963372,-2.90716 -2.1659,-8.69018 -1.868829,-8.98725 0.06678,-0.0668 0.492647,-0.19566 0.946377,-0.2864 l 0.824972,-0.165 0.48568,2.98075 c 0.51169,3.14038 1.93759,7.78851 3.10509,10.12193 2.14202,4.28116 6.10459,8.79258 9.51209,10.82963 3.62846,2.16913 8.76705,3.14108 13.51334,2.55602 3.12772,-0.38554 6.98418,-1.56885 9.243,-2.83611 2.24426,-1.25908 5.21342,-3.58699 6.48863,-5.08726 3.62309,-4.26257 6.99384,-10.89248 8.50462,-16.72773 0.60817,-2.34901 0.74545,-2.52509 1.64803,-2.11385 0.83254,0.37934 0.83062,0.3934 -0.6874,5.01574 -3.28799,10.01179 -8.69421,17.24255 -15.56393,20.81657 -4.4078,2.29319 -10.27764,3.24523 -15.66492,2.54074 z m -27.949012,10.6711 c 0.994987,-5.77741 1.190118,-14.71961 0.445708,-20.42514 -0.800218,-6.13323 -2.81375,-13.52169 -4.698739,-17.24154 l -0.686266,-1.35429 -1.004188,2.00814 c -1.079751,2.15923 -2.982521,4.24247 -4.557671,4.98993 -1.308172,0.62077 -4.566964,0.5904 -6.449943,-0.0601 -0.794312,-0.2744 -1.444201,-0.4708 -1.444201,-0.43642 0,0.33643 7.894649,16.46603 9.760209,19.94114 2.578959,4.804 8.057399,14.23717 8.298462,14.28888 0.02229,0.005 0.173768,-0.76498 0.336629,-1.71059 z m 70.022412,-7.86892 c 4.44484,-8.89135 7.92138,-16.32875 10.14822,-21.71022 l 1.51132,-3.65228 -1.00454,0.21371 c -1.93131,0.41087 -4.7714,0.22504 -6.1626,-0.40325 -1.5327,-0.69218 -4.0221,-2.95648 -4.76309,-4.33242 -0.28582,-0.53075 -0.58834,-0.96498 -0.67226,-0.96498 -0.23332,0 -2.15563,7.06268 -3.18209,11.69116 -2.28652,10.31036 -2.76577,19.93534 -1.32471,26.60494 l 0.46505,2.1524 0.52278,-0.85966 c 0.28753,-0.4728 2.29539,-4.40553 4.46192,-8.7394 z M 81.788402,154.17214 c 2.099617,-1.08224 3.580759,-3.28099 4.318752,-6.4112 0.224065,-0.95037 0.409221,-1.80875 0.411459,-1.9075 0.0025,-0.0988 -0.944009,0.36072 -2.102763,1.02106 -4.229815,2.41047 -8.346253,3.17333 -11.441167,2.1203 -0.889262,-0.30258 -1.581744,-0.41689 -1.581744,-0.26111 0,0.52593 1.701001,2.92589 2.687905,3.7924 2.341378,2.05576 5.573499,2.74602 7.707558,1.64605 z m 91.867518,-1.67658 c 1.53944,-0.68095 3.48393,-2.65806 4.5616,-4.6381 0.42263,-0.77652 0.72205,-1.41184 0.66537,-1.41184 -0.0567,0 -0.63101,0.25508 -1.27631,0.56686 -1.61788,0.78168 -5.08054,1.63383 -6.63893,1.63383 -1.90327,0 -4.08165,-0.46927 -5.56404,-1.19861 -0.71866,-0.35357 -1.30666,-0.56006 -1.30666,-0.45885 0,0.10121 0.19241,0.74869 0.42757,1.43884 0.95692,2.80843 4.02845,5.06585 6.51808,4.79048 0.71852,-0.0795 1.89451,-0.40465 2.61332,-0.72261 z M 80.692334,146.3352 c 1.369656,-0.69405 3.629651,-2.49138 3.629651,-2.88659 0,-0.10016 -1.021254,-0.32277 -2.269457,-0.49468 -2.59727,-0.35771 -4.296993,-0.88484 -6.731353,-2.08755 -4.516121,-2.23123 -7.515564,-6.81112 -8.390031,-12.81084 l -0.313624,-2.15174 -1.560599,-0.32233 c -2.096783,-0.43309 -2.60971,-1.03408 -2.585243,-3.02913 0.03617,-2.95091 1.775942,-5.63267 4.21164,-6.49203 3.313201,-1.16896 9.037767,0.45284 13.30036,3.76809 0.866822,0.67417 4.147229,3.58989 7.289783,6.47938 8.249034,7.58473 10.123374,8.92096 14.574949,10.39063 4.05932,1.34016 8.21227,1.21315 11.576,-0.35403 2.7183,-1.26648 6.29653,-5.15492 8.17117,-8.87956 0.80197,-1.59341 2.06372,-5.24598 2.06372,-5.97413 0,-0.16049 -1.52104,-0.35411 -3.64489,-0.464 -6.66159,-0.34468 -23.639754,-2.08497 -24.842135,-2.54636 -0.5661,-0.21723 -0.980242,-1.06269 -0.778314,-1.58891 0.296053,-0.7715 1.368377,-0.77829 8.016299,-0.0507 8.04006,0.87991 11.87702,1.1963 17.46661,1.44023 l 4.3326,0.18908 0,-2.92474 c 0,-2.81457 -0.0233,-2.9292 -0.61894,-3.0432 -0.34042,-0.0652 -3.10009,-0.25496 -6.1326,-0.42179 -8.41975,-0.4632 -20.097472,-1.98891 -22.329021,-2.91731 -1.059817,-0.44091 -1.483388,-1.59297 -0.827005,-2.24935 0.380919,-0.38092 0.872651,-0.35128 4.918434,0.29647 8.417032,1.34761 18.266492,2.37 22.857222,2.37263 l 2.407,0.001 0,-3.67038 0,-3.67038 -4.88278,-0.17159 c -7.73223,-0.27174 -23.787564,-2.192825 -24.707576,-2.956365 -0.231323,-0.19197 -0.383661,-0.59481 -0.338536,-0.8952 0.152598,-1.01575 0.810494,-1.152075 3.847761,-0.79728 10.868301,1.26955 19.619561,1.983 24.323591,1.983 l 1.75754,0 0,-3.679975 c 0,-3.85622 0.18126,-4.4627 1.27065,-4.25147 0.66345,0.12865 0.86451,1.00422 1.07366,4.6756 l 0.18279,3.208695 2.65643,-0.12972 c 7.5945,-0.37085 16.01375,-1.20415 22.24966,-2.202185 3.09639,-0.49557 3.65153,-0.35788 3.65153,0.905675 0,0.8723 -0.51467,1.06299 -4.67646,1.73266 -6.97937,1.123055 -12.29879,1.701655 -21.80057,2.371335 l -2.407,0.16964 0.002,1.6946 c 8.4e-4,0.93203 0.0808,2.53017 0.17732,3.55142 l 0.17537,1.85683 2.64231,-0.004 c 5.51637,-0.009 15.01884,-0.80241 20.24781,-1.69085 5.1445,-0.87408 5.7454,-0.91032 6.27713,-0.3786 1.16178,1.16179 0.20152,1.85597 -3.38872,2.44976 -5.87793,0.97214 -19.40416,2.48982 -24.20758,2.71615 l -1.51297,0.0713 0,2.79743 c 0,1.53859 0.0885,2.88561 0.19667,2.99337 0.44941,0.44777 17.53723,-0.87012 25.1644,-1.94078 3.54544,-0.49769 4.81993,-0.51742 5.25601,-0.0813 0.51687,0.51686 0.38872,1.27067 -0.28884,1.69904 -1.20741,0.76338 -21.84249,2.91057 -28.05878,2.91968 -1.02125,0.002 -1.85604,0.0336 -1.85507,0.0715 0.0129,0.50354 1.77116,6.59312 2.15287,7.45605 1.27068,2.87259 3.57865,5.25072 6.53362,6.73225 2.08056,1.04312 3.94199,1.42385 6.93643,1.41877 4.08721,-0.007 7.70038,-1.20477 11.22865,-3.72249 0.97212,-0.6937 4.22476,-3.65211 7.22809,-6.57427 3.00332,-2.92216 6.3739,-5.99551 7.49016,-6.82967 4.21558,-3.15022 8.04918,-4.48562 12.26434,-4.27218 3.88358,0.19666 5.79706,1.54236 6.4132,4.51025 0.59709,2.87613 -0.15405,4.17336 -2.75487,4.75773 -1.36403,0.30648 -1.53829,0.51593 -1.78215,2.14218 -0.34014,2.26815 -1.57244,6.01047 -2.68492,8.15371 -1.48912,2.86882 -3.64625,5.00821 -6.40718,6.3545 -2.14026,1.04366 -6.68458,2.36147 -8.14319,2.36147 -1.04974,0 -0.99597,0.34033 0.21096,1.33518 1.34706,1.11037 4.00226,1.81238 6.12638,1.61977 2.1566,-0.19555 5.296,-1.70944 7.10609,-3.42671 1.60239,-1.52022 2.63236,-3.44845 4.99109,-9.34397 0.89694,-2.24187 2.17545,-5.2735 2.84113,-6.73697 l 1.21032,-2.66084 2.46018,1.09793 c 4.33322,1.93383 8.59321,2.96342 14.67353,3.54643 4.00374,0.38391 6.18946,0.13415 10.06528,-1.1501 5.03126,-1.66711 11.4337,-5.58494 13.68888,-8.37659 0.56737,-0.70233 1.03157,-1.37363 1.03157,-1.49176 0,-0.11813 -1.51641,-0.71732 -3.3698,-1.33153 -1.8534,-0.6142 -4.79337,-1.6094 -6.53329,-2.21156 -10.15197,-3.51344 -21.31179,-5.53945 -35.81932,-6.50282 -3.05497,-0.20287 -2.83543,0.0303 -3.09857,-3.29114 -0.30834,-3.89219 -1.49722,-12.90761 -2.2188,-16.825395 -0.79395,-4.310661 -1.1347,-5.728461 -2.51134,-10.448881 l -0.97457,-3.341773 -1.41488,-0.164096 c -1.59617,-0.185122 -17.84817,-0.843641 -31.18227,-1.263486 -11.21387,-0.353087 -23.75423,-0.352179 -31.71434,0.0025 -10.03252,0.446742 -32.970695,1.620879 -35.279624,1.805859 L 74.14422,74.430489 72.66,79.033056 c -2.716284,8.423213 -4.606958,16.98353 -5.576477,25.248274 l -0.491227,4.18752 -1.106985,0.13143 c -0.608845,0.0724 -3.087606,0.3347 -5.508366,0.58308 -10.399534,1.06699 -24.113624,3.95521 -34.110672,7.18377 -3.93577,1.27106 -7.564868,2.77 -7.564868,3.12454 0,0.10883 0.972248,1.12675 2.160549,2.26204 6.372244,6.08801 13.879349,8.87697 22.458733,8.34366 7.300911,-0.45385 11.483062,-1.36642 16.019083,-3.49546 1.245117,-0.58441 2.433485,-1.06257 2.640821,-1.06257 0.494474,0 1.435682,2.27515 3.606185,8.71712 2.079944,6.1732 2.68105,7.44835 4.4261,9.38926 3.074989,3.42014 7.51235,4.49737 11.079534,2.68975 z m 90.871846,-6.56343 c 4.82004,-1.75147 7.6697,-5.89699 8.12905,-11.82569 0.18044,-2.32895 0.0606,-2.48567 -1.39329,-1.82321 -0.57748,0.26312 -0.70399,0.5577 -0.85652,1.99438 -0.21423,2.01781 -0.83367,4.33453 -1.515,5.66613 -1.29141,2.52399 -4.26711,4.40077 -7.90912,4.98829 -2.05758,0.33193 -2.49584,0.6415 -2.15725,1.52387 0.2438,0.63534 3.27968,0.35648 5.70213,-0.52377 z m -88.136226,0.44857 c 0.487232,-0.13057 0.618946,-0.36393 0.618946,-1.09658 0,-0.5119 -0.03095,-0.93166 -0.0688,-0.93281 -1.53482,-0.0466 -4.893835,-0.66287 -6.126251,-1.12397 -3.37699,-1.2635 -5.71936,-4.60144 -6.101617,-8.69497 -0.141773,-1.51815 -0.243452,-1.76257 -0.790333,-1.89983 -1.062105,-0.26657 -1.767675,0.11682 -1.767675,0.96051 0,3.09372 1.570238,6.81691 3.826625,9.0733 2.308332,2.30832 4.80283,3.31744 9.51505,3.84918 0.151294,0.0171 0.55361,-0.0436 0.894022,-0.13483 z M 194.67728,105.02743 c 14.32174,-1.41738 27.44827,-5.933805 36.49684,-12.55743 4.58883,-3.359063 8.90571,-8.951739 11.0338,-14.29468 2.54212,-6.382488 3.42992,-14.859672 2.19005,-20.91179 l -0.32107,-1.567169 -2.64704,-1.804732 c -1.45587,-0.992598 -2.7925,-1.803791 -2.97029,-1.802638 -0.17779,8.41e-4 -1.60136,0.727134 -3.16349,1.613293 -1.56213,0.886159 -3.1103,1.696443 -3.44039,1.800636 -0.3703,0.116886 -1.62313,1.738573 -3.27124,4.234375 -4.67633,7.081538 -8.75744,10.34176 -15.65972,12.509849 -5.51062,1.730953 -12.98164,2.175391 -26.71011,1.588944 -4.32163,-0.184618 -7.91313,-0.280047 -7.98109,-0.212079 -0.068,0.06796 0.36446,2.028301 0.96096,4.356289 1.76869,6.902749 3.78933,17.552252 4.43067,23.351212 0.15895,1.43732 0.36431,3.02684 0.45634,3.53227 l 0.16732,0.91897 3.19696,-0.17802 c 1.75834,-0.0979 5.01252,-0.35769 7.2315,-0.5773 z M 64.635091,104.83885 c 0.07141,-0.34042 0.388094,-2.2282 0.703803,-4.19506 1.100568,-6.85656 3.197813,-15.37333 5.664934,-23.004897 0.54038,-1.671572 0.940038,-3.081692 0.888135,-3.133604 -0.0519,-0.0519 -2.692153,0.166762 -5.867198,0.485928 -4.486321,0.45099 -7.73454,0.584361 -14.575562,0.598499 -8.186876,0.01691 -8.978118,-0.02447 -11.309142,-0.591383 -8.282508,-2.014365 -13.681327,-5.470441 -17.679334,-11.317478 -0.762294,-1.114841 -1.579819,-2.600306 -1.816721,-3.30103 -0.644144,-1.905285 -1.999554,-3.564409 -5.002729,-6.123737 -1.487269,-1.267465 -2.898598,-2.455547 -3.13628,-2.640182 -0.368213,-0.286028 -0.910141,0.194719 -3.6627563,3.249253 -3.1387074,3.482975 -3.238836,3.633394 -3.5200241,5.288212 -0.4785781,2.816473 -0.3832773,10.391485 0.1702457,13.53197 1.4598675,8.282792 5.4743087,15.691925 10.8599317,20.043299 6.544667,5.287855 14.422224,8.69321 23.982344,10.3672 2.513515,0.44012 4.11272,0.63151 9.876573,1.18196 0.529547,0.0506 3.962325,0.11176 7.628404,0.13597 l 6.665597,0.044 z M 13.031318,48.759683 c 0.553397,0.440484 1.315649,1.135094 1.693893,1.543584 0.378243,0.408489 1.260309,1.224064 1.960144,1.812395 l 1.272433,1.069683 -0.375394,-1.790838 c -0.930552,-4.439296 -1.248038,-8.204833 -1.400424,-16.60976 -0.179359,-9.89273 0.07492,-9.575818 -2.601377,-3.241987 -2.143142,5.072045 -4.1487417,11.120193 -5.62188,16.953537 -0.6660491,2.637432 -1.2109998,4.894903 -1.2109998,5.0166 0,0.121696 1.1874225,-1.078187 2.6387161,-2.666416 l 2.6387157,-2.887688 z m 224.211532,0.980906 1.42256,-0.71451 2.29206,1.639493 2.29206,1.639493 -0.25272,-1.138559 c -0.46381,-2.089591 -3.55825,-12.098652 -4.79997,-15.525635 -1.23298,-3.402878 -2.85829,-7.295251 -3.83791,-9.191232 l -0.52765,-1.021246 0.0934,5.972796 c 0.0994,6.356028 -0.25037,12.466652 -1.01441,17.721826 l -0.46835,3.221363 1.68918,-0.944639 c 0.92905,-0.519555 2.32933,-1.266169 3.11173,-1.65915 z"
     id="path7154"
     inkscape:connector-curvature="0"
     sodipodi:nodetypes="ccssscssssscsssssssssssssssssssscsssssssssssssssssssccsssssssscssssccccsssscsssscsssssssssssssssssssssscssscsssssssssssscsssscccsscscsssssssssssssscssssscssscsssssscsssscssssssssssssssscsssscsssssssssssssscssssssscccssssscssscsssssccscssssscsssssccsssssssssssssssssscssssssssssscsssscssccsssssssssccsssssssssscssssscssssscscssssssssscssssscsssssssssssssscsssscsssssscsscccssscsscss" />
  <path
     style="fill:#ffffff;fill-opacity:1;stroke:none;stroke-width:1;stroke-linejoin:miter;stroke-miterlimit:4;stroke-dasharray:none;stroke-opacity:1"
     d="m 73.517079,146.22238 c -2.321604,-1.0542 -4.588188,-3.27321 -5.64737,-5.52882 -0.511234,-1.0887 -1.897439,-4.73486 -3.080462,-8.10258 -1.183019,-3.36771 -2.400113,-6.37228 -2.704655,-6.67682 -0.482601,-0.4826 -1.06263,-0.351 -4.516636,1.02475 -6.612797,2.63392 -15.123512,3.67489 -21.308339,2.60628 -5.998384,-1.0364 -10.534513,-3.29477 -15.194451,-7.56476 l -2.604984,-2.38699 1.290625,-0.66213 c 2.308166,-1.18416 8.813012,-3.29036 15.083747,-4.88396 9.949629,-2.52852 14.3187,-3.2881 30.307646,-5.26914 l 1.54398,-0.1913 0.860271,-6.22152 c 1.023668,-7.403221 2.520779,-14.098648 4.91688,-21.989434 l 1.760157,-5.796514 4.083497,-0.249834 c 34.959325,-2.138866 58.488695,-2.311573 91.455855,-0.671293 4.16361,0.20716 5.77062,0.423662 6.00913,0.809571 0.46533,0.752931 2.56823,8.846407 3.24045,12.471616 0.7101,3.829555 1.99221,13.220378 2.3417,17.151948 0.14482,1.62903 0.45919,3.11662 0.69861,3.30575 0.23942,0.18914 3.61119,0.63203 7.49282,0.98421 8.26974,0.75032 16.10078,2.01841 22.49795,3.64313 4.40489,1.11873 16.3101,4.95692 17.58055,5.6679 0.52334,0.29287 0.38482,0.58515 -0.92174,1.94489 -4.01046,4.17369 -12.24908,8.27194 -18.27366,9.09011 -4.19255,0.56937 -13.47473,-1.11377 -19.00516,-3.44621 l -3.00496,-1.26733 -0.53278,1.0303 c -0.29303,0.56666 -1.60546,3.61533 -2.91652,6.77482 -4.17449,10.06009 -4.79642,10.97151 -8.88105,13.01497 -1.96992,0.98551 -3.20199,1.35404 -4.48598,1.34183 -2.05103,-0.0195 -4.36728,-0.7621 -5.45913,-1.75021 -0.74502,-0.67424 -0.70853,-0.70011 1.65533,-1.17373 8.52517,-1.70812 12.61371,-5.58105 14.9121,-14.12567 1.05934,-3.93825 1.15032,-4.10389 2.48955,-4.53229 0.61773,-0.19761 1.528,-0.72563 2.02282,-1.17338 0.77982,-0.70563 0.87763,-1.08447 0.73416,-2.84345 -0.31667,-3.88253 -2.46101,-5.44765 -7.465,-5.4486 -6.14557,-0.001 -9.21571,1.74328 -18.52207,10.52419 -7.32462,6.91105 -9.82235,8.73418 -13.49397,9.8494 -3.64831,1.10813 -9.26411,0.91161 -11.81806,-0.41359 -4.31987,-2.24149 -6.0912,-4.47472 -7.73148,-9.74756 -0.96447,-3.10041 -1.08281,-3.84529 -0.65406,-4.11692 0.28791,-0.1824 1.83326,-0.33428 3.43412,-0.33751 5.11644,-0.0103 23.62452,-1.98902 25.58828,-2.73564 0.636,-0.24181 0.85793,-0.58789 0.77073,-1.20188 -0.17259,-1.2151 -1.61793,-1.25978 -10.21255,-0.31565 -7.01627,0.77074 -16.67524,1.55803 -19.15299,1.56113 l -1.24642,0.002 0,-2.87637 0,-2.87636 1.86799,0 c 3.80634,0 22.67467,-2.24134 25.67932,-3.05041 1.70974,-0.46038 2.16862,-1.15186 1.43248,-2.15859 -0.47615,-0.65117 -0.75963,-0.6443 -6.39755,0.15497 -7.58915,1.0759 -13.68812,1.59499 -18.78816,1.59911 l -4.06799,0.003 -0.21672,-3.16189 c -0.1192,-1.73903 -0.15684,-3.22176 -0.0837,-3.29495 0.0732,-0.0732 3.20939,-0.38368 6.96933,-0.68999 7.40044,-0.60288 19.42252,-2.214815 21.00462,-2.816327 1.12163,-0.426442 1.34217,-1.811112 0.34916,-2.192167 -0.34723,-0.133246 -3.84202,0.137215 -7.76619,0.601024 -8.35416,0.987401 -15.08873,1.575007 -18.10397,1.579611 l -2.14825,0.0033 -0.2236,-3.164003 c -0.27655,-3.913215 -0.51317,-4.581364 -1.56908,-4.430706 -0.76102,0.108583 -0.82123,0.372979 -0.92348,4.055038 l -0.10938,3.938882 -2.95875,-0.19161 c -1.6273,-0.105385 -4.42568,-0.281649 -6.21862,-0.391697 -1.79293,-0.110049 -6.90828,-0.570845 -11.36743,-1.023992 -4.459163,-0.453146 -8.385403,-0.717285 -8.724983,-0.586975 -0.822411,0.315589 -0.788017,1.676938 0.05373,2.126637 1.384111,0.739455 15.253286,2.368545 25.120266,2.950655 l 4.12279,0.24322 0,3.41474 0,3.41473 -2.58873,-0.001 c -3.59235,-0.002 -10.2004,-0.63839 -18.11831,-1.74537 -7.323145,-1.02383 -9.419372,-1.14187 -9.784563,-0.55098 -0.458086,0.7412 0.233227,1.85282 1.406655,2.26188 2.813585,0.98083 14.476968,2.48584 22.565188,2.91177 6.58538,0.34679 6.13625,0.10354 6.13625,3.32335 l 0,2.73308 -5.27334,-0.26545 c -2.90034,-0.146 -8.68582,-0.61144 -12.85663,-1.03431 -8.748362,-0.88698 -11.523845,-0.86107 -11.708231,0.10932 -0.244169,1.28499 1.48674,1.76773 9.320121,2.5993 4.21867,0.44784 10.34533,1.02279 13.6148,1.27767 l 5.94449,0.46341 -0.0631,1.30603 c -0.18742,3.87807 -5.98828,11.75796 -9.95464,13.5224 -4.74004,2.10861 -11.63439,1.00241 -16.847765,-2.70324 -1.465847,-1.04192 -4.995029,-4.00403 -7.842632,-6.58245 -9.506898,-8.60825 -10.88528,-9.57914 -15.507152,-10.92275 -5.517899,-1.6041 -9.681796,0.58775 -10.415861,5.48286 -0.364742,2.43226 0.332769,3.62187 2.393394,4.08196 l 1.573319,0.35129 0.577582,2.93173 c 1.11017,5.63508 3.777977,9.64044 7.875891,11.82461 2.002534,1.06734 3.730551,1.62589 7.894514,2.55175 l 1.103209,0.2453 -0.879236,0.93591 c -2.232969,2.37689 -6.355677,3.13707 -9.433554,1.73945 z"
     id="path7156"
     inkscape:connector-curvature="0" />
  <path
     style="fill:#ffffff;fill-opacity:1;stroke:none;stroke-width:1;stroke-linejoin:miter;stroke-miterlimit:4;stroke-dasharray:none;stroke-opacity:1"
     d="m 73.54455,146.23468 c -2.080568,-0.94499 -4.210985,-2.86243 -5.325033,-4.79269 -0.500695,-0.86754 -1.811091,-4.16607 -2.911991,-7.33008 -2.115295,-6.07939 -3.234056,-8.6291 -3.786277,-8.6291 -0.184563,0 -1.579585,0.52938 -3.100055,1.1764 -3.871209,1.64735 -7.573627,2.52277 -12.87981,3.04539 -6.867959,0.67644 -11.561351,-0.0124 -16.843078,-2.47206 -2.923104,-1.36126 -6.438352,-3.88125 -8.767096,-6.2849 l -1.480301,-1.52792 1.787729,-0.7908 c 7.342161,-3.24779 25.144891,-7.47309 38.182122,-9.06215 2.63667,-0.32137 5.595062,-0.68217 6.574208,-0.80177 l 1.780264,-0.21745 0.264373,-2.55844 c 0.816915,-7.905577 2.917146,-17.634382 5.830322,-27.007556 1.314266,-4.228657 1.46167,-4.506417 2.392431,-4.50809 0.545532,-9.8e-4 3.753187,-0.169844 7.128124,-0.375254 17.30648,-1.05333 31.728168,-1.55205 44.870608,-1.551683 18.48466,5.18e-4 47.71958,1.005035 48.37678,1.662237 0.14724,0.147235 0.85078,2.381556 1.56344,4.965157 1.51338,5.486478 2.85804,13.101278 3.7416,21.188629 0.34567,3.164 0.7168,6.05435 0.82473,6.42299 0.25214,0.86115 0.64019,0.9385 8.19895,1.63433 7.21228,0.66393 13.95993,1.69728 20.02915,3.06733 3.93462,0.88818 18.6838,5.56206 19.78714,6.27036 0.37947,0.24359 0.0731,0.75768 -1.22556,2.05631 -3.49189,3.49189 -9.97046,6.98764 -15.5798,8.40667 -3.05127,0.77189 -3.54972,0.79502 -7.78906,0.36152 -5.39106,-0.55127 -9.7007,-1.58674 -13.80051,-3.31581 l -3.0092,-1.26913 -1.15207,2.56455 c -0.63364,1.4105 -1.91072,4.4153 -2.83795,6.67734 -3.39432,8.28063 -4.35334,9.62027 -8.30055,11.59498 -3.75773,1.87991 -7.34694,1.76084 -9.77089,-0.32415 l -1.02314,-0.88007 1.69366,-0.23237 c 2.7706,-0.38011 7.11586,-2.01909 9.07056,-3.42128 3.42884,-2.45966 5.82303,-6.68796 7.13487,-12.60063 0.41824,-1.88509 0.60835,-2.15242 1.98797,-2.79538 2.36563,-1.10248 2.86788,-1.71054 2.86721,-3.47129 -7.7e-4,-1.90418 -0.97543,-3.93206 -2.38755,-4.96728 -1.62265,-1.18957 -6.73523,-1.34594 -10.14492,-0.31027 -3.55327,1.07927 -6.32083,3.09956 -13.79962,10.07357 -3.48339,3.24829 -7.28578,6.55375 -8.44975,7.34546 -3.23713,2.20185 -6.64829,3.09053 -11.16636,2.90905 -3.39827,-0.13649 -3.93533,-0.26743 -6.21105,-1.51429 -3.62298,-1.98503 -5.41549,-4.35641 -6.94858,-9.19257 -1.44617,-4.56198 -1.44879,-4.55726 2.53469,-4.56599 5.33056,-0.0117 25.15578,-2.18991 26.28533,-2.888 0.20581,-0.1272 0.37419,-0.56295 0.37419,-0.96835 0,-1.10381 -1.55188,-1.31568 -5.92341,-0.80873 -6.21653,0.72092 -15.00381,1.51032 -20.05977,1.80206 l -4.69806,0.27109 0,-2.92564 0,-2.92564 2.01345,-1.4e-4 c 2.33941,-1.4e-4 17.31813,-1.65951 22.27435,-2.46758 3.62042,-0.59028 5.35635,-1.39257 5.00338,-2.31239 -0.36909,-0.96182 -1.55182,-1.04575 -5.61045,-0.39812 -5.98676,0.95531 -14.54928,1.70996 -19.5011,1.71872 l -4.44946,0.008 -0.24203,-3.13862 c -0.13312,-1.72623 -0.17518,-3.20547 -0.0935,-3.28718 0.0817,-0.0817 2.96951,-0.39019 6.41732,-0.68551 6.86963,-0.58841 10.63656,-1.02653 16.93996,-1.970253 4.43181,-0.663515 5.96016,-1.389164 5.49253,-2.607806 -0.30301,-0.789623 -0.61016,-0.775613 -11.67563,0.532549 -3.64862,0.43134 -8.92814,0.899396 -11.73228,1.040123 l -5.09843,0.255869 -0.25237,-3.283241 c -0.29817,-3.87903 -0.49118,-4.497651 -1.40335,-4.497651 -0.96615,0 -1.15055,0.742605 -1.15055,4.633554 0,1.88115 -0.12943,3.415769 -0.28763,3.410265 -3.7659,-0.131032 -14.05049,-0.922877 -20.29823,-1.562827 -4.466879,-0.457539 -8.393119,-0.727697 -8.724975,-0.600353 -0.945826,0.362948 -0.733815,1.759064 0.328462,2.162941 2.058573,0.78267 15.011933,2.29304 24.859583,2.89864 l 4.12279,0.25354 0,3.47439 0,3.47439 -5.27334,-0.25261 c -2.90033,-0.13893 -8.55239,-0.6861 -12.56013,-1.21592 -11.377413,-1.5041 -12.399409,-1.56711 -12.700281,-0.78304 -0.430178,1.12102 1.018088,2.09669 4.050979,2.72907 3.575032,0.74541 14.197272,1.95294 19.963012,2.26938 6.59073,0.36172 6.13625,0.11485 6.13625,3.33315 l 0,2.73308 -5.27334,-0.26778 c -2.90034,-0.14728 -8.63869,-0.60274 -12.75189,-1.01214 -8.25578,-0.82172 -10.664891,-0.90546 -11.465476,-0.39854 -0.737251,0.46683 -0.259356,1.50248 0.896004,1.94175 1.174367,0.44649 12.782522,1.74011 21.250932,2.36821 4.5821,0.33985 6.32469,0.60492 6.47023,0.9842 0.65001,1.69389 -3.54989,9.21525 -6.71966,12.03387 -3.88387,3.4536 -8.67427,4.29224 -14.37148,2.51594 -3.930836,-1.22558 -6.733395,-3.15079 -13.51051,-9.28105 -7.327402,-6.62803 -9.706295,-8.52327 -12.311547,-9.8085 -3.160294,-1.55904 -6.82472,-2.17773 -9.013796,-1.52187 -2.925859,0.87661 -4.93665,3.73717 -4.943331,7.03241 -0.0027,1.34747 1.12976,2.47853 2.794336,2.79081 1.284236,0.24092 1.315961,0.29496 1.975657,3.36489 1.656623,7.7092 6.073878,12.24089 13.324473,13.66968 3.689259,0.727 3.617304,0.67859 2.607016,1.75399 -2.233571,2.37753 -6.358994,3.14926 -9.414988,1.76123 z"
     id="path7158"
     inkscape:connector-curvature="0" />
  <path
     style="fill:#ffffff;fill-opacity:1;stroke:none;stroke-width:1;stroke-linejoin:miter;stroke-miterlimit:4;stroke-dasharray:none;stroke-opacity:1"
     d="m 73.073923,145.96872 c -1.093733,-0.54503 -2.675209,-1.77098 -3.514387,-2.72434 -1.51993,-1.72674 -1.909532,-2.60542 -5.352826,-12.07243 -2.320756,-6.3807 -1.920174,-6.08796 -6.045279,-4.41783 -4.151144,1.68067 -7.067765,2.37728 -12.396684,2.96086 -10.331294,1.13141 -19.055872,-1.78449 -25.64306,-8.57033 l -1.673339,-1.7238 1.789009,-0.79136 c 5.02707,-2.22371 17.909053,-5.6876 28.020241,-7.53448 4.142075,-0.75658 16.770004,-2.47444 18.268188,-2.48514 0.133628,-9.6e-4 0.363389,-1.16667 0.510578,-2.59047 0.821034,-7.942077 2.88042,-17.58438 5.651826,-26.462573 1.497103,-4.795969 1.641896,-5.081681 2.576151,-5.083363 0.544439,-9.81e-4 3.751204,-0.17254 7.126141,-0.381244 16.753029,-1.035997 31.696118,-1.546393 45.253018,-1.54566 19.0057,0.001 47.3151,0.982931 47.99693,1.66476 0.55627,0.556277 2.89562,9.890139 3.76679,15.029275 0.50059,2.95307 1.2176,8.109821 1.59335,11.459445 0.37777,3.36758 0.89197,6.29901 1.1502,6.55725 0.26837,0.26837 2.72329,0.66537 5.77136,0.93332 15.26651,1.34208 26.79744,3.89651 40.30496,8.9287 l 2.01828,0.75191 -0.86774,1.10256 c -2.21987,2.82063 -9.06936,6.9551 -14.67429,8.85764 -5.19723,1.76417 -14.97808,0.80984 -22.3917,-2.18476 -1.81711,-0.73399 -3.46048,-1.37314 -3.65194,-1.42034 -0.19145,-0.0472 -1.83208,3.36583 -3.64583,7.5845 -3.68491,8.57084 -4.5527,10.15222 -6.30425,11.48819 -2.18665,1.66784 -5.29238,2.88648 -7.34353,2.88147 -2.02157,-0.005 -4.62773,-0.96776 -5.51206,-2.03638 -0.46668,-0.56395 -0.41458,-0.63606 0.4596,-0.63606 1.52332,0 6.74706,-1.78159 8.94718,-3.0515 3.52724,-2.03592 6.00935,-5.92153 7.55281,-11.82348 0.87078,-3.32975 0.88053,-3.34517 2.65847,-4.20639 2.20323,-1.06722 2.73665,-1.99081 2.43228,-4.21145 -0.5214,-3.80397 -3.1071,-5.32755 -8.47335,-4.99276 -2.52642,0.15762 -3.79046,0.45974 -5.73959,1.37185 -3.28965,1.53941 -4.9886,2.87105 -12.23154,9.58711 -7.13512,6.61608 -9.37458,8.22436 -12.97468,9.31786 -3.83575,1.16507 -9.25388,0.92004 -12.10076,-0.54725 -2.5865,-1.3331 -4.5144,-3.0442 -5.65095,-5.01551 -1.10767,-1.9212 -3.00117,-7.84625 -2.7318,-8.54821 0.13688,-0.3567 1.02527,-0.50815 2.98734,-0.50924 4.43499,-0.002 17.32781,-1.25195 24.2006,-2.34534 2.7903,-0.44391 3.51178,-1.086 2.43274,-2.16504 -0.55265,-0.55265 -1.09037,-0.56772 -5.13402,-0.14391 -9.07292,0.95093 -15.74384,1.54436 -20.33674,1.8091 l -4.69806,0.2708 0,-2.9307 0,-2.93069 1.68485,0 c 3.99183,0 23.4085,-2.38236 25.80954,-3.16674 1.01516,-0.33163 1.49712,-0.73048 1.57927,-1.30695 0.17657,-1.23898 -0.85157,-1.37209 -5.33712,-0.69101 -6.36078,0.96581 -14.74382,1.69668 -19.55861,1.70519 l -4.45117,0.008 -0.2601,-3.11885 c -0.14305,-1.71536 -0.18092,-3.19802 -0.0841,-3.29479 0.0968,-0.0968 3.07976,-0.4195 6.62885,-0.71715 3.54908,-0.29766 9.54794,-0.97806 13.3308,-1.51202 8.20382,-1.157974 9.64351,-1.693115 8.67546,-3.224741 -0.30283,-0.479143 -1.34939,-0.437757 -7.75995,0.306866 -9.32843,1.08355 -14.76445,1.559872 -17.99023,1.576361 l -2.52648,0.01291 -0.34988,-3.510143 c -0.26892,-2.697863 -0.50772,-3.607541 -1.03195,-3.931034 -1.08259,-0.668043 -1.41486,0.331818 -1.42139,4.277174 -0.005,3.122864 -0.0862,3.546838 -0.67703,3.541831 -2.21588,-0.01878 -12.96942,-0.859332 -19.94403,-1.558933 -4.483017,-0.449676 -8.409257,-0.718467 -8.724983,-0.597312 -0.902212,0.346211 -0.692241,1.752464 0.31907,2.136964 1.985939,0.755052 14.739953,2.227802 25.281823,2.919372 l 3.73927,0.2453 0,3.41585 0,3.41585 -2.88727,0 c -3.40144,0 -12.03086,-0.85146 -19.48325,-1.92239 -2.917237,-0.41922 -5.87581,-0.76222 -6.574606,-0.76222 -1.977544,0 -2.137505,1.49391 -0.26328,2.45889 1.881922,0.96895 13.635566,2.54781 23.072156,3.09927 6.16184,0.36009 5.75274,0.12349 5.75274,3.32713 l 0,2.73443 -5.41258,-0.26791 c -2.97692,-0.14734 -8.71527,-0.60117 -12.7519,-1.00849 -8.538954,-0.86163 -10.664052,-0.92067 -11.271567,-0.31316 -0.924867,0.92487 0.1742,1.77077 2.87204,2.21048 3.055247,0.49797 15.853777,1.78862 21.514287,2.16958 2.85522,0.19215 4.02054,0.41692 4.16913,0.80415 0.64397,1.67815 -3.423,9.04771 -6.61867,11.99338 -2.85189,2.62878 -4.69037,3.28359 -9.18367,3.27095 -6.70541,-0.0189 -9.280794,-1.44445 -20.134564,-11.1454 -7.564323,-6.76087 -9.60619,-8.25496 -12.829987,-9.38804 -6.355861,-2.2339 -10.411837,-0.73874 -11.769858,4.33874 -0.710927,2.65809 -0.203121,3.78736 2.02436,4.50184 l 1.773464,0.56885 0.631113,2.93692 c 1.637796,7.62158 6.217773,12.30433 13.459386,13.76144 3.569966,0.71832 3.489501,0.66235 2.486634,1.72985 -2.421248,2.5773 -6.481758,3.19148 -9.885615,1.49527 z"
     id="path7160"
     inkscape:connector-curvature="0" />
  <path
     style="fill:#ffffff;fill-opacity:1;stroke:none;stroke-width:1;stroke-linejoin:miter;stroke-miterlimit:4;stroke-dasharray:none;stroke-opacity:1"
     d="m 73.54455,146.23468 c -2.080599,-0.945 -4.211012,-2.86246 -5.324983,-4.79269 -0.500668,-0.86754 -1.772283,-3.99349 -2.825804,-6.94656 -2.603066,-7.2965 -3.123535,-8.54293 -3.647041,-8.73402 -0.247279,-0.0903 -2.201943,0.49761 -4.343701,1.30637 -5.090069,1.92208 -9.855731,2.74784 -16.048702,2.78078 -4.071884,0.0217 -5.534649,-0.13091 -7.980697,-0.83238 -5.012618,-1.4375 -9.721371,-4.2345 -13.252208,-7.87181 -1.97791,-2.03755 -2.202861,-1.80626 3.782947,-3.88953 10.276468,-3.57656 22.15765,-6.19185 35.836724,-7.88839 3.362853,-0.41708 6.316057,-0.75832 6.562684,-0.75832 0.272975,0 0.547215,-1.01282 0.700955,-2.58873 0.719636,-7.376671 3.17786,-18.767259 5.826663,-26.998787 0.770514,-2.394485 1.43079,-4.38875 1.467277,-4.431701 0.08248,-0.09709 18.633283,-1.118938 29.934826,-1.648914 8.82878,-0.414019 36.75667,-0.533584 44.31342,-0.189715 2.42574,0.110382 9.07015,0.377084 14.76535,0.592669 5.69521,0.215586 10.81947,0.483761 11.38726,0.595945 1.17183,0.23153 1.54726,1.139285 3.15625,7.631387 1.2287,4.957688 1.91968,9.056318 3.06182,18.16154 0.51078,4.071986 1.01782,7.492726 1.12675,7.601656 0.10893,0.10893 1.54769,0.34527 3.19724,0.5252 1.64956,0.17993 5.58792,0.60948 8.75192,0.95456 11.68313,1.27421 22.29568,3.87436 35.40519,8.67452 l 0.88877,0.32543 -0.79346,1.11432 c -1.86725,2.62231 -9.22217,7.04999 -14.83452,8.9304 -5.18523,1.73731 -15.00134,0.76035 -22.52865,-2.24219 -2.19752,-0.87656 -3.52824,-1.2234 -3.76923,-0.98241 -0.20488,0.20488 -1.71761,3.49033 -3.36162,7.30102 -1.64402,3.81068 -3.4586,7.72961 -4.0324,8.70872 -3.03617,5.18084 -11.04787,7.20037 -14.864,3.74681 -0.64547,-0.58413 -0.47703,-0.67642 2.70087,-1.47974 8.13568,-2.05657 11.68045,-5.69553 14.01818,-14.39067 0.84544,-3.14458 0.91129,-3.24951 2.5366,-4.04162 0.91774,-0.44727 1.89838,-1.12744 2.1792,-1.51148 1.24481,-1.70237 -0.0802,-5.79688 -2.23671,-6.91208 -1.69094,-0.87442 -5.86993,-1.1416 -8.4279,-0.53883 -4.3505,1.02518 -6.76955,2.70502 -15.45798,10.7344 -7.08314,6.54586 -9.33659,8.15778 -12.93063,9.24944 -3.83575,1.16507 -9.25388,0.92004 -12.10076,-0.54725 -2.5865,-1.3331 -4.5144,-3.0442 -5.65095,-5.01551 -1.05934,-1.83739 -3.00594,-7.83382 -2.75519,-8.48727 0.1112,-0.28977 1.90205,-0.53084 5.09668,-0.68606 2.70889,-0.13163 7.60027,-0.51516 10.86974,-0.85229 12.66907,-1.3064 15.25147,-1.9684 13.70627,-3.5136 -0.60855,-0.60855 -1.15863,-0.59585 -8.99892,0.20779 -9.73482,0.99783 -16.80727,1.5763 -19.37682,1.58486 l -1.8217,0.006 0,-2.87637 0,-2.87636 1.53056,0 c 4.48636,0 25.41228,-2.68242 26.82529,-3.43864 0.91385,-0.48908 1.02177,-1.2619 0.26402,-1.89077 -0.39816,-0.33045 -1.87759,-0.25184 -6.04037,0.32092 -7.71824,1.06197 -13.61701,1.55401 -18.64847,1.55553 -4.27516,0.001 -4.31455,-0.007 -4.31455,-0.90122 0,-0.49639 -0.1096,-1.95114 -0.24356,-3.23278 l -0.24356,-2.33026 1.29823,-0.19353 c 0.71403,-0.10644 4.4047,-0.46572 8.20151,-0.79839 12.04394,-1.05528 19.75105,-2.459239 19.75105,-3.597927 0,-0.195869 -0.25578,-0.568403 -0.5684,-0.827853 -0.45247,-0.375516 -1.9582,-0.308175 -7.38267,0.330176 -8.87548,1.044467 -15.02121,1.578758 -18.17851,1.580385 l -2.54337,0.0013 -0.26908,-3.230293 c -0.15045,-1.806154 -0.50861,-3.539229 -0.81239,-3.931034 -0.52449,-0.676466 -0.56324,-0.674952 -1.11858,0.04371 -0.4127,0.534069 -0.57528,1.711027 -0.57528,4.164709 l 0,3.420254 -4.31455,-0.259482 c -2.373,-0.142715 -8.83142,-0.679052 -14.35203,-1.19186 -5.52062,-0.512807 -10.309772,-0.827893 -10.64256,-0.70019 -0.901043,0.345763 -0.734689,1.65434 0.257841,2.028233 1.911277,0.71999 14.235959,2.12985 25.695539,2.93939 l 3.35576,0.23706 0,3.41721 0,3.41721 -2.97224,-0.01 c -3.81939,-0.0127 -8.70896,-0.48132 -18.56774,-1.77947 -6.547115,-0.8621 -8.02951,-0.95697 -8.525161,-0.54561 -0.985117,0.81757 -0.07209,1.86744 2.173578,2.49935 3.457205,0.97283 12.974443,2.13288 22.330593,2.72187 5.48862,0.34553 5.17746,0.14509 5.17746,3.33503 l 0,2.71795 -4.88983,-0.24109 c -2.6894,-0.1326 -9.142,-0.62777 -14.33912,-1.10038 -7.742944,-0.70411 -9.556789,-0.77008 -10.04449,-0.36532 -0.828969,0.68798 -0.410435,1.48083 1.023081,1.93805 1.539136,0.49092 9.018369,1.34117 18.854229,2.14338 4.21867,0.34407 7.9049,0.70234 8.19162,0.79616 1.29351,0.42323 -1.12354,6.28437 -4.13113,10.01765 -3.62875,4.5043 -7.0342,6.10714 -12.27349,5.77673 -5.98826,-0.37764 -8.973753,-2.12192 -19.208364,-11.22252 -3.691337,-3.28233 -7.574432,-6.54191 -8.6291,-7.2435 -4.571551,-3.04113 -10.100633,-3.98379 -12.955573,-2.20883 -1.594995,0.99165 -2.811959,3.02126 -3.175781,5.29649 -0.302429,1.89127 0.809356,3.44242 2.724928,3.80178 0.729128,0.13679 1.328682,0.35893 1.332344,0.49366 0.0038,0.13472 0.245025,1.36674 0.536362,2.7378 0.784654,3.69271 2.245814,6.65389 4.415058,8.94754 2.262542,2.39231 4.926648,3.83883 8.656724,4.7003 4.050638,0.9355 3.876031,0.82045 2.87015,1.89116 -2.233571,2.37753 -6.358994,3.14926 -9.414988,1.76123 z"
     id="path7162"
     inkscape:connector-curvature="0" />
  <path
     style="fill:#dbae51;fill-opacity:1;stroke:none;stroke-width:1;stroke-linejoin:miter;stroke-miterlimit:4;stroke-dasharray:none;stroke-opacity:1"
     d="m 73.377866,146.16253 c -1.925639,-0.87065 -3.881089,-2.60387 -5.03279,-4.46083 -0.419934,-0.67708 -1.882992,-4.29266 -3.251241,-8.0346 -1.368246,-3.74195 -2.67394,-7.02791 -2.901537,-7.30215 -0.605793,-0.72994 -1.187088,-0.63664 -5.060775,0.8123 -4.287354,1.60367 -8.546396,2.43933 -13.965037,2.74006 -8.768004,0.48661 -15.773573,-2.03334 -22.093705,-7.94725 l -2.729395,-2.55396 1.826608,-0.79028 c 8.120883,-3.51345 23.919241,-7.27156 38.088018,-9.06037 4.202716,-0.53059 7.828334,-1.03291 8.056925,-1.11627 0.228594,-0.0833 0.629495,-1.93695 0.890891,-4.11909 0.928054,-7.747471 3.07041,-17.361782 5.669775,-25.444415 0.746199,-2.320269 1.381964,-4.249201 1.412814,-4.286516 0.103679,-0.125407 13.369072,-0.883113 25.743783,-1.47046 14.29983,-0.67872 38.52228,-0.755072 54.65096,-0.172265 16.51622,0.596809 20.71281,0.903083 21.1067,1.540394 0.61081,0.988324 2.64386,8.948915 3.42258,13.401463 0.42424,2.425735 1.20509,7.76112 1.73522,11.85641 0.53014,4.095289 1.03557,7.517669 1.12319,7.605289 0.0876,0.0876 3.4101,0.49541 7.38329,0.9062 13.509,1.3967 21.538,3.04089 32.48786,6.6529 3.40142,1.12202 6.67063,2.2322 7.26493,2.46707 l 1.08053,0.42703 -0.79928,1.1225 c -2.19145,3.07759 -11.59955,8.33631 -16.94053,9.46901 -4.88455,1.0359 -13.65358,-0.15057 -20.41644,-2.76239 -1.896,-0.73223 -3.59078,-1.18784 -3.76617,-1.01245 -0.17539,0.1754 -1.66878,3.43583 -3.31865,7.24542 -3.72897,8.61028 -4.64093,10.17399 -6.89723,11.82635 -4.10616,3.00708 -9.17008,3.29053 -12.06014,0.67506 -0.66539,-0.60217 -0.54588,-0.67323 2.23671,-1.32982 8.23845,-1.94397 12.00739,-5.7156 14.48564,-14.49593 0.89958,-3.18716 0.96048,-3.28157 2.72976,-4.23193 0.9953,-0.53463 1.98581,-1.28684 2.20112,-1.67158 0.52018,-0.92951 0.074,-3.54164 -0.86421,-5.05973 -1.07777,-1.74387 -2.65847,-2.27288 -6.69109,-2.23932 -6.06405,0.0505 -8.57351,1.51821 -18.96656,11.09322 -6.91111,6.36714 -9.17257,7.97556 -12.73518,9.05768 -3.59965,1.09336 -9.20651,0.90684 -11.91025,-0.39621 -2.84738,-1.37227 -5.13815,-3.63237 -6.37637,-6.29097 -1.2905,-2.77082 -2.50584,-7.00416 -2.16784,-7.55106 0.12931,-0.20923 1.31472,-0.38041 2.63426,-0.38041 3.05624,0 17.50902,-1.34709 22.56719,-2.10339 3.65494,-0.5465 4.9026,-1.00126 4.9026,-1.78695 0,-1.09332 -1.94124,-1.12366 -11.32653,-0.17704 -5.26629,0.53117 -11.77549,1.08481 -14.46489,1.23031 l -4.88982,0.26454 0,-2.86066 0,-2.86066 5.40636,-0.46304 c 11.11153,-0.95166 22.66046,-2.66537 23.47907,-3.48397 0.19998,-0.19998 0.25981,-0.63407 0.13295,-0.96465 -0.3094,-0.80628 -2.14231,-0.77015 -9.26733,0.18268 -3.164,0.42312 -8.9684,0.87711 -12.89866,1.00886 l -7.14593,0.23955 -0.27862,-3.14746 c -0.15323,-1.7311 -0.18271,-3.24335 -0.0655,-3.36056 0.11721,-0.11721 3.67943,-0.53563 7.91606,-0.92982 13.4645,-1.25279 21.10175,-2.603544 21.10175,-3.732147 0,-1.220786 -1.10867,-1.251947 -9.64997,-0.271221 -4.71186,0.541023 -10.90679,1.092613 -13.7665,1.225756 l -5.19948,0.242077 -0.40547,-3.532732 c -0.42496,-3.702611 -0.90459,-4.774805 -1.7557,-3.924822 -0.29477,0.294377 -0.53115,1.89155 -0.61378,4.147193 l -0.13439,3.668437 -4.4678,-0.267591 c -2.45729,-0.147174 -8.95493,-0.675068 -14.43921,-1.173095 -8.697292,-0.789804 -10.043156,-0.834686 -10.532978,-0.35126 -0.938819,0.926566 0.283802,1.686709 3.664817,2.278528 2.737421,0.479167 15.266981,1.757627 22.879941,2.334577 l 2.97224,0.22525 0,3.47785 0,3.47785 -5.27334,-0.23203 c -2.90033,-0.12762 -9.47395,-0.77069 -14.60803,-1.42905 -5.134087,-0.65836 -9.578074,-1.10362 -9.875528,-0.98948 -0.789766,0.30306 -0.660752,1.6745 0.2009,2.13564 1.877367,1.00474 11.276358,2.33879 21.693938,3.07915 8.14218,0.57865 7.47855,0.26621 7.47855,3.52092 l 0,2.73676 -5.11387,-0.24525 c -2.81263,-0.1349 -9.03604,-0.60919 -13.82981,-1.05399 -4.79376,-0.4448 -9.136923,-0.70307 -9.651475,-0.57393 -1.521149,0.38179 -1.217715,1.65068 0.50264,2.10194 1.802998,0.47293 9.920975,1.40533 19.655175,2.2575 l 7.47855,0.6547 -0.0397,1.3423 c -0.0527,1.78198 -2.14811,5.98743 -4.33714,8.70464 -3.6785,4.56606 -7.042,6.12046 -12.47798,5.76654 -5.86904,-0.38211 -8.772128,-2.09031 -19.003874,-11.18201 -9.460838,-8.40669 -12.608599,-10.24538 -17.660124,-10.31577 -3.015279,-0.042 -4.7582,0.85113 -6.003855,3.07662 -1.922007,3.43388 -1.422513,5.82824 1.391751,6.67142 1.493843,0.44757 1.515228,0.48107 2.152205,3.37162 1.669827,7.57755 5.8447,11.95712 13.025848,13.6645 4.054845,0.96409 3.878113,0.84126 2.837076,1.97168 -2.192605,2.38083 -6.332363,3.08966 -9.549461,1.63509 z"
     id="path7164"
     inkscape:connector-curvature="0" />
  <path
     style="fill:#dbae51;fill-opacity:1;stroke:none;stroke-width:1;stroke-linejoin:miter;stroke-miterlimit:4;stroke-dasharray:none;stroke-opacity:1"
     d="m 152.61218,191.18671 c -3.85019,-1.80476 -9.78515,-3.76981 -14.42228,-4.77518 -4.76,-1.03201 -18.28208,-1.45336 -23.26598,-0.72497 -5.73286,0.83785 -13.51081,3.0892 -19.116359,5.53327 -0.525837,0.22927 -0.458206,-0.3569 0.446957,-3.87389 1.555072,-6.04219 2.038887,-11.11278 1.785964,-18.71763 -0.247569,-7.44382 -0.947687,-11.96605 -2.804788,-18.11679 -0.715767,-2.37063 -1.301394,-4.39081 -1.301394,-4.4893 0,-0.0985 0.696495,0.0667 1.547767,0.36703 2.79977,0.98781 7.679173,1.72098 11.453553,1.72098 6.47114,0 11.21124,-1.77264 15.5423,-5.81231 l 2.65633,-2.47761 1.31959,1.46064 c 6.07361,6.72275 14.89677,8.27066 26.07479,4.57446 2.99697,-0.991 4.2643,-1.26766 4.12326,-0.90013 -0.41689,1.08642 -1.71662,6.54981 -2.52968,10.6335 -1.05036,5.27556 -1.41739,16.05197 -0.77191,22.66427 0.37097,3.80027 1.71459,10.99109 2.55496,13.67383 0.27732,0.88528 0.0799,0.84091 -3.29308,-0.74017 z m -19.5593,-14.24721 c 8.86476,-2.8887 15.3952,-10.5864 19.58141,-23.08142 1.25621,-3.74952 1.24275,-4.72597 -0.0624,-4.52832 -0.65922,0.0998 -1.04666,0.84514 -2.07291,3.98765 -2.38588,7.30593 -6.34085,13.84885 -10.33655,17.10032 -7.29699,5.9379 -17.5303,7.36284 -25.4223,3.53996 -3.7168,-1.80041 -8.08984,-6.55522 -10.56651,-11.48894 -1.19776,-2.38603 -2.79752,-7.80711 -3.15999,-10.70815 -0.25584,-2.0477 -0.32126,-2.15224 -1.277507,-2.04139 -0.930994,0.10793 -1.003748,0.24846 -0.953956,1.84266 0.130801,4.18787 2.671933,11.53918 5.463003,15.80412 3.36079,5.13549 7.68392,8.33107 13.46711,9.95465 3.52039,0.98832 11.76682,0.78344 15.34062,-0.38114 z"
     id="path7706"
     inkscape:connector-curvature="0" />
  <path
     style="fill:#dbae51;fill-opacity:1;stroke:none;stroke-width:1;stroke-linejoin:miter;stroke-miterlimit:4;stroke-dasharray:none;stroke-opacity:1"
     d="m 89.194426,183.95261 c -2.91153,-4.98393 -14.052388,-26.79452 -14.052388,-27.51053 0,-0.14247 0.44269,-0.0907 0.983756,0.11499 0.541065,0.20571 2.117078,0.37402 3.502251,0.37402 3.64339,0 5.550709,-1.37613 7.682683,-5.54305 l 0.775718,-1.51613 0.770346,1.51613 c 0.42369,0.83388 1.234424,2.98308 1.801632,4.77602 2.641855,8.35087 3.601065,16.75735 2.923229,25.61908 -0.689179,9.01004 -0.457891,8.89567 -4.387227,2.16947 z"
     id="path7708"
     inkscape:connector-curvature="0" />
  <path
     style="fill:#dbae51;fill-opacity:1;stroke:none;stroke-width:1;stroke-linejoin:miter;stroke-miterlimit:4;stroke-dasharray:none;stroke-opacity:1"
     d="m 157.58666,186.34268 c -0.60511,-4.06727 -0.29893,-14.9237 0.55367,-19.63195 0.71968,-3.97425 3.03671,-13.66963 3.65198,-15.28131 l 0.41658,-1.09124 1.80911,2.01217 c 2.31617,2.57614 4.14153,3.4109 7.48232,3.42177 1.48645,0.005 2.58873,0.17382 2.58873,0.39686 0,1.2134 -15.28849,33.36093 -15.86555,33.36093 -0.0895,0 -0.37604,-1.43425 -0.63684,-3.18723 z"
     id="path7710"
     inkscape:connector-curvature="0" />
  <path
     style="fill:#dbae51;fill-opacity:1;stroke:none;stroke-width:1;stroke-linejoin:miter;stroke-miterlimit:4;stroke-dasharray:none;stroke-opacity:1"
     d="m 117.52051,232.09098 c -6.10995,-0.44775 -14.57334,-2.48399 -17.29369,-4.16077 -3.39336,-2.09161 -7.73979,-9.91442 -9.722457,-17.4987 -0.869585,-3.32642 -2.063402,-11.56964 -1.749191,-12.07804 0.383358,-0.62029 6.488681,-3.99305 9.856302,-5.44491 9.345926,-4.02924 19.733606,-5.65567 31.167276,-4.87995 9.85803,0.66882 19.43242,4.03515 28.82234,10.13387 l 3.11256,2.02159 -0.33828,2.24735 c -0.45169,3.00076 -2.00614,8.43024 -3.43577,12.00067 -2.35306,5.8767 -6.60054,12.33797 -8.87264,13.49711 -1.95174,0.99571 -9.10152,2.84855 -13.71298,3.55367 -4.76836,0.72912 -12.55767,0.99473 -17.83347,0.60811 z m -12.78317,-7.49608 c 8.65778,-2.72729 10.64195,-3.01754 20.64523,-3.02002 10.04092,-0.002 10.65731,0.0911 19.29647,2.93035 4.89734,1.6095 5.88077,1.67125 6.30587,0.39597 0.31026,-0.93079 -6.159,-3.40984 -12.75457,-4.8876 -3.73254,-0.83629 -15.78056,-1.18075 -20.90422,-0.59766 -7.56306,0.8607 -18.406118,4.02402 -18.406118,5.36975 0,1.53143 0.390861,1.51861 5.817338,-0.19079 z m 12.52827,-11.979 c 1.14191,-2.07006 1.49589,-5.55939 0.81185,-8.00256 -1.52601,-5.45036 -9.23509,-8.5789 -15.42898,-6.26147 -7.261134,2.71674 -6.862807,11.90326 0.64037,14.76875 3.32098,1.2683 7.82914,0.43163 10.73229,-1.9918 0.60656,-0.50633 1.17879,-0.84463 1.27164,-0.75179 0.0928,0.0928 -0.0228,0.88054 -0.25708,1.75043 -0.77183,2.86633 0.736,3.1966 2.22991,0.48844 z m 16.77077,-1.27674 -0.26612,-2.35223 1.64447,1.4076 c 6.12023,5.23869 16.43258,1.23761 16.42982,-6.37459 -3.3e-4,-0.90324 -0.30235,-2.2463 -0.67115,-2.98456 -0.75308,-1.50751 -3.64771,-3.61397 -5.78002,-4.20621 -3.56438,-0.98999 -8.00768,-0.13268 -10.86996,2.0973 -3.90842,3.04503 -5.05522,7.97398 -2.92222,12.5597 0.79008,1.69859 1.21821,2.20522 1.86352,2.20522 0.79923,0 0.82554,-0.10824 0.57166,-2.35223 z"
     id="path7712"
     inkscape:connector-curvature="0" />
</svg>
