<?xml version="1.0" encoding="UTF-8" standalone="no"?>
<!-- Created with Inkscape (http://www.inkscape.org/) -->

<svg
   xmlns:dc="http://purl.org/dc/elements/1.1/"
   xmlns:cc="http://creativecommons.org/ns#"
   xmlns:rdf="http://www.w3.org/1999/02/22-rdf-syntax-ns#"
   xmlns:svg="http://www.w3.org/2000/svg"
   xmlns="http://www.w3.org/2000/svg"
   xmlns:sodipodi="http://sodipodi.sourceforge.net/DTD/sodipodi-0.dtd"
   xmlns:inkscape="http://www.inkscape.org/namespaces/inkscape"
   id="svg6377"
   version="1.1"
   inkscape:version="0.91 r13725"
   width="250"
   height="250"
   viewBox="0 0 250 250"
   sodipodi:docname="dinner.svg">
  <metadata
     id="metadata6383">
    <rdf:RDF>
      <cc:Work
         rdf:about="">
        <dc:format>image/svg+xml</dc:format>
        <dc:type
           rdf:resource="http://purl.org/dc/dcmitype/StillImage" />
        <dc:title></dc:title>
      </cc:Work>
    </rdf:RDF>
  </metadata>
  <defs
     id="defs6381" />
  <sodipodi:namedview
     pagecolor="#ffffff"
     bordercolor="#666666"
     borderopacity="1"
     objecttolerance="10"
     gridtolerance="10"
     guidetolerance="10"
     inkscape:pageopacity="0"
     inkscape:pageshadow="2"
     inkscape:window-width="1444"
     inkscape:window-height="851"
     id="namedview6379"
     showgrid="false"
     inkscape:zoom="2.6074563"
     inkscape:cx="136.91509"
     inkscape:cy="109.65171"
     inkscape:window-x="0"
     inkscape:window-y="0"
     inkscape:window-maximized="0"
     inkscape:current-layer="svg6377" />
  <path
     style="fill:#000000;stroke:#ffcc4d;stroke-opacity:1;stroke-width:2.6;stroke-miterlimit:4;stroke-dasharray:none"
     d="m 18.636223,210.14102 c -5.821622,-1.91691 -9.2375837,-6.24884 -9.5162786,-12.06802 -0.079602,-1.66212 0.9844006,-20.92209 2.3644476,-42.79993 1.380052,-21.87783 2.513078,-40.42542 2.517842,-41.21686 0.0086,-1.41884 -0.02905,-1.44242 -2.684396,-1.68319 -2.9868187,-0.27084 -6.2701908,-1.7207 -7.0046847,-3.09312 -0.3110768,-0.58126 -0.4780005,-9.14142 -0.4780005,-24.512773 l 0,-23.61961 2.5439339,0 2.5439338,0 0,15.49487 0,15.494871 2.5439345,0 2.543933,0 0,-15.494871 0,-15.49487 2.543934,0 2.543934,0 0,15.49487 0,15.494871 2.775201,0 2.7752,0 0,-15.519043 0,-15.519042 2.4283,0.139807 2.428301,0.139804 0.121868,15.379234 0.121869,15.37924 2.537699,0 2.537698,0 0,-15.494871 0,-15.49487 2.543934,0 2.543934,0 0,23.61961 c 0,15.371353 -0.166923,23.931513 -0.477995,24.512773 -0.734499,1.37242 -4.017867,2.82228 -7.004691,3.09312 l -2.693049,0.24419 0,1.6393 c 0,0.90161 1.053096,18.30443 2.340211,38.67294 1.287115,20.3685 2.37985,39.42723 2.4283,42.35276 0.08251,4.98205 0.006,5.48633 -1.207507,7.95748 -2.117669,4.31238 -5.940998,6.85408 -10.716669,7.12429 -1.53384,0.0868 -3.309154,-0.0135 -3.945137,-0.22296 z m 208.491147,-0.25336 c -2.55124,-0.91055 -3.91409,-1.92944 -5.21971,-3.90236 -1.78045,-2.69044 -1.94312,-4.92437 -1.05994,-14.55515 1.83341,-19.99266 4.09042,-47.52609 4.19619,-51.18941 0.10222,-3.5401 -0.0219,-4.20735 -1.24658,-6.70166 -0.74804,-1.52357 -2.33284,-3.70904 -3.52175,-4.8566 -2.70963,-2.61537 -3.56989,-4.29089 -4.35301,-8.47826 -3.52837,-18.86632 1.90211,-45.091993 12.75547,-61.600634 2.8421,-4.323025 7.6028,-9.213202 9.4111,-9.667056 2.74144,-0.688056 2.56337,-6.02052 2.56056,76.6754 -0.002,53.52692 -0.15185,76.46009 -0.50873,77.76461 -0.65513,2.39477 -4.15236,5.83211 -6.71482,6.59984 -2.39779,0.71839 -4.10471,0.69435 -6.29878,-0.0887 z m -107.42758,-4.90804 c -9.76235,-1.112 -18.32598,-3.62399 -26.826954,-7.8692 C 61.168388,181.27783 44.273747,145.60816 52.135263,111.10113 60.969535,72.324331 97.909018,46.514703 137.2013,51.665472 c 24.74178,3.243363 45.68316,17.525761 57.79046,39.414127 8.78371,15.879781 11.60884,34.670251 7.93344,52.766781 -5.41659,26.66966 -25.55938,49.10364 -51.80932,57.70247 -9.21938,3.02005 -22.39255,4.45861 -31.41609,3.43077 z m 18.50683,-10.8767 c 16.04369,-2.4518 31.57711,-11.5908 41.62744,-24.49131 6.99404,-8.97748 11.22124,-18.27302 13.46938,-29.61892 1.23959,-6.25597 1.11986,-18.29602 -0.24591,-24.72875 -2.94772,-13.88373 -8.6016,-24.344842 -18.51589,-34.259132 -9.91536,-9.915363 -20.38348,-15.572587 -34.25912,-18.514435 -6.30319,-1.336378 -17.90637,-1.466443 -24.41675,-0.2737 -37.3287,6.838874 -61.566907,42.599917 -53.980587,79.642927 4.163821,20.33138 18.156936,37.95452 37.231937,46.89046 12.2691,5.74762 25.05194,7.49808 39.0895,5.35286 z M 116.73806,188.9863 C 98.04445,185.85361 80.737793,172.90614 72.082298,155.5784 69.637605,150.68429 67.341485,143.46966 66.462655,137.92094 64.8955,128.02633 66.143252,115.26123 69.536316,106.47579 76.960721,87.252309 93.485155,72.701092 113.12173,68.095025 c 17.65282,-4.140759 36.66109,-0.255826 51.00336,10.424129 3.8507,2.86742 9.61762,8.617967 12.55258,12.516948 18.24733,24.240868 16.14812,58.112078 -4.95343,79.924508 -9.24357,9.55498 -21.45913,15.98572 -34.3314,18.0734 -5.28069,0.85645 -15.39893,0.83308 -20.65478,-0.0477 z"
     id="path6387"
     inkscape:connector-curvature="0" />
  <path
     style="fill:#ffcc4d;fill-opacity:1;stroke:#ffcc4d;stroke-width:3.04894853;stroke-miterlimit:4;stroke-dasharray:none;stroke-opacity:1"
     d="M 117.04898,204.49224 C 90.932185,200.39114 69.713703,185.00228 58.377326,161.94021 43.8503,132.38727 49.672641,97.181257 72.935212,73.912907 87.602926,59.241549 106.69425,51.295977 127.27832,51.295977 c 38.52352,0 70.59178,27.822015 76.25335,66.156433 1.22806,8.31516 0.67497,20.22084 -1.33625,28.76366 -3.93717,16.72353 -14.60942,32.78876 -28.85121,43.43054 -10.36541,7.74526 -20.61426,12.12931 -33.47605,14.31973 -6.21002,1.0576 -17.7409,1.32334 -22.81918,0.5259 z m 21.68007,-10.29213 c 13.81291,-2.37639 26.36245,-8.98441 36.42254,-19.17846 5.31713,-5.38794 8.67704,-10.09407 12.07748,-16.91659 4.46935,-8.96717 6.44401,-16.14684 6.85028,-24.90705 0.58403,-12.59289 -0.85195,-21.51246 -5.06835,-31.48218 -7.09531,-16.776934 -23.17343,-31.565901 -40.3567,-37.120882 -8.33013,-2.69295 -11.14833,-3.099148 -21.44215,-3.09054 -8.03781,0.0067 -9.68532,0.114051 -12.99909,0.846844 -17.983306,3.976753 -33.258205,14.379807 -42.894973,29.213857 -13.802585,21.246561 -14.602581,48.623201 -2.044403,69.961361 11.003317,18.69623 29.285356,30.68737 50.843426,33.34807 2.83268,0.3496 15.28177,-0.1015 18.61194,-0.67443 z"
     id="path6389"
     inkscape:connector-curvature="0" />
</svg>
