<?xml version="1.0" encoding="UTF-8" standalone="no"?>
<!-- Created with Inkscape (http://www.inkscape.org/) -->

<svg
   xmlns:dc="http://purl.org/dc/elements/1.1/"
   xmlns:cc="http://creativecommons.org/ns#"
   xmlns:rdf="http://www.w3.org/1999/02/22-rdf-syntax-ns#"
   xmlns:svg="http://www.w3.org/2000/svg"
   xmlns="http://www.w3.org/2000/svg"
   xmlns:sodipodi="http://sodipodi.sourceforge.net/DTD/sodipodi-0.dtd"
   xmlns:inkscape="http://www.inkscape.org/namespaces/inkscape"
   id="svg3406"
   version="1.1"
   inkscape:version="0.91 r13725"
   width="250"
   height="250"
   viewBox="0 0 250 250"
   sodipodi:docname="festival.svg">
  <metadata
     id="metadata3412">
    <rdf:RDF>
      <cc:Work
         rdf:about="">
        <dc:format>image/svg+xml</dc:format>
        <dc:type
           rdf:resource="http://purl.org/dc/dcmitype/StillImage" />
        <dc:title />
      </cc:Work>
    </rdf:RDF>
  </metadata>
  <defs
     id="defs3410" />
  <sodipodi:namedview
     pagecolor="#ffffff"
     bordercolor="#666666"
     borderopacity="1"
     objecttolerance="10"
     gridtolerance="10"
     guidetolerance="10"
     inkscape:pageopacity="0"
     inkscape:pageshadow="2"
     inkscape:window-width="1440"
     inkscape:window-height="856"
     id="namedview3408"
     showgrid="false"
     inkscape:zoom="1.4142136"
     inkscape:cx="109.84832"
     inkscape:cy="55.37079"
     inkscape:window-x="0"
     inkscape:window-y="0"
     inkscape:window-maximized="0"
     inkscape:current-layer="svg3406" />
  <path
     style="fill:#daad50;fill-opacity:1"
     d=""
     id="path4317"
     inkscape:connector-curvature="0" />
  <path
     style="fill:#daad50;fill-opacity:1"
     d=""
     id="path4319"
     inkscape:connector-curvature="0" />
  <path
     style="fill:#daad50;fill-opacity:1"
     d=""
     id="path4323"
     inkscape:connector-curvature="0" />
  <path
     style="fill:#daad50;fill-opacity:1"
     d=""
     id="path4325"
     inkscape:connector-curvature="0" />
  <path
     style="fill:#daad50;fill-opacity:1"
     d=""
     id="path4327"
     inkscape:connector-curvature="0" />
  <path
     style="fill:#daad50;fill-opacity:1"
     d=""
     id="path4329"
     inkscape:connector-curvature="0" />
  <path
     style="fill:#daad50;fill-opacity:1"
     d=""
     id="path4343"
     inkscape:connector-curvature="0" />
  <g
     id="g4634">
    <path
       sodipodi:nodetypes="cccccccccccccccccssssscccssscccccccccccssssss"
       inkscape:connector-curvature="0"
       id="path3416"
       d="m 26.634617,194.375 0,-46.875 -11.875,0 -11.875,0 0,-11.875 0,-11.875 121.875003,0 121.875,0 0,11.875 0,11.875 -11.25,0 -11.25,0 0,46.875 0,46.875 -98.75,0 -98.750003,0 z m 95.231763,-92.8125 c 0.52906,-13.985631 2.0257,-18.850901 7.72695,-25.118771 5.84935,-6.43067 8.41023,-6.96287 35.93514,-7.46805 31.45669,-0.57734 38.05312,0.4713 44.68549,7.10366 5.93368,5.93368 7.67066,12.02009 7.67066,26.878191 l 0,12.04247 -8.125,0 -8.125,0 0,-8.125 c 0,-7.833331 -0.11213,-8.125001 -3.125,-8.125001 -3.01283,0 -3.125,0.29167 -3.125,8.125001 l 0,8.125 -25,0 -25,0 0,-8.125 0,-8.125001 -3.75,0 -3.75,0 0,8.125001 0,8.125 -8.26328,0 -8.26328,0 z m 40.39324,-38.341141 c -16.29358,-7.30295 -17.43,-29.643683 -1.92498,-37.842935 12.45124,-6.584374 26.02624,-0.551389 30.21454,13.427909 2.74115,9.149162 -2.45445,19.514536 -11.94131,23.823256 -6.00458,2.72714 -11.1671,2.91401 -16.34825,0.59177 z"
       style="fill:#000000;stroke:#dbae51;stroke-opacity:1;stroke-width:4.9;stroke-miterlimit:4;stroke-dasharray:none" />
    <path
       inkscape:connector-curvature="0"
       id="path3511"
       d="m 124.17042,233.51412 c -1.46819,-2.35209 -8.2998,-6.74762 -19.62636,-12.62778 -8.995891,-4.67022 -13.766312,-9.43774 -16.106887,-16.09712 -1.00291,-2.85342 -1.009305,-3.28684 -0.171301,-11.60908 1.172987,-11.64913 0.803659,-25.03192 -0.847864,-30.7223 -1.410844,-4.8611 -2.244973,-6.54345 -4.540816,-9.15827 l -1.750523,-1.99373 4.358295,-3.87451 c 2.39707,-2.13096 5.93048,-5.41364 7.852022,-7.29487 l 3.493721,-3.42039 1.520122,1.2791 c 2.244611,1.88871 7.963581,3.27554 12.128841,2.94121 4.51617,-0.36253 8.30021,-2.31263 11.63735,-5.99733 l 2.62807,-2.90172 3.87631,3.86737 c 4.20396,4.19424 6.90246,5.42831 11.80571,5.39898 3.15499,-0.0189 8.01877,-1.49093 10.42455,-3.15506 l 1.87961,-1.30018 4.37482,4.17047 c 2.40615,2.29378 5.92996,5.52125 7.83064,7.17213 l 3.45584,3.00164 -2.20341,2.31626 c -1.48774,1.56394 -2.60909,3.5152 -3.45249,6.00761 -1.21529,3.59155 -1.24943,4.268 -1.26303,25.0186 l -0.014,21.32723 -1.53947,2.38651 c -3.90199,6.04895 -7.7633,9.08153 -19.21967,15.09458 -7.73342,4.05901 -13.34078,7.79076 -14.87956,9.9025 -0.95527,1.31097 -0.99554,1.31752 -1.65055,0.26815 l 2e-5,0 z"
       style="fill:#ffcc4d;fill-opacity:1" />
    <path
       sodipodi:nodetypes="cscssscscscsccccsccscccsccccsscccc"
       inkscape:connector-curvature="0"
       id="path4381"
       d="m 27.57496,114.39559 c -0.05463,-0.0885 0.32508,-6.54728 -0.895373,-15.371891 L 24.324292,81.99354 24.304799,81.026736 c -0.0192,-0.952368 -0.01949,-0.939726 -0.01949,-2.042515 0,-1.088738 -1.5e-5,-1.33538 0.0011,-2.253645 l 0.0011,-0.902314 0,-2.597637 c 0,-2.025163 0.04042,-2.631168 0.18332,-2.749757 0.133585,-0.110871 3.214536,-0.142773 11.359858,-0.117639 l 11.176582,0.03451 0.06773,2.831507 c 0.06722,2.810002 -0.01043,2.918923 0.015,3.770497 -0.0013,0.878652 0.01244,0.915728 0.01371,1.990052 0.0018,1.099366 -0.04094,1.302299 -0.05934,2.189848 l -0.06082,1.073774 -2.306355,16.269383 c -1.239193,8.74147 -0.773772,15.56326 -0.842562,15.73003 l -0.125053,0.30345 -8.01763,0 c -6.06159,0 -8.041857,-0.0392 -8.116995,-0.16068 z m 18.758136,-40.96409 0,-2.359614 -6.741779,-0.04574 c -3.707958,-0.02516 -8.517959,-0.0028 -10.688877,0.04924 l -3.947113,0.09495 0.0369,2.242962 0.0369,2.242974 2.022532,0.0772 c 1.112387,0.04245 5.905783,0.0728 10.651982,0.06739 l 8.629464,-0.0098 0,-2.359607 z"
       style="fill:#ffcc4d;fill-opacity:1" />
    <path
       sodipodi:nodetypes="cscssscscscsccccsccscccsccccsscccc"
       inkscape:connector-curvature="0"
       id="path4381-4"
       d="m 63.435931,114.3956 c -0.05463,-0.0885 0.325081,-6.54729 -0.895373,-15.3719 l -2.355294,-17.030159 -0.01949,-0.966804 c -0.0192,-0.952368 -0.01949,-0.939725 -0.01949,-2.042514 0,-1.088739 -1.4e-5,-1.335381 0.0011,-2.253646 l 0.0011,-0.902314 0,-2.597637 c 0,-2.025163 0.04042,-2.631168 0.18332,-2.749757 0.133585,-0.110871 3.214536,-0.142773 11.359858,-0.117639 l 11.176581,0.03451 0.06773,2.831507 c 0.06722,2.810002 -0.01043,2.918923 0.015,3.770497 -0.0013,0.878652 0.01244,0.915728 0.01371,1.990052 0.0018,1.099366 -0.04094,1.3023 -0.05934,2.189848 l -0.06082,1.073774 -2.306355,16.269383 c -1.239194,8.741459 -0.773772,15.563259 -0.842562,15.730019 l -0.125054,0.30345 -8.017629,0 c -6.061591,0 -8.041858,-0.0392 -8.116996,-0.16067 z m 18.758136,-40.964099 0,-2.359613 -6.741779,-0.04573 c -3.707958,-0.02516 -8.517959,-0.0028 -10.688877,0.04924 l -3.947112,0.09496 0.0369,2.242962 0.0369,2.242975 2.022531,0.0772 c 1.112388,0.04245 5.905783,0.0728 10.651983,0.06739 l 8.629463,-0.0098 0,-2.359607 z"
       style="fill:#ffcc4d;fill-opacity:1" />
  </g>
  <path
     style="fill:#dbae51;fill-opacity:1;stroke:none;stroke-width:3.46482325;stroke-linejoin:miter;stroke-miterlimit:4;stroke-dasharray:none;stroke-opacity:1"
     d="m 123.85265,232.49211 c -1.31702,-1.58691 -7.32177,-5.38789 -16.91015,-10.70404 -9.589773,-5.31692 -14.570842,-9.50855 -17.123138,-14.40933 -1.503326,-2.88661 -1.62562,-3.83837 -1.317427,-10.25305 0.186852,-3.88909 0.328768,-12.48044 0.315371,-19.09189 -0.02734,-13.49469 -0.969514,-18.28081 -4.61626,-23.45012 -1.142292,-1.61921 -2.076895,-3.08176 -2.076895,-3.2501 0,-0.16835 3.288266,-3.35534 7.307258,-7.08221 l 7.307258,-6.77612 3.575343,1.76942 c 7.33513,3.63011 15.99207,2.07976 21.71362,-3.88864 l 2.78037,-2.90033 3.94574,3.76361 c 2.17016,2.06998 5.18092,4.17124 6.69056,4.66947 3.72435,1.22915 9.43575,0.5402 13.83356,-1.66869 l 3.58365,-1.79997 7.39371,6.8514 c 6.99118,6.47839 7.33666,6.92949 6.34574,8.28602 -5.28584,7.23611 -5.21432,6.80581 -5.24982,31.58566 l -0.031,21.66574 -3.06521,4.14366 c -3.2079,4.33655 -8.13254,7.85491 -21.32998,15.239 -3.50017,1.95838 -7.68258,4.63199 -9.29424,5.94134 -2.49102,2.02378 -3.05736,2.22752 -3.77803,1.35917 z"
     id="path4855"
     inkscape:connector-curvature="0" />
  <path
     style="fill:#dbae51;fill-opacity:1;stroke:none;stroke-width:4.9000001;stroke-linejoin:miter;stroke-miterlimit:4;stroke-dasharray:none;stroke-opacity:1"
     d="M 63.485847,106.7928 C 63.228204,102.80648 62.391666,95.408379 61.626874,90.352566 60.862082,85.296753 60.28252,78.773693 60.338959,75.856877 c 0.05644,-2.916815 0.227433,-4.110058 0.379987,-2.65165 l 0.277371,2.65165 10.521232,0 10.521232,0 0.277372,-2.65165 c 0.152554,-1.458408 0.323548,-0.265165 0.379987,2.65165 0.05644,2.916816 -0.523123,9.439876 -1.287916,14.495689 -0.764792,5.055813 -1.601329,12.453914 -1.858972,16.440234 l -0.468441,7.24784 -7.563262,0 -7.563261,0 -0.468441,-7.24784 z"
     id="path4857"
     inkscape:connector-curvature="0" />
  <path
     style="fill:#dbae51;fill-opacity:1;stroke:none;stroke-width:4.9000001;stroke-linejoin:miter;stroke-miterlimit:4;stroke-dasharray:none;stroke-opacity:1"
     d="m 27.66587,108.91412 c -0.0061,-2.81959 -0.642479,-9.572128 -1.414213,-15.005642 -0.771735,-5.433514 -1.403154,-11.717926 -1.403154,-13.965359 l 0,-4.086242 10.960155,0 10.960155,0 7.77e-4,3.005204 c 4.32e-4,1.652862 -0.633849,7.778174 -1.409514,13.611805 -0.775665,5.833631 -1.598663,13.072634 -1.828883,16.086674 l -0.418575,5.48008 -7.717844,0 -7.717844,0 -0.01106,-5.12652 z"
     id="path4859"
     inkscape:connector-curvature="0" />
</svg>
