<?xml version="1.0" encoding="UTF-8" standalone="no"?>
<!-- Generator: Adobe Illustrator 16.0.0, SVG Export Plug-In . SVG Version: 6.00 Build 0)  -->

<svg
   xmlns:dc="http://purl.org/dc/elements/1.1/"
   xmlns:cc="http://creativecommons.org/ns#"
   xmlns:rdf="http://www.w3.org/1999/02/22-rdf-syntax-ns#"
   xmlns:svg="http://www.w3.org/2000/svg"
   xmlns="http://www.w3.org/2000/svg"
   xmlns:sodipodi="http://sodipodi.sourceforge.net/DTD/sodipodi-0.dtd"
   xmlns:inkscape="http://www.inkscape.org/namespaces/inkscape"
   version="1.1"
   id="Layer_1"
   x="0px"
   y="0px"
   width="250"
   height="250"
   viewBox="0 0 250 250"
   enable-background="new 0 0 24 24"
   xml:space="preserve"
   inkscape:version="0.91 r13725"
   sodipodi:docname="music.svg"><metadata
     id="metadata5549"><rdf:RDF><cc:Work
         rdf:about=""><dc:format>image/svg+xml</dc:format><dc:type
           rdf:resource="http://purl.org/dc/dcmitype/StillImage" /><dc:title></dc:title></cc:Work></rdf:RDF></metadata><defs
     id="defs5547" /><sodipodi:namedview
     pagecolor="#ffffff"
     bordercolor="#666666"
     borderopacity="1"
     objecttolerance="10"
     gridtolerance="10"
     guidetolerance="10"
     inkscape:pageopacity="0"
     inkscape:pageshadow="2"
     inkscape:window-width="1441"
     inkscape:window-height="860"
     id="namedview5545"
     showgrid="false"
     inkscape:zoom="2.4583333"
     inkscape:cx="104.87399"
     inkscape:cy="121.00357"
     inkscape:window-x="0"
     inkscape:window-y="0"
     inkscape:window-maximized="0"
     inkscape:current-layer="Layer_1" /><g
     id="g5539"
     transform="matrix(10.400409,0,0,10.400409,0,0.39017492)"><path
       d="M 23.411,0 2.651,0 C 1.193,0 0,1.193 0,2.651 L 0,23.41 C 0,23.735 0.265,24 0.589,24 L 23.41,24 C 23.734,24 24,23.735 24,23.411 L 24,0.589 C 24,0.266 23.734,0 23.411,0 Z M 2.007,23.127 c -0.593,0 -1.077,-0.484 -1.077,-1.077 0,-0.593 0.483,-1.077 1.077,-1.077 0.594,0 1.077,0.484 1.077,1.077 0,0.593 -0.483,1.077 -1.077,1.077 z m 2.812,0 c -0.593,0 -1.076,-0.484 -1.076,-1.077 0,-0.593 0.483,-1.077 1.076,-1.077 0.593,0 1.077,0.484 1.077,1.077 0,0.593 -0.483,1.077 -1.077,1.077 z M 1.873,9.752 c 0,-4.189 3.396,-7.585 7.585,-7.585 4.189,0 7.585,3.396 7.585,7.585 0,4.189 -3.396,7.585 -7.585,7.585 -4.189,0 -7.585,-3.395 -7.585,-7.585 z M 21.399,6.348 c 0,0.273 -0.223,0.496 -0.497,0.496 l -0.066,0 0,4.34 -2.003,3.306 c -0.014,-0.017 -0.026,-0.035 -0.041,-0.05 0.21,0.211 0.21,0.552 0,0.762 l -2.668,2.668 c -0.21,0.21 -0.552,0.21 -0.763,0 L 14.79,17.299 c -0.211,-0.21 -0.211,-0.552 0,-0.762 l 2.668,-2.668 c 0.154,-0.154 0.378,-0.193 0.57,-0.121 -0.002,-10e-4 -0.004,-0.002 -0.006,-0.003 l 1.736,-2.897 0,-4.004 -0.066,0 c -0.273,0 -0.497,-0.223 -0.497,-0.496 l 0,-4.679 c 0,-0.273 0.223,-0.496 0.497,-0.496 l 1.209,0 c 0.273,0 0.497,0.223 0.497,0.496 l 0,4.679 z m 1.968,11.905 c 0,0.273 -0.223,0.496 -0.497,0.496 l -0.366,0 c -0.273,0 -0.497,-0.224 -0.497,-0.496 l 0,-12.506 c 0,-0.272 0.224,-0.497 0.497,-0.497 l 0.366,0 c 0.273,0 0.497,0.224 0.497,0.497 l 0,12.506 z"
       id="path5541"
       inkscape:connector-curvature="0"
       style="clip-rule:evenodd;fill-rule:evenodd" /><circle
       cx="9.4580002"
       cy="9.7530003"
       r="0.94800001"
       id="circle5543"
       style="clip-rule:evenodd;fill-rule:evenodd" /></g><path
     style="fill:#ffcc4d;fill-opacity:1;stroke:#ffcc4d;stroke-width:4.20423317;stroke-miterlimit:4;stroke-dasharray:none;stroke-opacity:1"
     d="M 92.366688,180.14857 C 56.999097,177.63376 27.703063,151.09131 20.881545,115.38239 19.633027,108.84666 19.651229,95.004691 20.917305,88.149888 26.937894,55.554329 52.115198,30.387742 84.733744,24.3605 c 6.961755,-1.28639 20.667726,-1.272616 27.464176,0.02931 16.07513,3.075489 30.38557,10.617639 41.75865,22.008227 8.80517,8.818806 15.03745,18.966433 18.99875,30.934747 2.781,8.402181 3.83449,15.056701 3.83819,24.244576 0.005,11.73303 -2.02387,21.6613 -6.5294,31.95559 -11.09975,25.36098 -36.89601,44.15823 -63.61894,46.35793 -7.263245,0.5979 -9.057508,0.63012 -14.278538,0.25868 z m 10.069732,-69.1977 c 9.24577,-4.19981 7.14584,-18.013917 -2.884881,-18.977704 -6.303799,-0.605218 -11.151113,3.626413 -11.151113,9.735924 0,7.47496 7.317923,12.29339 14.035994,9.24178 z"
     id="path5553"
     inkscape:connector-curvature="0" /></svg>