<?xml version="1.0" encoding="UTF-8" standalone="no"?>
<!-- Generator: Adobe Illustrator 16.0.0, SVG Export Plug-In . SVG Version: 6.00 Build 0)  -->

<svg
   xmlns:dc="http://purl.org/dc/elements/1.1/"
   xmlns:cc="http://creativecommons.org/ns#"
   xmlns:rdf="http://www.w3.org/1999/02/22-rdf-syntax-ns#"
   xmlns:svg="http://www.w3.org/2000/svg"
   xmlns="http://www.w3.org/2000/svg"
   xmlns:sodipodi="http://sodipodi.sourceforge.net/DTD/sodipodi-0.dtd"
   xmlns:inkscape="http://www.inkscape.org/namespaces/inkscape"
   version="1.1"
   id="Layer_1"
   x="0px"
   y="0px"
   width="250"
   height="250"
   viewBox="0 0 250 250"
   enable-background="new 0 0 24 24"
   xml:space="preserve"
   inkscape:version="0.91 r13725"
   sodipodi:docname="music.svg"><metadata
     id="metadata5549"><rdf:RDF><cc:Work
         rdf:about=""><dc:format>image/svg+xml</dc:format><dc:type
           rdf:resource="http://purl.org/dc/dcmitype/StillImage" /><dc:title></dc:title></cc:Work></rdf:RDF></metadata><defs
     id="defs5547" /><sodipodi:namedview
     pagecolor="#ffffff"
     bordercolor="#666666"
     borderopacity="1"
     objecttolerance="10"
     gridtolerance="10"
     guidetolerance="10"
     inkscape:pageopacity="0"
     inkscape:pageshadow="2"
     inkscape:window-width="1441"
     inkscape:window-height="860"
     id="namedview5545"
     showgrid="false"
     inkscape:zoom="2.4583333"
     inkscape:cx="104.87399"
     inkscape:cy="121.00357"
     inkscape:window-x="0"
     inkscape:window-y="0"
     inkscape:window-maximized="0"
     inkscape:current-layer="Layer_1" /><g
     id="g5539"
     transform="matrix(9.4682056,0,0,9.4682056,0,11.780005)"><path
       d="M 23.411,0 2.651,0 C 1.193,0 0,1.193 0,2.651 L 0,23.41 C 0,23.735 0.265,24 0.589,24 L 23.41,24 C 23.734,24 24,23.735 24,23.411 L 24,0.589 C 24,0.266 23.734,0 23.411,0 Z M 2.007,23.127 c -0.593,0 -1.077,-0.484 -1.077,-1.077 0,-0.593 0.483,-1.077 1.077,-1.077 0.594,0 1.077,0.484 1.077,1.077 0,0.593 -0.483,1.077 -1.077,1.077 z m 2.812,0 c -0.593,0 -1.076,-0.484 -1.076,-1.077 0,-0.593 0.483,-1.077 1.076,-1.077 0.593,0 1.077,0.484 1.077,1.077 0,0.593 -0.483,1.077 -1.077,1.077 z M 1.873,9.752 c 0,-4.189 3.396,-7.585 7.585,-7.585 4.189,0 7.585,3.396 7.585,7.585 0,4.189 -3.396,7.585 -7.585,7.585 -4.189,0 -7.585,-3.395 -7.585,-7.585 z M 21.399,6.348 c 0,0.273 -0.223,0.496 -0.497,0.496 l -0.066,0 0,4.34 -2.003,3.306 c -0.014,-0.017 -0.026,-0.035 -0.041,-0.05 0.21,0.211 0.21,0.552 0,0.762 l -2.668,2.668 c -0.21,0.21 -0.552,0.21 -0.763,0 L 14.79,17.299 c -0.211,-0.21 -0.211,-0.552 0,-0.762 l 2.668,-2.668 c 0.154,-0.154 0.378,-0.193 0.57,-0.121 -0.002,-10e-4 -0.004,-0.002 -0.006,-0.003 l 1.736,-2.897 0,-4.004 -0.066,0 c -0.273,0 -0.497,-0.223 -0.497,-0.496 l 0,-4.679 c 0,-0.273 0.223,-0.496 0.497,-0.496 l 1.209,0 c 0.273,0 0.497,0.223 0.497,0.496 l 0,4.679 z m 1.968,11.905 c 0,0.273 -0.223,0.496 -0.497,0.496 l -0.366,0 c -0.273,0 -0.497,-0.224 -0.497,-0.496 l 0,-12.506 c 0,-0.272 0.224,-0.497 0.497,-0.497 l 0.366,0 c 0.273,0 0.497,0.224 0.497,0.497 l 0,12.506 z"
       id="path5541"
       inkscape:connector-curvature="0"
       style="clip-rule:evenodd;fill-rule:evenodd" /><circle
       cx="9.4580002"
       cy="9.7530003"
       r="0.94800001"
       id="circle5543"
       style="clip-rule:evenodd;fill-rule:evenodd" /></g><path
     style="fill:#ffcc4d;fill-opacity:1;stroke:#ffcc4d;stroke-width:3.82740188;stroke-miterlimit:4;stroke-dasharray:none;stroke-opacity:1"
     d="M 84.087731,175.4264 C 51.890187,173.137 25.219998,148.97359 19.009903,116.46531 17.873291,110.51538 17.889862,97.914089 19.042453,91.673689 24.523408,61.999718 47.444035,39.088848 77.138935,33.601836 c 6.337763,-1.171089 18.815248,-1.158549 25.002525,0.02668 14.63429,2.799829 27.66207,9.665965 38.01576,20.035598 8.01595,8.028364 13.68963,17.266445 17.29587,28.162022 2.53173,7.649083 3.4908,13.707153 3.49417,22.071504 0.005,10.68138 -1.84247,19.71977 -5.94416,29.09137 -10.10487,23.08784 -33.58897,40.20026 -57.916692,42.2028 -6.61223,0.54431 -8.24567,0.57364 -12.998732,0.23549 z m 9.167168,-62.99541 c 8.417061,-3.82338 6.505348,-16.399301 -2.626305,-17.276711 -5.738781,-0.55097 -10.151623,3.30138 -10.151623,8.863281 0,6.80497 6.662007,11.19152 12.777928,8.41343 z"
     id="path5553"
     inkscape:connector-curvature="0" /><path
     style="fill:#ffcc4d;fill-opacity:1;stroke:#ffcc4d;stroke-width:3.23389816;stroke-miterlimit:4;stroke-dasharray:none;stroke-opacity:1"
     d="m 146.81297,181.65249 c -1.27517,-0.6969 -6.7073,-6.12097 -7.35186,-7.34094 -0.69347,-1.31257 -0.75086,-3.29597 -0.13082,-4.52152 0.65668,-1.29797 25.9874,-26.66258 27.34754,-27.38412 0.63414,-0.33641 1.81456,-0.55466 2.62316,-0.485 l 1.47017,0.12667 8.25819,-13.75467 8.2582,-13.75466 0,-19.037562 0,-19.037564 -1.59002,-0.254254 c -1.08166,-0.172967 -1.927,-0.654744 -2.64406,-1.506931 l -1.05406,-1.252674 0,-23.33214 c 0,-14.172674 0.15571,-23.741683 0.39664,-24.375382 0.21816,-0.573784 0.99612,-1.408745 1.72881,-1.855469 1.18727,-0.723877 2.05339,-0.812391 7.96255,-0.813746 5.08914,-0.0012 6.9036,0.139773 7.80582,0.606325 2.55813,1.322867 2.44516,0.117209 2.44516,26.095523 l 0,23.674889 -1.05405,1.252674 c -0.71707,0.852187 -1.5624,1.333964 -2.64407,1.506931 l -1.59001,0.254254 0,20.592284 0,20.592292 -9.37004,15.45741 c -6.91955,11.41493 -9.30321,15.67019 -9.11451,16.27098 0.5347,1.70241 0.66748,3.0795 0.40152,4.16429 -0.30431,1.24125 -25.64407,26.98797 -27.55779,28.00037 -1.29524,0.68521 -3.45125,0.73763 -4.59647,0.11174 z"
     id="path5617"
     inkscape:connector-curvature="0" /></svg>