<?xml version="1.0" encoding="UTF-8" standalone="no"?>
<!-- Created with Inkscape (http://www.inkscape.org/) -->

<svg
   xmlns:dc="http://purl.org/dc/elements/1.1/"
   xmlns:cc="http://creativecommons.org/ns#"
   xmlns:rdf="http://www.w3.org/1999/02/22-rdf-syntax-ns#"
   xmlns:svg="http://www.w3.org/2000/svg"
   xmlns="http://www.w3.org/2000/svg"
   xmlns:sodipodi="http://sodipodi.sourceforge.net/DTD/sodipodi-0.dtd"
   xmlns:inkscape="http://www.inkscape.org/namespaces/inkscape"
   id="svg3390"
   version="1.1"
   inkscape:version="0.91 r13725"
   width="250"
   height="250"
   viewBox="0 0 250 250"
   sodipodi:docname="sox.svg">
  <metadata
     id="metadata3396">
    <rdf:RDF>
      <cc:Work
         rdf:about="">
        <dc:format>image/svg+xml</dc:format>
        <dc:type
           rdf:resource="http://purl.org/dc/dcmitype/StillImage" />
        <dc:title></dc:title>
      </cc:Work>
    </rdf:RDF>
  </metadata>
  <defs
     id="defs3394" />
  <sodipodi:namedview
     pagecolor="#ffffff"
     bordercolor="#666666"
     borderopacity="1"
     objecttolerance="10"
     gridtolerance="10"
     guidetolerance="10"
     inkscape:pageopacity="0"
     inkscape:pageshadow="2"
     inkscape:window-width="1441"
     inkscape:window-height="860"
     id="namedview3392"
     showgrid="false"
     inkscape:zoom="2.6"
     inkscape:cx="82.423077"
     inkscape:cy="125"
     inkscape:window-x="0"
     inkscape:window-y="0"
     inkscape:window-maximized="0"
     inkscape:current-layer="svg3390" />
  <path
     style="fill:#dbae51;fill-opacity:1;stroke:#000000;stroke-opacity:1;stroke-width:4.50000002;stroke-miterlimit:4;stroke-dasharray:none"
     d="m 184.642,242.79184 c -2.38453,-3.893 -7.03836,-11.2919 -10.34187,-16.44198 l -6.00637,-9.36377 -11.35726,14.42576 c -6.24648,7.93415 -12.01464,15.12672 -12.81815,15.98346 -1.22847,1.3099 -2.6384,0.51751 -8.86205,-4.9805 l -7.40115,-6.53824 0,-10.48662 c 0,-5.76767 0.36225,-10.48664 0.80501,-10.48664 0.44278,0 3.20176,2.36068 6.1311,5.24598 6.30271,6.20793 5.45021,6.59425 16.76851,-7.5987 l 7.89589,-9.9013 -3.01545,-4.8406 c -1.65851,-2.66233 -3.1612,-5.01227 -3.33934,-5.2221 -0.17813,-0.20982 -3.38126,1.77465 -7.11806,4.40991 l -6.79418,4.79138 -18.52881,-11.1525 c -16.57552,-9.97679 -18.35875,-11.3404 -16.91558,-12.93509 1.1557,-1.27703 1.61323,-4.72622 1.61323,-12.16142 l 0,-10.37884 -5.905629,-2.6996 c -16.471817,-7.52964 -37.055648,-5.86638 -54.486857,4.40281 -3.595924,2.11845 -6.716384,3.67485 -6.934341,3.45867 -1.25619,-1.24594 5.790358,-11.7684 11.291687,-16.86164 13.779211,-12.75713 32.119676,-17.42507 52.47119,-13.35477 3.0975,0.61951 3.56395,0.40341 3.56395,-1.65104 0,-1.60364 2.33658,-4.09075 7.26553,-7.73356 3.99605,-2.95336 7.28634,-5.68036 7.31174,-6.06002 0.11829,-1.76682 -6.56209,-6.955 -12.77201,-9.91915 C 103.38576,102.93891 93.839184,98.421235 85.948118,94.702454 62.334641,83.574283 53.848827,73.427612 52.732132,54.98539 c -0.405947,-6.704235 0.01249,-10.38079 1.881717,-16.534931 2.918486,-9.608484 4.623426,-11.161941 4.623426,-4.212632 0,18.507282 8.071475,28.082837 37.121141,44.038493 17.830744,9.793614 21.306644,12.454378 23.885404,18.28405 1.72478,3.89919 2.11465,6.54163 1.64152,11.12586 -0.69267,6.71123 -0.71581,6.70833 6.61472,0.82872 l 4.58202,-3.67509 7.14797,4.97443 c 3.93137,2.73594 7.56419,4.97442 8.07291,4.97442 1.55382,0 1.02893,-8.90972 -0.72465,-12.30076 C 144.43323,96.406023 135.83558,90.537928 110.5373,77.206589 81.247546,61.771879 73.673709,56.273842 68.933677,47.005434 66.253339,41.764467 65.655722,39.1874 65.655722,32.870214 c 0,-9.466027 3.028895,-16.248997 10.21287,-22.8709568 8.469718,-7.8071138 13.365917,-9.38628299 28.926438,-9.32963069 13.30174,0.048428 13.70241,0.1263011 27.47283,5.33949869 14.41726,5.4580748 17.82139,6.1125818 21.51382,4.1364528 1.69469,-0.9069768 3.12316,-0.5139138 6.67534,1.836806 2.48561,1.644889 4.51925,3.449003 4.51925,4.009141 0,0.560139 -4.07875,6.302009 -9.06391,12.759713 l -9.06393,11.741277 -4.32376,-2.861326 c -3.06345,-2.027297 -4.52342,-3.92573 -5.00881,-6.513013 -2.4325,-12.966369 -31.12292,-22.1844355 -44.232908,-14.211779 -7.751456,4.713947 -9.186369,15.3069 -2.913582,21.509049 1.747258,1.727587 13.9973,8.750358 27.22235,15.60616 39.69646,20.578495 45.40976,24.556598 49.97097,34.79425 2.92897,6.574117 3.07685,19.765294 0.3038,27.097744 -3.58236,9.47232 -3.66927,8.99906 1.65246,8.99906 4.58383,0 4.71936,0.0947 2.94342,2.05711 -1.58853,1.7553 -1.86167,5.05612 -1.86167,22.49767 0,18.97069 0.14631,20.44054 2.03476,20.44054 2.72711,0 6.8562,3.32485 5.06496,4.07843 -2.29047,0.96362 -11.60059,8.35627 -11.57424,9.19047 0.0138,0.43567 0.94635,1.99018 2.07243,3.45443 l 2.04741,2.6623 15.5143,-19.2716 15.51431,-19.27162 5.3589,4.79804 5.35894,4.79804 0.11445,8.71784 c 0.063,4.79482 -0.19212,8.71785 -0.56683,8.71785 -0.37471,0 -2.19206,-1.27125 -4.0386,-2.82499 l -3.3573,-2.825 -12.27222,15.33835 c -6.74971,8.43613 -12.27221,15.74034 -12.27221,16.23162 0,1.34284 12.63268,21.3251 13.48161,21.3251 0.40455,0 3.44937,-2.02478 6.76628,-4.49953 3.31692,-2.47474 6.19242,-4.49954 6.39002,-4.49954 0.1976,0 0.35927,4.71806 0.35927,10.48456 l 0,10.48453 -7.31726,5.86369 c -4.0245,3.22504 -7.98887,6.12142 -8.80973,6.43641 -0.93193,0.35762 -3.12077,-2.08571 -5.82795,-6.50552 z m -42.87694,-63.29605 c 2.03673,-1.54258 2.02573,-1.7075 -0.37296,-5.58865 -2.78168,-4.50085 -3.2256,-4.66651 -6.29144,-2.34761 -1.20095,0.90835 -2.56318,1.66764 -3.0272,1.68733 -0.46403,0.0198 -0.84367,-3.49165 -0.84367,-7.80294 l 0,-7.83868 6.29584,-4.65101 c 3.46272,-2.55806 6.69557,-4.21918 7.18413,-3.69136 0.48857,0.52782 2.45471,3.49065 4.36918,6.58407 l 3.48088,5.62441 0.0215,-12.0575 0.0214,-12.0575 -6.20161,4.34423 c -3.4109,2.38934 -9.50259,5.74719 -13.5371,7.46189 l -7.33549,3.11761 0.31972,10.71543 0.31972,10.7154 6.18686,3.71831 c 7.08159,4.25604 6.64588,4.16034 9.41039,2.06657 z m -7.96908,-45.10833 c 3.53808,-2.21308 6.43287,-4.20341 6.43287,-4.42293 0,-0.21954 -1.54062,-1.49616 -3.4236,-2.83696 l -3.42361,-2.43782 -3.88045,2.64244 c -3.26063,2.22037 -3.88168,3.31622 -3.88813,6.86075 -0.004,2.32008 0.38781,4.21831 0.87117,4.21831 0.48336,0 3.77365,-1.81069 7.31175,-4.02379 z"
     id="path3400"
     inkscape:connector-curvature="0"
     sodipodi:nodetypes="sscssscsssscssscssscsscsssscssssssssscssssssssssssscsssssssssssscsccccccsscsssssscscscsscscssscccsscccsccssscscss" />
</svg>
